{
.appVersion = "1233";
classes = (
{
automatic = 1;
code = "A A.ss01 B B.ss01 C C.ss01 D D.ss01 D.ss02 E E.ss01 F F.ss01 G G.ss01 H H.ss01 I J K L L.ss01 M M.ss01 N O O.ss01 P P.ss01 Q Q_u Q.ss01 R R_stroke R.ss01 S S.ss01 T T.ss01 U U.ss01 V V.ss01 W X Y Z a a_hook a_macr b b_strok c c_hook c_ra c_strok d d_strok e e_hook e_macr f f_f g g_ra g_ring g_stroke g.ss01 h h_strok h_ring i idotless i_hook i_macr i_ring j k l l_strok m m_macr m_urrot m_urrot.ss01 n n_macr n_urrot o o_hook o_macr o_ra o_tilde p p_bardes p_flour p_p_flour p_macr p_ra p_urrot q q_bardes q_etfin q_etfin_ra q_etfin_ring q_macr q_ra q_ring q_strok q_urrot r r_hook r_macr r_ra r_strok r.ss01 r_ring s longs longs_strok longs_longs longs_t t t_acute t_ra t_stroke t_tilde u u_macr v w x y z z.ss01 con etfin rum usmod usmod.ss01";
name = AllLetters;
}
);
copyright = "Copyright © 2019 by ANRT 2019. All rights reserved.";
customParameters = (
{
name = glyphOrder;
value = (
.notdef,
emspace,
enspace,
threeperemspace,
fourperemspace,
space,
thinspace,
hairspace,
A,
A.ss01,
B,
B.ss01,
C,
C.ss01,
D,
D.ss01,
D.ss02,
E,
E.ss01,
F,
F.ss01,
G,
G.ss01,
H,
H.ss01,
I,
J,
K,
L,
L.ss01,
M,
M.ss01,
N,
O,
O.ss01,
P,
P.ss01,
Q,
Q_u,
Q.ss01,
R,
R_stroke,
R.ss01,
S,
S.ss01,
T,
T.ss01,
U,
U.ss01,
V,
V.ss01,
W,
X,
Y,
Z,
a,
a_hook,
a_macr,
b,
b_strok,
c,
c_hook,
c_ra,
c_strok,
d,
d_strok,
e,
e_hook,
e_macr,
f,
f_f,
g,
g_ra,
g_ring,
g_stroke,
g.ss01,
h,
h_strok,
h_ring,
i,
idotless,
i_hook,
i_macr,
i_ring,
j,
k,
l,
l_strok,
m,
m_macr,
m_urrot,
m_urrot.ss01,
n,
n_macr,
n_urrot,
o,
o_hook,
o_macr,
o_ra,
o_tilde,
p,
p_bardes,
p_flour,
p_p_flour,
p_macr,
p_ra,
p_urrot,
q,
q_bardes,
q_etfin,
q_etfin_ra,
q_etfin_ring,
q_macr,
q_ra,
q_ring,
q_strok,
q_urrot,
r,
r_hook,
r_macr,
r_ra,
r_strok,
r.ss01,
r_ring,
s,
longs,
longs_strok,
longs_longs,
longs_t,
t,
t_acute,
t_ra,
t_stroke,
t_tilde,
u,
u_macr,
v,
w,
x,
y,
z,
z.ss01,
ampersand,
ampersand.ss01,
con,
etfin,
rum,
usmod,
usmod.ss01,
us_ra,
comma,
hyphen,
period,
periodcentered,

glyphs = (
{
color = 3;
glyphname = A;
lastChange = "2019-04-24 16:48:09 +0000";
layers = (
{
layerId = "31E65565-C22C-4792-86EE-013C6F95D489";
paths = (
{
closed = 1;
nodes = (
"258 686 OFFCURVE",
"267 681 OFFCURVE",
"252 633 CURVE SMOOTH",
"84 102 LINE SMOOTH",
"68 52 OFFCURVE",
"52 44 OFFCURVE",
"5 32 CURVE",
"5 -3 LINE",
"40 1 OFFCURVE",
"151 0 OFFCURVE",
"176 -3 CURVE",
"176 32 LINE",
"135 44 OFFCURVE",
"129 43 OFFCURVE",
"144 99 CURVE SMOOTH",
"196 293 OFFCURVE",
"255 509 OFFCURVE",
"319 686 CURVE",
"296 684 LINE",
"405 490 OFFCURVE",
"497 291 OFFCURVE",
"574 97 CURVE SMOOTH",
"593 49 OFFCURVE",
"603 42 OFFCURVE",
"539 32 CURVE",
"539 -3 LINE",
"585 -1 OFFCURVE",
"736 0 OFFCURVE",
"784 -3 CURVE",
"784 32 LINE",
"733 39 OFFCURVE",
"730 45 OFFCURVE",
"698 107 CURVE SMOOTH",
"594 305 OFFCURVE",
"498 502 OFFCURVE",
"403 700 CURVE",
"344 711 OFFCURVE",
"299 725 OFFCURVE",
"252 750 CURVE",
"227 719 LINE"
);
},
{
closed = 1;
nodes = (
"171 320 LINE",
"283 327 OFFCURVE",
"426 331 OFFCURVE",
"538 330 CURVE",
"527 384 LINE",
"415 378 OFFCURVE",
"291 374 OFFCURVE",
"191 372 CURVE"
);
}
);
width = 789;
}
);
unicode = 0041;
},
{
color = 3;
glyphname = A.ss01;
lastChange = "2019-04-24 16:48:09 +0000";
layers = (
{
layerId = "31E65565-C22C-4792-86EE-013C6F95D489";
paths = (
{
closed = 1;
nodes = (
"493 431 LINE",
"379 338 OFFCURVE",
"276 246 OFFCURVE",
"208 165 CURVE",
"311 93 LINE",
"382 149 OFFCURVE",
"443 226 OFFCURVE",
"497 319 CURVE",
"497 274 LINE",
"439 156 OFFCURVE",
"364 58 OFFCURVE",
"296 -9 CURVE",
"293 -10 LINE",
"237 26 OFFCURVE",
"157 92 OFFCURVE",
"110 116 CURVE",
"110 121 LINE",
"245 277 OFFCURVE",
"342 342 OFFCURVE",
"497 478 CURVE"
);
},
{
closed = 1;
nodes = (
"505 373 LINE",
"272 373 LINE",
"257 441 LINE",
"508 441 LINE"
);
},
{
closed = 1;
nodes = (
"102 586 OFFCURVE",
"182 715 OFFCURVE",
"328 715 CURVE SMOOTH",
"420 715 OFFCURVE",
"486 676 OFFCURVE",
"521 579 CURVE",
"477 584 LINE",
"593 676 LINE",
"613 661 LINE",
"570 556 OFFCURVE",
"570 431 OFFCURVE",
"570 294 CURVE SMOOTH",
"570 204 OFFCURVE",
"590 90 OFFCURVE",
"627 90 CURVE SMOOTH",
"646 90 OFFCURVE",
"652 91 OFFCURVE",
"674 96 CURVE",
"681 71 LINE",
"654 45 OFFCURVE",
"624 18 OFFCURVE",
"592 -10 CURVE",
"553 5 OFFCURVE",
"528 23 OFFCURVE",
"498 42 CURVE",
"482 152 OFFCURVE",
"471 322 OFFCURVE",
"487 517 CURVE",
"459 578 OFFCURVE",
"385 611 OFFCURVE",
"303 611 CURVE SMOOTH",
"184 611 OFFCURVE",
"122 544 OFFCURVE",
"34 413 CURVE",
"11 427 LINE"
);
}
);
width = 741;
}
);
},
{
color = 3;
glyphname = B;
lastChange = "2019-04-24 16:48:09 +0000";
layers = (
{
layerId = "31E65565-C22C-4792-86EE-013C6F95D489";
paths = (
{
closed = 1;
nodes = (
"490 424 OFFCURVE",
"553 494 OFFCURVE",
"553 571 CURVE SMOOTH",
"553 651 OFFCURVE",
"507 711 OFFCURVE",
"387 711 CURVE SMOOTH",
"319 711 OFFCURVE",
"241 703 OFFCURVE",
"163 703 CURVE SMOOTH",
"143 703 OFFCURVE",
"93 701 OFFCURVE",
"63 703 CURVE",
"58 663 LINE",
"98 653 OFFCURVE",
"106 634 OFFCURVE",
"109 586 CURVE SMOOTH",
"119 423 OFFCURVE",
"119 192 OFFCURVE",
"116 139 CURVE SMOOTH",
"113 83 OFFCURVE",
"110 48 OFFCURVE",
"100 17 CURVE",
"119 -11 LINE",
"149 -5 OFFCURVE",
"187 4 OFFCURVE",
"224 4 CURVE SMOOTH",
"259 4 OFFCURVE",
"314 -10 OFFCURVE",
"390 -10 CURVE SMOOTH",
"519 -10 OFFCURVE",
"649 67 OFFCURVE",
"649 219 CURVE SMOOTH",
"649 340 OFFCURVE",
"543 406 OFFCURVE",
"396 420 CURVE",
"430 408 LINE"
);
},
{
closed = 1;
nodes = (
"448 461 OFFCURVE",
"387 405 OFFCURVE",
"297 405 CURVE SMOOTH",
"261 405 OFFCURVE",
"236 408 OFFCURVE",
"213 415 CURVE",
"212 477 OFFCURVE",
"213 544 OFFCURVE",
"216 596 CURVE SMOOTH",
"218 648 OFFCURVE",
"222 670 OFFCURVE",
"318 670 CURVE SMOOTH",
"415 670 OFFCURVE",
"448 624 OFFCURVE",
"448 541 CURVE SMOOTH"
);
},
{
closed = 1;
nodes = (
"285 34 OFFCURVE",
"251 45 OFFCURVE",
"221 60 CURVE",
"216 159 OFFCURVE",
"211 260 OFFCURVE",
"213 359 CURVE",
"236 367 OFFCURVE",
"276 376 OFFCURVE",
"324 376 CURVE SMOOTH",
"443 376 OFFCURVE",
"546 329 OFFCURVE",
"546 209 CURVE SMOOTH",
"546 99 OFFCURVE",
"465 34 OFFCURVE",
"343 34 CURVE SMOOTH"
);
}
);
width = 689;
}
);
unicode = 0042;
},
{
color = 3;
glyphname = B.ss01;
lastChange = "2019-04-24 16:48:09 +0000";
layers = (
{
layerId = "31E65565-C22C-4792-86EE-013C6F95D489";
paths = (
{
closed = 1;
nodes = (
"94 469 OFFCURVE",
"76 443 OFFCURVE",
"71 412 CURVE",
"52 411 LINE",
"14 466 OFFCURVE",
"69 581 OFFCURVE",
"157 581 CURVE SMOOTH",
"215 581 OFFCURVE",
"296 521 OFFCURVE",
"296 422 CURVE SMOOTH",
"296 356 OFFCURVE",
"265 268 OFFCURVE",
"216 132 CURVE",
"186 142 LINE",
"258 336 OFFCURVE",
"245 469 OFFCURVE",
"137 469 CURVE SMOOTH"
);
},
{
closed = 1;
nodes = (
"177 180 OFFCURVE",
"333 199 OFFCURVE",
"433 199 CURVE",
"525 178 OFFCURVE",
"581 125 OFFCURVE",
"643 71 CURVE",
"733 104 OFFCURVE",
"773 144 OFFCURVE",
"773 228 CURVE SMOOTH",
"773 363 OFFCURVE",
"619 428 OFFCURVE",
"476 360 CURVE",
"462 399 LINE",
"550 460 OFFCURVE",
"623 508 OFFCURVE",
"676 558 CURVE",
"649 588 OFFCURVE",
"610 613 OFFCURVE",
"591 621 CURVE",
"553 596 OFFCURVE",
"454 523 OFFCURVE",
"442 509 CURVE",
"428 540 LINE",
"647 726 LINE",
"651 726 LINE",
"709 668 OFFCURVE",
"757 643 OFFCURVE",
"798 619 CURVE",
"798 605 LINE",
"491 374 LINE",
"498 395 LINE",
"556 422 OFFCURVE",
"588 433 OFFCURVE",
"633 433 CURVE SMOOTH",
"758 433 OFFCURVE",
"866 389 OFFCURVE",
"866 258 CURVE SMOOTH",
"866 133 OFFCURVE",
"682 31 OFFCURVE",
"624 -14 CURVE",
"556 58 OFFCURVE",
"500 119 OFFCURVE",
"387 119 CURVE SMOOTH",
"261 119 OFFCURVE",
"163 71 OFFCURVE",
"105 -13 CURVE",
"82 -6 LINE",
"112 124 LINE"
);
},
{
closed = 1;
nodes = (
"404 728 LINE",
"549 86 LINE",
"520 89 LINE",
"375 721 LINE"
);
},
{
closed = 1;
nodes = (
"328 715 LINE",
"469 142 LINE",
"442 148 LINE",
"300 708 LINE"
);
}
);
width = 897;
}
);
},
{
color = 3;
glyphname = C;
lastChange = "2019-04-24 16:48:14 +0000";
layers = (
{
layerId = "31E65565-C22C-4792-86EE-013C6F95D489";
paths = (
{
closed = 1;
nodes = (
"527 35 OFFCURVE",
"625 82 OFFCURVE",
"692 155 CURVE",
"717 141 LINE",
"632 -48 LINE",
"605 -42 LINE",
"598 56 LINE",
"613 51 LINE",
"563 17 OFFCURVE",
"495 -10 OFFCURVE",
"414 -10 CURVE SMOOTH",
"174 -10 OFFCURVE",
"45 127 OFFCURVE",
"45 350 CURVE SMOOTH",
"45 567 OFFCURVE",
"231 710 OFFCURVE",
"461 710 CURVE SMOOTH",
"581 710 OFFCURVE",
"693 668 OFFCURVE",
"772 627 CURVE",
"756 580 OFFCURVE",
"742 534 OFFCURVE",
"732 487 CURVE",
"701 486 LINE",
"669 590 OFFCURVE",
"579 670 OFFCURVE",
"438 670 CURVE SMOOTH",
"268 670 OFFCURVE",
"163 539 OFFCURVE",
"163 350 CURVE SMOOTH",
"163 190 OFFCURVE",
"257 35 OFFCURVE",
"417 35 CURVE SMOOTH"
);
}
);
width = 757;
}
);
leftMetricsKey = O;
unicode = 0043;
},
{
color = 3;
glyphname = C.ss01;
lastChange = "2019-04-24 16:48:09 +0000";
layers = (
{
layerId = "31E65565-C22C-4792-86EE-013C6F95D489";
paths = (
{
closed = 1;
nodes = (
"220 64 LINE",
"321 65 OFFCURVE",
"400 157 OFFCURVE",
"400 244 CURVE SMOOTH",
"400 352 OFFCURVE",
"290 439 OFFCURVE",
"290 531 CURVE SMOOTH",
"290 642 OFFCURVE",
"387 715 OFFCURVE",
"477 715 CURVE SMOOTH",
"562 715 OFFCURVE",
"628 682 OFFCURVE",
"687 630 CURVE",
"687 626 LINE",
"587 557 LINE",
"548 598 OFFCURVE",
"501 658 OFFCURVE",
"437 658 CURVE SMOOTH",
"401 658 OFFCURVE",
"370 632 OFFCURVE",
"370 587 CURVE SMOOTH",
"370 475 OFFCURVE",
"503 382 OFFCURVE",
"503 288 CURVE SMOOTH",
"503 188 OFFCURVE",
"370 84 OFFCURVE",
"326 50 CURVE"
);
},
{
closed = 1;
nodes = (
"307 65 LINE SMOOTH",
"420 66 OFFCURVE",
"537 66 OFFCURVE",
"647 92 CURVE",
"653 89 LINE",
"613 -7 LINE",
"432 -1 OFFCURVE",
"270 -1 OFFCURVE",
"72 -7 CURVE",
"77 49 LINE",
"161 88 OFFCURVE",
"200 144 OFFCURVE",
"200 207 CURVE SMOOTH",
"200 301 OFFCURVE",
"120 355 OFFCURVE",
"120 458 CURVE SMOOTH",
"120 563 OFFCURVE",
"259 672 OFFCURVE",
"363 672 CURVE",
"363 638 LINE",
"282 638 OFFCURVE",
"220 571 OFFCURVE",
"220 485 CURVE SMOOTH",
"220 377 OFFCURVE",
"288 321 OFFCURVE",
"288 245 CURVE SMOOTH",
"288 165 OFFCURVE",
"235 128 OFFCURVE",
"165 64 CURVE"
);
}
);
width = 719;
}
);
},
{
color = 3;
glyphname = D;
lastChange = "2019-04-24 16:48:09 +0000";
layers = (
{
layerId = "31E65565-C22C-4792-86EE-013C6F95D489";
paths = (
{
closed = 1;
nodes = (
"286 710 OFFCURVE",
"201 697 OFFCURVE",
"141 698 CURVE SMOOTH",
"45 699 LINE",
"40 662 LINE",
"80 657 OFFCURVE",
"100 640 OFFCURVE",
"101 600 CURVE SMOOTH",
"104 489 OFFCURVE",
"106 249 OFFCURVE",
"97 122 CURVE SMOOTH",
"94 79 OFFCURVE",
"83 59 OFFCURVE",
"45 28 CURVE",
"59 -6 LINE",
"89 -1 OFFCURVE",
"121 10 OFFCURVE",
"171 10 CURVE SMOOTH",
"216 10 OFFCURVE",
"315 -10 OFFCURVE",
"373 -10 CURVE SMOOTH",
"583 -10 OFFCURVE",
"747 140 OFFCURVE",
"747 350 CURVE SMOOTH",
"747 540 OFFCURVE",
"607 710 OFFCURVE",
"367 710 CURVE SMOOTH"
);
},
{
closed = 1;
nodes = (
"266 32 OFFCURVE",
"205 74 OFFCURVE",
"201 171 CURVE SMOOTH",
"195 307 OFFCURVE",
"194 459 OFFCURVE",
"199 555 CURVE SMOOTH",
"203 634 OFFCURVE",
"198 670 OFFCURVE",
"303 670 CURVE SMOOTH",
"502 670 OFFCURVE",
"640 510 OFFCURVE",
"640 310 CURVE SMOOTH",
"640 150 OFFCURVE",
"567 32 OFFCURVE",
"377 32 CURVE SMOOTH"
);
}
);
width = 783;
}
);
leftMetricsKey = H;
unicode = 0044;
},
{
color = 3;
glyphname = D.ss01;
lastChange = "2019-04-24 16:48:09 +0000";
layers = (
{
layerId = "31E65565-C22C-4792-86EE-013C6F95D489";
paths = (
{
closed = 1;
nodes = (
"92 788 LINE",
"117 788 LINE",
"161 708 OFFCURVE",
"210 677 OFFCURVE",
"316 677 CURVE SMOOTH",
"406 677 OFFCURVE",
"506 709 OFFCURVE",
"632 709 CURVE SMOOTH",
"802 709 OFFCURVE",
"952 599 OFFCURVE",
"952 389 CURVE SMOOTH",
"952 209 OFFCURVE",
"833 130 OFFCURVE",
"751 -15 CURVE",
"641 -21 OFFCURVE",
"492 22 OFFCURVE",
"381 22 CURVE SMOOTH",
"277 22 OFFCURVE",
"171 1 OFFCURVE",
"78 -39 CURVE",
"54 -5 LINE",
"55 1 LINE",
"147 41 OFFCURVE",
"300 97 OFFCURVE",
"426 97 CURVE SMOOTH",
"536 97 OFFCURVE",
"638 56 OFFCURVE",
"732 70 CURVE",
"794 138 OFFCURVE",
"843 224 OFFCURVE",
"843 333 CURVE SMOOTH",
"843 493 OFFCURVE",
"751 602 OFFCURVE",
"571 602 CURVE SMOOTH",
"468 602 OFFCURVE",
"419 574 OFFCURVE",
"292 574 CURVE SMOOTH",
"187 574 OFFCURVE",
"86 603 OFFCURVE",
"53 657 CURVE"
);
},
{
closed = 1;
nodes = (
"151 70 OFFCURVE",
"177 130 OFFCURVE",
"177 177 CURVE SMOOTH",
"177 266 OFFCURVE",
"51 309 OFFCURVE",
"51 390 CURVE SMOOTH",
"51 460 OFFCURVE",
"206 525 OFFCURVE",
"292 581 CURVE",
"353 581 LINE",
"294 546 OFFCURVE",
"178 475 OFFCURVE",
"178 413 CURVE SMOOTH",
"178 359 OFFCURVE",
"238 308 OFFCURVE",
"238 234 CURVE SMOOTH",
"238 174 OFFCURVE",
"209 95 OFFCURVE",
"172 22 CURVE",
"114 13 LINE"
);
},
{
closed = 1;
nodes = (
"371 82 LINE",
"341 82 LINE",
"341 618 LINE",
"371 618 LINE"
);
},
{
closed = 1;
nodes = (
"536 82 LINE",
"506 82 LINE",
"506 618 LINE",
"536 618 LINE"
);
},
{
closed = 1;
nodes = (
"437 395 LINE",
"519 312 LINE",
"442 226 LINE",
"357 310 LINE"
);
}
);
width = 1005;
}
);
},
{
color = 3;
glyphname = D.ss02;
lastChange = "2019-04-24 16:48:09 +0000";
layers = (
{
annotations = (
{
position = "{-12.227, -60.148}";
type = Plus;
},
{
position = "{-1.844, 58.469}";
type = Plus;
}
);
layerId = "31E65565-C22C-4792-86EE-013C6F95D489";
paths = (
{
closed = 1;
nodes = (
"510 658 LINE",
"551 686 LINE",
"495 25 LINE",
"466 -2 LINE"
);
},
{
closed = 1;
nodes = (
"510 412 LINE",
"582 326 LINE",
"494 259 LINE",
"418 347 LINE"
);
},
{
closed = 1;
nodes = (
"413 623 LINE",
"295 569 OFFCURVE",
"249 456 OFFCURVE",
"249 360 CURVE SMOOTH",
"249 191 OFFCURVE",
"381 46 OFFCURVE",
"531 46 CURVE SMOOTH",
"694 46 OFFCURVE",
"784 182 OFFCURVE",
"784 342 CURVE SMOOTH",
"784 506 OFFCURVE",
"675 628 OFFCURVE",
"509 628 CURVE SMOOTH",
"390 628 OFFCURVE",
"372 602 OFFCURVE",
"290 602 CURVE SMOOTH",
"193 602 OFFCURVE",
"95 615 OFFCURVE",
"44 665 CURVE",
"121 775 LINE",
"141 765 LINE",
"152 724 OFFCURVE",
"229 710 OFFCURVE",
"299 710 CURVE SMOOTH",
"368 710 OFFCURVE",
"466 716 OFFCURVE",
"571 716 CURVE SMOOTH",
"737 716 OFFCURVE",
"897 569 OFFCURVE",
"897 371 CURVE SMOOTH",
"897 161 OFFCURVE",
"700 -10 OFFCURVE",
"484 -10 CURVE SMOOTH",
"286 -10 OFFCURVE",
"136 134 OFFCURVE",
"136 332 CURVE SMOOTH",
"136 374 OFFCURVE",
"152 453 OFFCURVE",
"181 485 CURVE SMOOTH",
"218 525 OFFCURVE",
"265 569 OFFCURVE",
"347 612 CURVE"
);
}
);
width = 941;
}
);
},
{
color = 3;
glyphname = E;
lastChange = "2019-04-24 16:48:09 +0000";
layers = (
{
layerId = "31E65565-C22C-4792-86EE-013C6F95D489";
paths = (
{
closed = 1;
nodes = (
"15 -6 LINE",
"65 -3 OFFCURVE",
"135 0 OFFCURVE",
"195 0 CURVE SMOOTH",
"363 0 OFFCURVE",
"574 -2 OFFCURVE",
"718 -4 CURVE",
"825 143 LINE",
"806 165 LINE",
"698 78 OFFCURVE",
"556 45 OFFCURVE",
"380 45 CURVE SMOOTH",
"309 45 OFFCURVE",
"272 59 OFFCURVE",
"245 61 CURVE",
"245 298 LINE",
"470 298 LINE SMOOTH",
"562 298 OFFCURVE",
"572 256 OFFCURVE",
"590 147 CURVE",
"634 147 LINE",
"619 241 OFFCURVE",
"611 347 OFFCURVE",
"652 440 CURVE",
"613 457 LINE",
"573 377 OFFCURVE",
"573 353 OFFCURVE",
"502 353 CURVE SMOOTH",
"245 353 LINE",
"245 578 LINE SMOOTH",
"245 641 OFFCURVE",
"261 660 OFFCURVE",
"350 660 CURVE SMOOTH",
"512 660 OFFCURVE",
"635 656 OFFCURVE",
"646 513 CURVE",
"685 513 LINE",
"684 570 OFFCURVE",
"703 636 OFFCURVE",
"741 685 CURVE",
"735 705 LINE",
"584 701 OFFCURVE",
"345.186 700.002 OFFCURVE",
"194.177 700 CURVE SMOOTH",
"153.843 700.017 OFFCURVE",
"84.669 701.017 OFFCURVE",
"45 703 CURVE",
"45 663 LINE",
"107 646 OFFCURVE",
"145 635 OFFCURVE",
"145 573 CURVE SMOOTH",
"145 120 LINE SMOOTH",
"145 73 OFFCURVE",
"96 55 OFFCURVE",
"15 34 CURVE"
);
}
);
width = 856;
}
);
unicode = 0045;
},
{
color = 3;
glyphname = E.ss01;
lastChange = "2019-04-24 16:48:09 +0000";
layers = (
{
layerId = "31E65565-C22C-4792-86EE-013C6F95D489";
paths = (
{
closed = 1;
nodes = (
"502 311 LINE",
"572 329 OFFCURVE",
"737 318 OFFCURVE",
"825 338 CURVE",
"854 426 LINE",
"849 432 LINE",
"777 411 OFFCURVE",
"687 401 OFFCURVE",
"615 396 CURVE",
"796 574 LINE",
"795 580 LINE",
"735 615 OFFCURVE",
"674 673 OFFCURVE",
"641 718 CURVE",
"636 718 LINE",
"500 557 LINE",
"500 516 LINE",
"580 590 LINE",
"600 558 OFFCURVE",
"638 522 OFFCURVE",
"665 497 CURVE",
"502 322 LINE"
);
},
{
closed = 1;
nodes = (
"325 87 OFFCURVE",
"186 218 OFFCURVE",
"186 378 CURVE SMOOTH",
"186 549 OFFCURVE",
"314 664 OFFCURVE",
"484 664 CURVE",
"488 585 OFFCURVE",
"488 117 OFFCURVE",
"483 47 CURVE",
"489 44 LINE",
"517 74 LINE",
"512 145 OFFCURVE",
"512 635 OFFCURVE",
"517 713 CURVE",
"512 719 LINE",
"276 710 OFFCURVE",
"83 558 OFFCURVE",
"83 351 CURVE SMOOTH",
"83 87 OFFCURVE",
"327 -7 OFFCURVE",
"445 -7 CURVE SMOOTH",
"478 -7 OFFCURVE",
"665 81 OFFCURVE",
"746 121 CURVE",
"736 157 LINE",
"613 109 OFFCURVE",
"541 87 OFFCURVE",
"494 87 CURVE SMOOTH"
);
},
{
closed = 1;
nodes = (
"357 104 LINE",
"386 151 OFFCURVE",
"416 193 OFFCURVE",
"445 230 CURVE",
"438 368 OFFCURVE",
"436 556 OFFCURVE",
"442 678 CURVE",
"360 663 LINE",
"372 518 OFFCURVE",
"369 395 OFFCURVE",
"365 266 CURVE SMOOTH",
"364 230 OFFCURVE",
"356 182 OFFCURVE",
"329 121 CURVE"
);
}
);
width = 900;
}
);
},
{
color = 3;
glyphname = F;
lastChange = "2019-04-24 16:48:09 +0000";
layers = (
{
layerId = "31E65565-C22C-4792-86EE-013C6F95D489";
paths = (
{
closed = 1;
nodes = (
"135 -1 OFFCURVE",
"230 -1 OFFCURVE",
"324 -5 CURVE",
"324 30 LINE",
"266 48 OFFCURVE",
"224 50 OFFCURVE",
"224 115 CURVE SMOOTH",
"224 300 LINE",
"421 300 LINE SMOOTH",
"511 300 OFFCURVE",
"517 278 OFFCURVE",
"533 209 CURVE",
"573 209 LINE",
"566 279 OFFCURVE",
"565 351 OFFCURVE",
"573 427 CURVE",
"533 427 LINE",
"519 360 OFFCURVE",
"503 340 OFFCURVE",
"421 340 CURVE SMOOTH",
"224 340 LINE",
"224 548 LINE SMOOTH",
"224 631 OFFCURVE",
"262 657 OFFCURVE",
"331 657 CURVE SMOOTH",
"410 657 LINE SMOOTH",
"546 657 OFFCURVE",
"597 583 OFFCURVE",
"604 503 CURVE",
"644 503 LINE",
"644 565 OFFCURVE",
"646 625 OFFCURVE",
"664 686 CURVE",
"654 700 LINE",
"503 697 OFFCURVE",
"324 700 OFFCURVE",
"173 700 CURVE SMOOTH",
"143 700 OFFCURVE",
"74 701 OFFCURVE",
"44 703 CURVE",
"44 663 LINE",
"114 653 OFFCURVE",
"124 620 OFFCURVE",
"124 560 CURVE SMOOTH",
"124 115 LINE SMOOTH",
"124 55 OFFCURVE",
"91 47 OFFCURVE",
"40 30 CURVE",
"41 -5 LINE"
);
}
);
width = 674;
}
);
leftMetricsKey = H;
unicode = 0046;
},
{
color = 3;
glyphname = F.ss01;
lastChange = "2019-04-24 16:48:09 +0000";
layers = (
{
layerId = "31E65565-C22C-4792-86EE-013C6F95D489";
paths = (
{
closed = 1;
nodes = (
"250 -65 OFFCURVE",
"324 31 OFFCURVE",
"324 155 CURVE SMOOTH",
"324 238 OFFCURVE",
"298 409 OFFCURVE",
"298 482 CURVE SMOOTH",
"298 576 OFFCURVE",
"338 639 OFFCURVE",
"438 629 CURVE",
"461 648 LINE",
"422 666 OFFCURVE",
"396 667 OFFCURVE",
"369 667 CURVE SMOOTH",
"279 667 OFFCURVE",
"204 599 OFFCURVE",
"204 471 CURVE SMOOTH",
"204 386 OFFCURVE",
"233 229 OFFCURVE",
"233 155 CURVE SMOOTH",
"233 2 OFFCURVE",
"193 -42 OFFCURVE",
"73 -66 CURVE",
"78 -89 LINE"
);
},
{
closed = 1;
nodes = (
"83 295 OFFCURVE",
"125 309 OFFCURVE",
"245 309 CURVE SMOOTH",
"676 309 LINE",
"677 338 OFFCURVE",
"676 359 OFFCURVE",
"682 411 CURVE",
"658 415 LINE",
"641 394 OFFCURVE",
"625 389 OFFCURVE",
"550 387 CURVE SMOOTH",
"429 384 OFFCURVE",
"309 381 OFFCURVE",
"188 375 CURVE SMOOTH",
"113 371 OFFCURVE",
"68 334 OFFCURVE",
"43 262 CURVE",
"65 252 LINE"
);
},
{
closed = 1;
nodes = (
"555 80 OFFCURVE",
"526 101 OFFCURVE",
"477 111 CURVE",
"487 161 OFFCURVE",
"512 214 OFFCURVE",
"512 276 CURVE SMOOTH",
"512 365 OFFCURVE",
"495 455 OFFCURVE",
"495 563 CURVE SMOOTH",
"495 628 OFFCURVE",
"506 662 OFFCURVE",
"549 662 CURVE SMOOTH",
"580 662 OFFCURVE",
"603 641 OFFCURVE",
"637 605 CURVE",
"641 605 LINE",
"709 672 LINE",
"681 701 OFFCURVE",
"611 716 OFFCURVE",
"569 716 CURVE SMOOTH",
"490 716 OFFCURVE",
"403 676 OFFCURVE",
"403 555 CURVE SMOOTH",
"403 368 OFFCURVE",
"438 296 OFFCURVE",
"434 139 CURVE SMOOTH",
"433 100 OFFCURVE",
"428 63 OFFCURVE",
"413 16 CURVE",
"435 8 LINE",
"442 23 OFFCURVE",
"447 35 OFFCURVE",
"456 35 CURVE SMOOTH",
"486 35 OFFCURVE",
"516 11 OFFCURVE",
"551 -9 CURVE",
"586 15 OFFCURVE",
"624 42 OFFCURVE",
"669 65 CURVE",
"655 88 LINE",
"637 80 OFFCURVE",
"611 80 OFFCURVE",
"597 80 CURVE SMOOTH"
);
}
);
width = 735;
}
);
},
{
color = 3;
glyphname = G;
lastChange = "2019-04-24 16:48:09 +0000";
layers = (
{
layerId = "31E65565-C22C-4792-86EE-013C6F95D489";
paths = (
{
closed = 1;
nodes = (
"704 499 LINE",
"712 561 OFFCURVE",
"717 613 OFFCURVE",
"731 675 CURVE",
"651 698 OFFCURVE",
"576 710 OFFCURVE",
"470 710 CURVE SMOOTH",
"267 710 OFFCURVE",
"65 570 OFFCURVE",
"65 340 CURVE SMOOTH",
"65 130 OFFCURVE",
"244 -10 OFFCURVE",
"444 -10 CURVE SMOOTH",
"554 -10 OFFCURVE",
"665 19 OFFCURVE",
"768 60 CURVE",
"768 89 LINE",
"747 96 OFFCURVE",
"715 96 OFFCURVE",
"715 141 CURVE SMOOTH",
"715 247 LINE SMOOTH",
"715 297 OFFCURVE",
"745 310 OFFCURVE",
"784 320 CURVE",
"784 356 LINE",
"693 347 OFFCURVE",
"618 347 OFFCURVE",
"525 356 CURVE",
"525 322 LINE",
"589 312 OFFCURVE",
"615 290 OFFCURVE",
"615 250 CURVE SMOOTH",
"615 101 LINE",
"584 69 OFFCURVE",
"512 35 OFFCURVE",
"444 35 CURVE SMOOTH",
"284 35 OFFCURVE",
"185 190 OFFCURVE",
"185 350 CURVE SMOOTH",
"185 540 OFFCURVE",
"302 665 OFFCURVE",
"450 665 CURVE SMOOTH",
"553 665 OFFCURVE",
"622 598 OFFCURVE",
"664 498 CURVE"
);
}
);
width = 814;
}
);
unicode = 0047;
},
{
color = 3;
glyphname = G.ss01;
lastChange = "2019-04-24 16:48:09 +0000";
layers = (
{
layerId = "31E65565-C22C-4792-86EE-013C6F95D489";
paths = (
{
closed = 1;
nodes = (
"73 13 LINE",
"113 76 OFFCURVE",
"160 122 OFFCURVE",
"160 217 CURVE SMOOTH",
"160 302 OFFCURVE",
"79 390 OFFCURVE",
"79 447 CURVE SMOOTH",
"79 530 OFFCURVE",
"358 689 OFFCURVE",
"438 717 CURVE",
"482 707 LINE",
"482 703 LINE",
"473 696 OFFCURVE",
"460 689 OFFCURVE",
"460 674 CURVE SMOOTH",
"460 639 OFFCURVE",
"518 595 OFFCURVE",
"549 595 CURVE SMOOTH",
"583 595 OFFCURVE",
"599 660 OFFCURVE",
"609 689 CURVE",
"693 667 LINE",
"693 662 LINE",
"617 582 OFFCURVE",
"550 530 OFFCURVE",
"484 530 CURVE SMOOTH",
"470 530 OFFCURVE",
"414 604 OFFCURVE",
"360 635 CURVE",
"333 612 OFFCURVE",
"327 592 OFFCURVE",
"327 559 CURVE SMOOTH",
"327 496 OFFCURVE",
"376 439 OFFCURVE",
"376 360 CURVE SMOOTH",
"376 267 OFFCURVE",
"328 178 OFFCURVE",
"204 98 CURVE",
"258 119 OFFCURVE",
"285 119 OFFCURVE",
"333 119 CURVE SMOOTH",
"401 119 OFFCURVE",
"535 80 OFFCURVE",
"569 80 CURVE SMOOTH",
"582 80 OFFCURVE",
"658 146 OFFCURVE",
"658 250 CURVE SMOOTH",
"658 335 OFFCURVE",
"609 390 OFFCURVE",
"539 390 CURVE SMOOTH",
"465 390 OFFCURVE",
"401 312 OFFCURVE",
"316 195 CURVE",
"319 250 LINE",
"381 326 OFFCURVE",
"497 484 OFFCURVE",
"520 484 CURVE SMOOTH",
"657 484 OFFCURVE",
"766 431 OFFCURVE",
"766 297 CURVE SMOOTH",
"766 172 OFFCURVE",
"652 64 OFFCURVE",
"520 -9 CURVE SMOOTH",
"511 -14 OFFCURVE",
"392 39 OFFCURVE",
"264 39 CURVE SMOOTH",
"211 39 OFFCURVE",
"136 26 OFFCURVE",
"92 -9 CURVE"
);
},
{
closed = 1;
nodes = (
"269 178 OFFCURVE",
"292 254 OFFCURVE",
"292 322 CURVE SMOOTH",
"292 413 OFFCURVE",
"242 483 OFFCURVE",
"242 544 CURVE SMOOTH",
"242 558 OFFCURVE",
"243 561 OFFCURVE",
"246 571 CURVE",
"201 538 OFFCURVE",
"183 516 OFFCURVE",
"183 465 CURVE SMOOTH",
"183 405 OFFCURVE",
"229 336 OFFCURVE",
"229 276 CURVE SMOOTH",
"229 232 OFFCURVE",
"222 182 OFFCURVE",
"185 128 CURVE"
);
}
);
width = 815;
}
);
},
{
color = 3;
glyphname = H;
lastChange = "2019-04-24 16:48:09 +0000";
layers = (
{
layerId = "31E65565-C22C-4792-86EE-013C6F95D489";
paths = (
{
closed = 1;
nodes = (
"66 36 LINE",
"78 49 OFFCURVE",
"125 59 OFFCURVE",
"125 112 CURVE SMOOTH",
"125 588 LINE SMOOTH",
"125 641 OFFCURVE",
"78 651 OFFCURVE",
"40 664 CURVE",
"40 704 LINE",
"115 700 OFFCURVE",
"199 700 OFFCURVE",
"274 704 CURVE",
"274 664 LINE",
"259 646 OFFCURVE",
"227 634 OFFCURVE",
"227 593 CURVE SMOOTH",
"225 112 LINE SMOOTH",
"225 59 OFFCURVE",
"272 49 OFFCURVE",
"320 36 CURVE",
"320 -4 LINE",
"221 1 OFFCURVE",
"126 1 OFFCURVE",
"66 -4 CURVE"
);
},
{
closed = 1;
nodes = (
"668 36 LINE",
"696 49 OFFCURVE",
"743 59 OFFCURVE",
"743 112 CURVE SMOOTH",
"743 588 LINE SMOOTH",
"743 641 OFFCURVE",
"726 651 OFFCURVE",
"688 664 CURVE",
"688 704 LINE",
"775 700 OFFCURVE",
"822 700 OFFCURVE",
"919 704 CURVE",
"919 664 LINE",
"871 651 OFFCURVE",
"843 641 OFFCURVE",
"843 588 CURVE SMOOTH",
"845 107 LINE SMOOTH",
"845 66 OFFCURVE",
"877 54 OFFCURVE",
"922 36 CURVE",
"922 -4 LINE",
"817 1 OFFCURVE",
"733 1 OFFCURVE",
"668 -4 CURVE"
);
},
{
closed = 1;
nodes = (
"194 399 LINE",
"758 396 LINE",
"758 348 LINE",
"194 351 LINE"
);
}
);
width = 962;
}
);
unicode = 0048;
},
{
color = 3;
glyphname = H.ss01;
lastChange = "2019-04-24 16:48:09 +0000";
layers = (
{
layerId = "31E65565-C22C-4792-86EE-013C6F95D489";
paths = (
{
closed = 1;
nodes = (
"582 416 LINE",
"659 338 LINE",
"587 257 LINE",
"506 336 LINE"
);
},
{
closed = 1;
nodes = (
"331 697 OFFCURVE",
"430 707 CURVE",
"425 37 LINE",
"402 63 LINE",
"402 645 LINE",
"262 645 OFFCURVE",
"175 654 OFFCURVE",
"95 511 CURVE",
"66 511 LINE",
"74 611 LINE",
"121 728 OFFCURVE"
);
},
{
closed = 1;
nodes = (
"196 80 OFFCURVE",
"265 104 OFFCURVE",
"288 104 CURVE SMOOTH",
"358 104 OFFCURVE",
"448 66 OFFCURVE",
"498 66 CURVE SMOOTH",
"522 66 OFFCURVE",
"577 105 OFFCURVE",
"634 158 CURVE",
"650 130 LINE",
"599 81 OFFCURVE",
"519 0 OFFCURVE",
"473 -19 CURVE",
"470 -19 LINE",
"425 -5 OFFCURVE",
"377 15 OFFCURVE",
"334 15 CURVE SMOOTH",
"293 15 OFFCURVE",
"260 3 OFFCURVE",
"223 -19 CURVE",
"136 33 LINE",
"136 37 LINE"
);
},
{
closed = 1;
nodes = (
"416 490 LINE",
"458 574 OFFCURVE",
"537 659 OFFCURVE",
"633 659 CURVE SMOOTH",
"774 659 OFFCURVE",
"866 525 OFFCURVE",
"866 383 CURVE SMOOTH",
"866 215 OFFCURVE",
"794 122 OFFCURVE",
"705 -19 CURVE",
"673 -3 LINE",
"742 102 OFFCURVE",
"772 184 OFFCURVE",
"772 297 CURVE SMOOTH",
"772 429 OFFCURVE",
"702 583 OFFCURVE",
"588 583 CURVE SMOOTH",
"513 583 OFFCURVE",
"465 521 OFFCURVE",
"425 440 CURVE"
);
},
{
closed = 1;
nodes = (
"166 372 LINE",
"268 437 LINE",
"261 297 LINE",
"238 333 OFFCURVE",
"209 355 OFFCURVE",
"166 369 CURVE"
);
},
{
closed = 1;
nodes = (
"245 324 LINE",
"254 650 LINE",
"339 650 LINE",
"339 246 LINE SMOOTH",
"339 162 OFFCURVE",
"301 130 OFFCURVE",
"273 73 CURVE",
"233 80 LINE",
"267 130 OFFCURVE",
"260 185 OFFCURVE",
"256 202 CURVE SMOOTH",
"251 224 OFFCURVE",
"199 258 OFFCURVE",
"167 267 CURVE",
"166 271 LINE"
);
}
);
width = 931;
}
);
},
{
color = 6;
glyphname = I;
lastChange = "2019-04-22 14:21:53 +0000";
layers = (
{
layerId = "31E65565-C22C-4792-86EE-013C6F95D489";
paths = (
{
closed = 1;
nodes = (
"159 -60 OFFCURVE",
"288 46 OFFCURVE",
"288 169 CURVE SMOOTH",
"288 240 OFFCURVE",
"272 296 OFFCURVE",
"272 369 CURVE SMOOTH",
"272 462 OFFCURVE",
"285 533 OFFCURVE",
"304 619 CURVE",
"217 622 OFFCURVE",
"81 627 OFFCURVE",
"31 586 CURVE",
"5 600 LINE",
"84 713 LINE",
"234 713 OFFCURVE",
"289 690 OFFCURVE",
"399 722 CURVE",
"400 722 LINE",
"418 708 LINE",
"371 599 OFFCURVE",
"374 535 OFFCURVE",
"374 445 CURVE SMOOTH",
"374 308 OFFCURVE",
"391 234 OFFCURVE",
"391 150 CURVE SMOOTH",
"391 48 OFFCURVE",
"184 -100 OFFCURVE",
"127 -115 CURVE",
"115 -83 LINE"
);
},
{
closed = 1;
nodes = (
"183 349 LINE",
"279 419 LINE",
"279 291 LINE",
"257 320 OFFCURVE",
"223 336 OFFCURVE",
"183 344 CURVE"
);
}
);
width = 463;
}
);
unicode = 0049;
},
{
color = 3;
glyphname = J;
lastChange = "2019-04-24 16:48:09 +0000";
layers = (
{
layerId = "31E65565-C22C-4792-86EE-013C6F95D489";
paths = (
{
closed = 1;
nodes = (
"119 36 OFFCURVE",
"183 -40 OFFCURVE",
"276 -40 CURVE SMOOTH",
"357 -40 OFFCURVE",
"398 13 OFFCURVE",
"398 97 CURVE SMOOTH",
"398 181 OFFCURVE",
"352 212 OFFCURVE",
"352 354 CURVE SMOOTH",
"352 449 OFFCURVE",
"399 565 OFFCURVE",
"411 648 CURVE",
"416 601 LINE",
"352 599 OFFCURVE",
"128 654 OFFCURVE",
"79 602 CURVE",
"55 615 LINE",
"105 719 LINE",
"243 719 OFFCURVE",
"391 665 OFFCURVE",
"483 717 CURVE",
"484 717 LINE",
"501 704 LINE",
"458 604 OFFCURVE",
"459 444 OFFCURVE",
"459 360 CURVE SMOOTH",
"459 234 OFFCURVE",
"485 161 OFFCURVE",
"485 89 CURVE SMOOTH",
"485 4 OFFCURVE",
"389 -88 OFFCURVE",
"275 -88 CURVE SMOOTH",
"167 -88 OFFCURVE",
"99 -11 OFFCURVE",
"67 49 CURVE",
"99 72 LINE"
);
},
{
closed = 1;
nodes = (
"246 368 LINE",
"362 425 LINE",
"362 298 LINE",
"336 333 OFFCURVE",
"295 353 OFFCURVE",
"246 362 CURVE"
);
},
{
closed = 1;
nodes = (
"256 258 LINE",
"365 322 LINE",
"390 154 LINE",
"372 221 OFFCURVE",
"315 235 OFFCURVE",
"256 255 CURVE"
);
}
);
width = 588;
}
);
unicode = 004A;
},
{
color = 6;
glyphname = K;
lastChange = "2019-04-19 22:04:51 +0000";
layers = (
{
layerId = "31E65565-C22C-4792-86EE-013C6F95D489";
paths = (
{
closed = 1;
nodes = (
"73 642 OFFCURVE",
"77 615 OFFCURVE",
"77 570 CURVE SMOOTH",
"77 100 LINE SMOOTH",
"77 60 OFFCURVE",
"70 46 OFFCURVE",
"30 32 CURVE",
"30 -3 LINE",
"63 -1 OFFCURVE",
"165 -2 OFFCURVE",
"227 -2 CURVE",
"227 32 LINE",
"190 46 OFFCURVE",
"177 60 OFFCURVE",
"177 100 CURVE SMOOTH",
"177 560 LINE SMOOTH",
"177 642 OFFCURVE",
"182 653 OFFCURVE",
"247 663 CURVE",
"247 703 LINE",
"190 701 OFFCURVE",
"102 700 OFFCURVE",
"42 703 CURVE",
"42 663 LINE"
);
},
{
closed = 1;
nodes = (
"238 361 LINE",
"418 98 LINE SMOOTH",
"450 51 OFFCURVE",
"428 40 OFFCURVE",
"384 35 CURVE",
"384 -3 LINE",
"474 1 OFFCURVE",
"580 3 OFFCURVE",
"626 -3 CURVE",
"626 35 LINE",
"601 47 OFFCURVE",
"592 47 OFFCURVE",
"550 105 CURVE SMOOTH",
"344 388 LINE"
);
},
{
closed = 1;
nodes = (
"515 592 LINE SMOOTH",
"559 645 OFFCURVE",
"609 650 OFFCURVE",
"634 662 CURVE",
"634 700 LINE",
"588 694 OFFCURVE",
"489 696 OFFCURVE",
"399 700 CURVE",
"399 662 LINE",
"443 657 OFFCURVE",
"464 647 OFFCURVE",
"433 599 CURVE SMOOTH",
"276 353 LINE",
"301 333 LINE"
);
},
{
closed = 1;
nodes = (
"142 335 LINE",
"314 335 LINE",
"314 375 LINE",
"142 375 LINE"
);
}
);
width = 609;
}
);
leftMetricsKey = L;
unicode = 004B;
},
{
color = 3;
glyphname = L;
lastChange = "2019-04-24 16:48:09 +0000";
layers = (
{
layerId = "31E65565-C22C-4792-86EE-013C6F95D489";
paths = (
{
closed = 1;
nodes = (
"61 642 OFFCURVE",
"65 615 OFFCURVE",
"65 570 CURVE SMOOTH",
"65 120 LINE SMOOTH",
"65 80 OFFCURVE",
"58 60 OFFCURVE",
"40 37 CURVE",
"40 -3 LINE",
"61 -1 OFFCURVE",
"103 0 OFFCURVE",
"145 0 CURVE SMOOTH",
"638 0 LINE",
"680 43 OFFCURVE",
"708 106 OFFCURVE",
"708 200 CURVE",
"678 200 LINE",
"663 91 OFFCURVE",
"629 57 OFFCURVE",
"566 57 CURVE SMOOTH",
"165 56 LINE",
"165 560 LINE SMOOTH",
"165 642 OFFCURVE",
"170 653 OFFCURVE",
"235 663 CURVE",
"235 703 LINE",
"178 701 OFFCURVE",
"90 700 OFFCURVE",
"30 703 CURVE",
"30 663 LINE"
);
}
);
width = 728;
}
);
unicode = 004C;
},
{
color = 3;
glyphname = L.ss01;
lastChange = "2019-04-24 16:48:09 +0000";
layers = (
{
layerId = "31E65565-C22C-4792-86EE-013C6F95D489";
paths = (
{
closed = 1;
nodes = (
"575 82 LINE",
"546 89 LINE",
"556 689 LINE",
"585 689 LINE"
);
},
{
closed = 1;
nodes = (
"256 -7 LINE",
"262 81 LINE",
"294 103 OFFCURVE",
"350 125 OFFCURVE",
"404 125 CURVE SMOOTH",
"497 125 OFFCURVE",
"660 88 OFFCURVE",
"734 83 CURVE SMOOTH",
"781 80 OFFCURVE",
"787 84 OFFCURVE",
"826 110 CURVE",
"848 91 LINE",
"733 -15 LINE",
"670 4 OFFCURVE",
"501 47 OFFCURVE",
"407 47 CURVE SMOOTH",
"359 47 OFFCURVE",
"293 25 OFFCURVE",
"272 -7 CURVE"
);
},
{
closed = 1;
nodes = (
"29 524 LINE",
"44 604 OFFCURVE",
"103 686 OFFCURVE",
"143 703 CURVE",
"209 694 OFFCURVE",
"321 676 OFFCURVE",
"411 681 CURVE SMOOTH",
"540 688 OFFCURVE",
"568 713 OFFCURVE",
"729 709 CURVE",
"728 683 LINE",
"541 675 OFFCURVE",
"476 591 OFFCURVE",
"413 591 CURVE SMOOTH",
"297 591 OFFCURVE",
"223 619 OFFCURVE",
"145 619 CURVE SMOOTH",
"102 619 OFFCURVE",
"73 561 OFFCURVE",
"56 518 CURVE"
);
},
{
closed = 1;
nodes = (
"260 399 LINE",
"385 469 LINE",
"378 332 LINE",
"354 371 OFFCURVE",
"304 382 OFFCURVE",
"260 396 CURVE"
);
},
{
closed = 1;
nodes = (
"390 226 LINE",
"334 257 OFFCURVE",
"297 261 OFFCURVE",
"261 272 CURVE",
"260 275 LINE",
"374 338 LINE"
);
},
{
closed = 1;
nodes = (
"360 660 CURVE",
"458 660 LINE",
"458 496 OFFCURVE",
"460 274 OFFCURVE",
"468 60 CURVE",
"359 66 LINE",
"375 149 OFFCURVE",
"375 230 OFFCURVE"
);
}
);
width = 890;
}
);
},
{
color = 3;
glyphname = M;
lastChange = "2019-04-24 16:48:09 +0000";
layers = (
{
layerId = "31E65565-C22C-4792-86EE-013C6F95D489";
paths = (
{
closed = 1;
nodes = (
"834 591 LINE SMOOTH",
"831 641 OFFCURVE",
"834 657 OFFCURVE",
"911 668 CURVE",
"911 703 LINE",
"789 699 OFFCURVE",
"721 699 OFFCURVE",
"616 703 CURVE",
"613 668 LINE",
"721 652 OFFCURVE",
"715 631 OFFCURVE",
"693 588 CURVE SMOOTH",
"463 141 LINE",
"497 149 LINE",
"262 582 LINE SMOOTH",
"239 624 OFFCURVE",
"253 637 OFFCURVE",
"345 647 CURVE",
"345 682 LINE",
"224 677 OFFCURVE",
"166 677 OFFCURVE",
"40 682 CURVE",
"40 647 LINE",
"130 636 OFFCURVE",
"130 625 OFFCURVE",
"126 527 CURVE SMOOTH",
"110 166 LINE SMOOTH",
"105 51 OFFCURVE",
"105 43 OFFCURVE",
"58 32 CURVE",
"58 -3 LINE",
"122 0 OFFCURVE",
"229 3 OFFCURVE",
"333 -3 CURVE",
"333 32 LINE",
"231 47 OFFCURVE",
"212 34 OFFCURVE",
"215 141 CURVE SMOOTH",
"229 579 LINE",
"216 565 LINE",
"492 50 LINE",
"515 50 LINE",
"608 217 OFFCURVE",
"686 383 OFFCURVE",
"801 550 CURVE",
"783 576 LINE",
"790 153 LINE SMOOTH",
"792 57 OFFCURVE",
"794 49 OFFCURVE",
"668 31 CURVE",
"669 -3 LINE",
"756 0 OFFCURVE",
"837 0 OFFCURVE",
"899 -3 CURVE",
"899 32 LINE",
"864 45 OFFCURVE",
"863 58 OFFCURVE",
"861 88 CURVE SMOOTH"
);
}
);
width = 951;
}
);
leftMetricsKey = H;
rightMetricsKey = H;
unicode = 004D;
},
{
color = 3;
glyphname = M.ss01;
lastChange = "2019-04-24 16:48:09 +0000";
layers = (
{
layerId = "31E65565-C22C-4792-86EE-013C6F95D489";
paths = (
{
closed = 1;
nodes = (
"476 95 OFFCURVE",
"333 -6 OFFCURVE",
"315 -6 CURVE SMOOTH",
"116 -6 OFFCURVE",
"30 161 OFFCURVE",
"30 321 CURVE SMOOTH",
"30 547 OFFCURVE",
"174 707 OFFCURVE",
"348 707 CURVE SMOOTH",
"540 707 OFFCURVE",
"627 547 OFFCURVE",
"627 404 CURVE SMOOTH",
"627 260 OFFCURVE",
"572 115 OFFCURVE",
"540 50 CURVE",
"517 75 LINE",
"635 40 OFFCURVE",
"658 4 OFFCURVE",
"730 33 CURVE",
"752 17 LINE",
"639 -87 LINE",
"599 -62 OFFCURVE",
"533 -20 OFFCURVE",
"474 -9 CURVE",
"470 -2 LINE",
"519 138 OFFCURVE",
"540 184 OFFCURVE",
"540 296 CURVE SMOOTH",
"540 471 OFFCURVE",
"460 633 OFFCURVE",
"323 633 CURVE SMOOTH",
"193 633 OFFCURVE",
"131 508 OFFCURVE",
"131 348 CURVE SMOOTH",
"131 167 OFFCURVE",
"225 83 OFFCURVE",
"326 83 CURVE SMOOTH",
"421 83 OFFCURVE",
"477 119 OFFCURVE",
"539 168 CURVE",
"545 130 LINE"
);
},
{
closed = 1;
nodes = (
"578 431 LINE",
"626 593 OFFCURVE",
"703 707 OFFCURVE",
"868 707 CURVE SMOOTH",
"1066 707 OFFCURVE",
"1170 575 OFFCURVE",
"1170 427 CURVE SMOOTH",
"1170 224 OFFCURVE",
"978 85 OFFCURVE",
"978 4 CURVE SMOOTH",
"978 -34 OFFCURVE",
"1000 -77 OFFCURVE",
"1018 -106 CURVE",
"986 -128 LINE",
"948 -80 OFFCURVE",
"935 -34 OFFCURVE",
"925 4 CURVE",
"925 94 OFFCURVE",
"1054 225 OFFCURVE",
"1054 380 CURVE SMOOTH",
"1054 514 OFFCURVE",
"968 617 OFFCURVE",
"831 617 CURVE SMOOTH",
"709 617 OFFCURVE",
"648 534 OFFCURVE",
"586 386 CURVE"
);
},
{
closed = 1;
nodes = (
"1084 270 LINE",
"1084 247 LINE",
"94 246 LINE",
"94 269 LINE"
);
},
{
closed = 1;
nodes = (
"1084 386 LINE",
"1084 363 LINE",
"94 362 LINE",
"94 385 LINE"
);
}
);
width = 1200;
}
);
},
{
color = 3;
glyphname = N;
lastChange = "2019-04-24 16:48:09 +0000";
layers = (
{
layerId = "31E65565-C22C-4792-86EE-013C6F95D489";
paths = (
{
closed = 1;
nodes = (
"572 653 OFFCURVE",
"639 549 OFFCURVE",
"639 428 CURVE SMOOTH",
"639 287 OFFCURVE",
"515 96 OFFCURVE",
"413 3 CURVE",
"432 -9 LINE",
"422 214 OFFCURVE",
"422 438 OFFCURVE",
"432 661 CURVE",
"404 661 LINE",
"394 436 OFFCURVE",
"394 212 OFFCURVE",
"404 -13 CURVE",
"468 -5 OFFCURVE",
"567 6 OFFCURVE",
"647 1 CURVE",
"656 -9 OFFCURVE",
"660 -23 OFFCURVE",
"664 -33 CURVE",
"689 -32 LINE",
"691 0 OFFCURVE",
"703 49 OFFCURVE",
"709 81 CURVE",
"705 86 LINE",
"658 88 OFFCURVE",
"608 87 OFFCURVE",
"498 73 CURVE",
"514 70 LINE",
"570 132 OFFCURVE",
"749 338 OFFCURVE",
"749 463 CURVE SMOOTH",
"749 603 OFFCURVE",
"649 709 OFFCURVE",
"453 709 CURVE SMOOTH",
"306 709 OFFCURVE",
"111 578 OFFCURVE",
"111 461 CURVE SMOOTH",
"111 268 OFFCURVE",
"265 118 OFFCURVE",
"265 34 CURVE SMOOTH",
"265 -20 OFFCURVE",
"201 -15 OFFCURVE",
"145 6 CURVE",
"134 -25 LINE",
"158 -42 OFFCURVE",
"191 -52 OFFCURVE",
"218 -52 CURVE SMOOTH",
"295 -52 OFFCURVE",
"321 -6 OFFCURVE",
"321 67 CURVE SMOOTH",
"321 164 OFFCURVE",
"204 307 OFFCURVE",
"204 447 CURVE SMOOTH",
"204 567 OFFCURVE",
"312 653 OFFCURVE",
"410 653 CURVE SMOOTH"
);
},
{
closed = 1;
nodes = (
"422 268 LINE",
"499 346 LINE",
"417 420 LINE",
"337 344 LINE"
);
},
{
closed = 1;
nodes = (
"114 274 LINE",
"141 256 OFFCURVE",
"153 248 OFFCURVE",
"192 211 CURVE",
"154 344 LINE",
"114 274 LINE"
);
},
{
closed = 1;
nodes = (
"83 375 LINE",
"106 363 OFFCURVE",
"129 344 OFFCURVE",
"149 296 CURVE",
"147 479 LINE",
"83 378 LINE"
);
},
{
closed = 1;
nodes = (
"67 484 LINE",
"88 465 OFFCURVE",
"108 442 OFFCURVE",
"119 405 CURVE",
"239 633 LINE",
"174 597 OFFCURVE",
"107 535 OFFCURVE",
"67 486 CURVE"
);
},
{
closed = 1;
nodes = (
"155 186 LINE",
"187 180 OFFCURVE",
"212 164 OFFCURVE",
"224 143 CURVE",
"211 250 LINE",
"154 188 LINE"
);
}
);
width = 827;
}
);
unicode = 004E;
},
{
color = 3;
glyphname = O;
lastChange = "2019-04-24 16:48:09 +0000";
layers = (
{
layerId = "31E65565-C22C-4792-86EE-013C6F95D489";
paths = (
{
closed = 1;
nodes = (
"238 670 OFFCURVE",
"164 525 OFFCURVE",
"164 374 CURVE SMOOTH",
"164 200 OFFCURVE",
"255 30 OFFCURVE",
"418 30 CURVE SMOOTH",
"590 30 OFFCURVE",
"666 178 OFFCURVE",
"666 329 CURVE SMOOTH",
"666 503 OFFCURVE",
"571 670 OFFCURVE",
"409 670 CURVE SMOOTH"
);
},
{
closed = 1;
nodes = (
"45 142 OFFCURVE",
"45 352 CURVE SMOOTH",
"45 554 OFFCURVE",
"214 710 OFFCURVE",
"418 710 CURVE SMOOTH",
"621 710 OFFCURVE",
"785 558 OFFCURVE",
"785 348 CURVE SMOOTH",
"785 146 OFFCURVE",
"616 -10 OFFCURVE",
"412 -10 CURVE SMOOTH",
"209 -10 OFFCURVE"
);
}
);
width = 830;
}
);
unicode = 004F;
},
{
color = 3;
glyphname = O.ss01;
lastChange = "2019-04-24 16:48:09 +0000";
layers = (
{
layerId = "31E65565-C22C-4792-86EE-013C6F95D489";
paths = (
{
closed = 1;
nodes = (
"676 709 OFFCURVE",
"816 554 OFFCURVE",
"816 358 CURVE SMOOTH",
"816 151 OFFCURVE",
"620 -10 OFFCURVE",
"416 -10 CURVE SMOOTH",
"212 -10 OFFCURVE",
"62 141 OFFCURVE",
"62 337 CURVE SMOOTH",
"62 547 OFFCURVE",
"262 709 OFFCURVE",
"463 709 CURVE SMOOTH"
);
},
{
closed = 1;
nodes = (
"601 663 OFFCURVE",
"445 663 CURVE SMOOTH",
"296 663 OFFCURVE",
"173 526 OFFCURVE",
"173 346 CURVE SMOOTH",
"173 167 OFFCURVE",
"270 35 OFFCURVE",
"446 35 CURVE SMOOTH",
"610 35 OFFCURVE",
"703 178 OFFCURVE",
"703 349 CURVE SMOOTH",
"703 531 OFFCURVE"
);
},
{
closed = 1;
nodes = (
"461 669 LINE",
"492 679 LINE",
"418 23 LINE",
"390 -2 LINE"
);
},
{
closed = 1;
nodes = (
"448 399 LINE",
"519 314 LINE",
"431 246 LINE",
"357 333 LINE"
);
}
);
width = 878;
}
);
},
{
color = 3;
glyphname = P;
lastChange = "2019-04-24 16:48:09 +0000";
layers = (
{
layerId = "31E65565-C22C-4792-86EE-013C6F95D489";
paths = (
{
closed = 1;
nodes = (
"60 30 LINE",
"90 47 OFFCURVE",
"95 53 OFFCURVE",
"95 106 CURVE SMOOTH",
"95 594 LINE SMOOTH",
"95 647 OFFCURVE",
"78 653 OFFCURVE",
"20 660 CURVE",
"20 700 LINE",
"359 700 LINE SMOOTH",
"558 700 OFFCURVE",
"674 633 OFFCURVE",
"674 470 CURVE SMOOTH",
"674 309 OFFCURVE",
"534 235 OFFCURVE",
"414 235 CURVE SMOOTH",
"390 235 OFFCURVE",
"364 236 OFFCURVE",
"323 247 CURVE",
"318 270 LINE",
"465 245 OFFCURVE",
"570 291 OFFCURVE",
"570 437 CURVE SMOOTH",
"570 544 OFFCURVE",
"493 660 OFFCURVE",
"327 660 CURVE SMOOTH",
"212 660 OFFCURVE",
"197 612 OFFCURVE",
"197 533 CURVE SMOOTH",
"195 106 LINE SMOOTH",
"195 53 OFFCURVE",
"213 50 OFFCURVE",
"290 30 CURVE",
"290 -4 LINE",
"193 0 OFFCURVE",
"97 0 OFFCURVE",
"60 -4 CURVE"
);
}
);
width = 719;
}
);
unicode = 0050;
},
{
color = 3;
glyphname = P.ss01;
lastChange = "2019-04-24 16:48:09 +0000";
layers = (
{
layerId = "31E65565-C22C-4792-86EE-013C6F95D489";
paths = (
{
closed = 1;
nodes = (
"66 608 LINE",
"137 708 LINE",
"206 700 OFFCURVE",
"260 680 OFFCURVE",
"306 653 CURVE",
"298 357 OFFCURVE",
"298 61 OFFCURVE",
"308 -235 CURVE",
"190 -235 LINE",
"197 -113 OFFCURVE",
"199 219 OFFCURVE",
"199 584 CURVE",
"179 612 OFFCURVE",
"124 616 OFFCURVE",
"88 590 CURVE"
);
},
{
closed = 1;
nodes = (
"233 120 LINE",
"193 120 OFFCURVE",
"151 108 OFFCURVE",
"98 82 CURVE",
"83 121 LINE",
"134 156 OFFCURVE",
"170 174 OFFCURVE",
"228 225 CURVE"
);
},
{
closed = 1;
nodes = (
"443 650 LINE",
"443 -234 LINE",
"401 -234 LINE",
"401 650 LINE"
);
},
{
closed = 1;
nodes = (
"424 530 LINE",
"496 655 OFFCURVE",
"582 708 OFFCURVE",
"706 708 CURVE SMOOTH",
"909 708 OFFCURVE",
"1021 576 OFFCURVE",
"1021 383 CURVE SMOOTH",
"1021 175 OFFCURVE",
"792 13 OFFCURVE",
"665 -7 CURVE",
"559 13 OFFCURVE",
"496 61 OFFCURVE",
"424 111 CURVE"
);
},
{
closed = 1;
nodes = (
"568 610 OFFCURVE",
"499 576 OFFCURVE",
"431 483 CURVE",
"436 225 LINE",
"507 159 OFFCURVE",
"608 90 OFFCURVE",
"691 90 CURVE SMOOTH",
"807 90 OFFCURVE",
"927 194 OFFCURVE",
"927 360 CURVE SMOOTH",
"927 483 OFFCURVE",
"851 610 OFFCURVE",
"683 610 CURVE SMOOTH"
);
},
{
closed = 1;
nodes = (
"669 425 LINE",
"742 338 LINE",
"652 269 LINE",
"576 359 LINE"
);
}
);
width = 1083;
}
);
leftMetricsKey = H.ss01;
rightMetricsKey = O.ss01;
},
{
color = 3;
glyphname = Q;
lastChange = "2019-04-24 16:48:09 +0000";
layers = (
{
components = (
{
name = O;
transform = "{0.99452, 0.10453, -0.10453, 0.99452, 39, -42}";
}
);
layerId = "31E65565-C22C-4792-86EE-013C6F95D489";
paths = (
{
closed = 1;
nodes = (
"609 62 LINE",
"715 -5 OFFCURVE",
"891 -12 OFFCURVE",
"1036 79 CURVE",
"1054 56 LINE",
"980 0 OFFCURVE",
"935 -27 OFFCURVE",
"893 -52 CURVE",
"773 -82 OFFCURVE",
"593 -66 OFFCURVE",
"451 15 CURVE"
);
}
);
width = 1044;
}
);
leftMetricsKey = O;
unicode = 0051;
},
{
color = 3;
glyphname = Q_u;
lastChange = "2019-04-19 22:04:51 +0000";
layers = (
{
layerId = "31E65565-C22C-4792-86EE-013C6F95D489";
paths = (
{
closed = 1;
nodes = (
"548 13 LINE",
"685 -147 OFFCURVE",
"933 -256 OFFCURVE",
"1218 -190 CURVE",
"1228 -222 LINE",
"910 -302 OFFCURVE",
"618 -225 OFFCURVE",
"328 42 CURVE"
);
},
{
closed = 1;
nodes = (
"1169 313 LINE SMOOTH",
"1169 353 OFFCURVE",
"1136 369 OFFCURVE",
"1098 369 CURVE",
"1098 399 LINE",
"1164 400 OFFCURVE",
"1220 403 OFFCURVE",
"1264 409 CURVE",
"1274 399 LINE",
"1269 376 OFFCURVE",
"1258 339 OFFCURVE",
"1258 311 CURVE SMOOTH",
"1258 248 OFFCURVE",
"1261 158 OFFCURVE",
"1265 105 CURVE SMOOTH",
"1268 60 OFFCURVE",
"1275 45 OFFCURVE",
"1294 35 CURVE",
"1294 0 LINE",
"1164 0 LINE",
"1164 70 LINE",
"1169 119 LINE"
);
},
{
closed = 1;
nodes = (
"1190 61 LINE",
"1124 21 OFFCURVE",
"1069 -10 OFFCURVE",
"1040 -10 CURVE SMOOTH",
"921 -10 OFFCURVE",
"894 41 OFFCURVE",
"895 119 CURVE SMOOTH",
"896 185 OFFCURVE",
"893 280 OFFCURVE",
"890 326 CURVE SMOOTH",
"888 354 OFFCURVE",
"885 363 OFFCURVE",
"814 373 CURVE",
"813 403 LINE",
"896 401 OFFCURVE",
"952 398 OFFCURVE",
"1015 403 CURVE",
"1014 373 LINE",
"996 361 OFFCURVE",
"991 354 OFFCURVE",
"989 326 CURVE SMOOTH",
"986 283 OFFCURVE",
"986 199 OFFCURVE",
"990 153 CURVE SMOOTH",
"995 98 OFFCURVE",
"1010 49 OFFCURVE",
"1078 49 CURVE SMOOTH",
"1116 49 OFFCURVE",
"1155 72 OFFCURVE",
"1177 119 CURVE"
);
},
{
closed = 1;
nodes = (
"244 670 OFFCURVE",
"164 525 OFFCURVE",
"164 374 CURVE SMOOTH",
"164 200 OFFCURVE",
"262 30 OFFCURVE",
"435 30 CURVE SMOOTH",
"618 30 OFFCURVE",
"708 169 OFFCURVE",
"708 340 CURVE SMOOTH",
"708 504 OFFCURVE",
"598 670 OFFCURVE",
"426 670 CURVE SMOOTH"
);
},
{
closed = 1;
nodes = (
"40 142 OFFCURVE",
"40 352 CURVE SMOOTH",
"40 554 OFFCURVE",
"219 710 OFFCURVE",
"435 710 CURVE SMOOTH",
"651 710 OFFCURVE",
"825 558 OFFCURVE",
"825 348 CURVE SMOOTH",
"825 146 OFFCURVE",
"645 -10 OFFCURVE",
"429 -10 CURVE SMOOTH",
"214 -10 OFFCURVE"
);
}
);
width = 1314;
}
);
rightMetricsKey = u;
},
{
color = 3;
glyphname = Q.ss01;
lastChange = "2019-04-24 16:48:09 +0000";
layers = (
{
layerId = "31E65565-C22C-4792-86EE-013C6F95D489";
paths = (
{
closed = 1;
nodes = (
"543 61 OFFCURVE",
"585 100 OFFCURVE",
"621 157 CURVE",
"598 168 LINE",
"555 124 OFFCURVE",
"455 92 OFFCURVE",
"371 92 CURVE SMOOTH",
"231 92 OFFCURVE",
"121 162 OFFCURVE",
"121 320 CURVE SMOOTH",
"121 486 OFFCURVE",
"251 616 OFFCURVE",
"430 616 CURVE SMOOTH",
"589 616 OFFCURVE",
"714 524 OFFCURVE",
"714 345 CURVE SMOOTH",
"714 198 OFFCURVE",
"623 75 OFFCURVE",
"566 16 CURVE",
"573 -8 LINE",
"641 4 OFFCURVE",
"690 2 OFFCURVE",
"779 -8 CURVE",
"827 98 LINE",
"805 107 LINE",
"763 78 OFFCURVE",
"724 82 OFFCURVE",
"652 82 CURVE",
"657 70 LINE",
"720 148 OFFCURVE",
"829 266 OFFCURVE",
"829 389 CURVE SMOOTH",
"829 558 OFFCURVE",
"674 709 OFFCURVE",
"478 709 CURVE SMOOTH",
"218 709 OFFCURVE",
"62 533 OFFCURVE",
"62 323 CURVE SMOOTH",
"62 122 OFFCURVE",
"190 -6 OFFCURVE",
"338 -6 CURVE SMOOTH",
"414 -6 OFFCURVE",
"472 6 OFFCURVE",
"516 29 CURVE"
);
},
{
closed = 1;
nodes = (
"466 86 LINE",
"290 629 LINE",
"282 616 OFFCURVE",
"276 603 OFFCURVE",
"272 587 CURVE",
"450 45 LINE"
);
},
{
closed = 1;
nodes = (
"389 269 LINE",
"444 364 LINE",
"346 416 LINE",
"287 322 LINE"
);
}
);
width = 863;
}
);
leftMetricsKey = Q.ss01;
},
{
color = 3;
glyphname = R;
lastChange = "2019-04-24 16:48:09 +0000";
layers = (
{
layerId = "31E65565-C22C-4792-86EE-013C6F95D489";
paths = (
{
closed = 1;
nodes = (
"76 656 OFFCURVE",
"109 644 OFFCURVE",
"109 598 CURVE SMOOTH",
"109 577 OFFCURVE",
"110 130 OFFCURVE",
"107 82 CURVE SMOOTH",
"106 63 OFFCURVE",
"89 38 OFFCURVE",
"47 38 CURVE",
"50 -2 LINE",
"127 3 OFFCURVE",
"214 3 OFFCURVE",
"291 -2 CURVE",
"290 38 LINE",
"259 40 OFFCURVE",
"212 54 OFFCURVE",
"212 104 CURVE SMOOTH",
"212 312 LINE",
"306 311 LINE SMOOTH",
"415 310 OFFCURVE",
"482 205 OFFCURVE",
"540 138 CURVE SMOOTH",
"597 72 OFFCURVE",
"661 -11 OFFCURVE",
"780 -11 CURVE SMOOTH",
"823 -11 OFFCURVE",
"861 -4 OFFCURVE",
"893 12 CURVE",
"885 33 LINE",
"755 19 OFFCURVE",
"730 77 OFFCURVE",
"652 162 CURVE SMOOTH",
"568 253 OFFCURVE",
"452 339 OFFCURVE",
"369 338 CURVE",
"370 325 LINE",
"449 348 OFFCURVE",
"548 412 OFFCURVE",
"550 509 CURVE SMOOTH",
"553 637 OFFCURVE",
"470 700 OFFCURVE",
"262 700 CURVE SMOOTH",
"196 700 OFFCURVE",
"106 698 OFFCURVE",
"42 702 CURVE",
"40 662 LINE"
);
},
{
closed = 1;
nodes = (
"376 665 OFFCURVE",
"446 572 OFFCURVE",
"444 486 CURVE SMOOTH",
"442 383 OFFCURVE",
"378 342 OFFCURVE",
"257 342 CURVE SMOOTH",
"210 342 LINE",
"210 657 LINE"
);
}
);
width = 892;
}
);
leftMetricsKey = H;
unicode = 0052;
},
{
color = 3;
glyphname = R_stroke;
lastChange = "2019-04-19 22:04:51 +0000";
layers = (
{
components = (
{
name = R;
}
);
layerId = "31E65565-C22C-4792-86EE-013C6F95D489";
paths = (
{
closed = 1;
nodes = (
"492 -8 OFFCURVE",
"648 253 OFFCURVE",
"835 450 CURVE",
"835 471 LINE",
"781 464 OFFCURVE",
"722 461 OFFCURVE",
"674 462 CURVE",
"674 432 LINE",
"730 413 OFFCURVE",
"725 412 OFFCURVE",
"699 372 CURVE SMOOTH",
"570 176 OFFCURVE",
"402 -45 OFFCURVE",
"171 -198 CURVE",
"177 -244 LINE",
"187 -245 LINE"
);
}
);
width = 899;
}
);
},
{
color = 3;
glyphname = R.ss01;
lastChange = "2019-04-24 16:48:09 +0000";
layers = (
{
layerId = "31E65565-C22C-4792-86EE-013C6F95D489";
paths = (
{
closed = 1;
nodes = (
"313 35 LINE",
"342 34 LINE",
"354 664 LINE",
"324 654 LINE"
);
},
{
closed = 1;
nodes = (
"169 527 OFFCURVE",
"245 641 OFFCURVE",
"378 641 CURVE SMOOTH",
"457 641 OFFCURVE",
"485 603 OFFCURVE",
"485 560 CURVE SMOOTH",
"485 446 OFFCURVE",
"326 400 OFFCURVE",
"196 378 CURVE",
"197 353 LINE",
"379 386 OFFCURVE",
"589 441 OFFCURVE",
"589 580 CURVE SMOOTH",
"589 660 OFFCURVE",
"535 710 OFFCURVE",
"423 710 CURVE SMOOTH",
"266 710 OFFCURVE",
"90 546 OFFCURVE",
"31 513 CURVE",
"30 440 LINE",
"36 438 LINE"
);
},
{
closed = 1;
nodes = (
"209 340 OFFCURVE",
"218 353 OFFCURVE",
"295 353 CURVE SMOOTH",
"379 353 OFFCURVE",
"459 292 OFFCURVE",
"499 185 CURVE SMOOTH",
"534 92 OFFCURVE",
"540 2 OFFCURVE",
"621 -11 CURVE",
"698 73 LINE",
"677 94 LINE",
"660 83 OFFCURVE",
"656 83 OFFCURVE",
"638 83 CURVE SMOOTH",
"609 83 OFFCURVE",
"591 135 OFFCURVE",
"578 223 CURVE SMOOTH",
"562 331 OFFCURVE",
"495 417 OFFCURVE",
"390 410 CURVE",
"170 367 LINE",
"176 330 LINE"
);
},
{
closed = 1;
nodes = (
"86 -13 LINE",
"122 9 OFFCURVE",
"156 21 OFFCURVE",
"197 21 CURVE SMOOTH",
"231 21 OFFCURVE",
"279 1 OFFCURVE",
"323 -13 CURVE",
"326 -13 LINE",
"367 21 OFFCURVE",
"429 75 OFFCURVE",
"457 103 CURVE",
"441 124 LINE",
"419 108 OFFCURVE",
"361 72 OFFCURVE",
"337 72 CURVE SMOOTH",
"295 72 OFFCURVE",
"240 100 OFFCURVE",
"183 109 CURVE",
"213 57 LINE",
"245 621 LINE",
"151 551 LINE",
"121 123 LINE SMOOTH",
"118 74 OFFCURVE",
"94 36 OFFCURVE",
"72 14 CURVE"
);
}
);
width = 728;
}
);
},
{
color = 3;
glyphname = S;
lastChange = "2019-04-22 10:09:01 +0000";
layers = (
{
layerId = "31E65565-C22C-4792-86EE-013C6F95D489";
paths = (
{
closed = 1;
nodes = (
"592 658 LINE",
"524 511 LINE",
"495 517 LINE",
"488 597 OFFCURVE",
"431 670 OFFCURVE",
"292 670 CURVE SMOOTH",
"190 670 OFFCURVE",
"126 624 OFFCURVE",
"126 544 CURVE SMOOTH",
"126 463 OFFCURVE",
"193 445 OFFCURVE",
"309 425 CURVE SMOOTH",
"491 394 OFFCURVE",
"608 357 OFFCURVE",
"609 214 CURVE SMOOTH",
"610 64 OFFCURVE",
"488 -10 OFFCURVE",
"328 -10 CURVE SMOOTH",
"208 -10 OFFCURVE",
"107 19 OFFCURVE",
"30 30 CURVE",
"30 201 LINE",
"59 201 LINE",
"88 72 OFFCURVE",
"200 24 OFFCURVE",
"321 24 CURVE SMOOTH",
"461 24 OFFCURVE",
"527 87 OFFCURVE",
"529 166 CURVE SMOOTH",
"532 267 OFFCURVE",
"448 298 OFFCURVE",
"294 315 CURVE SMOOTH",
"132 333 OFFCURVE",
"33 362 OFFCURVE",
"33 494 CURVE SMOOTH",
"33 644 OFFCURVE",
"162 710 OFFCURVE",
"322 710 CURVE SMOOTH",
"415 710 OFFCURVE",
"508 681 OFFCURVE",
"588 668 CURVE"
);
}
);
width = 639;
}
);
unicode = 0053;
},
{
color = 3;
glyphname = S.ss01;
lastChange = "2019-04-24 16:48:09 +0000";
layers = (
{
layerId = "31E65565-C22C-4792-86EE-013C6F95D489";
paths = (
{
closed = 1;
nodes = (
"440 102 OFFCURVE",
"490 150 OFFCURVE",
"490 213 CURVE SMOOTH",
"490 280 OFFCURVE",
"439 320 OFFCURVE",
"358 320 CURVE SMOOTH",
"300 320 OFFCURVE",
"246 312 OFFCURVE",
"200 312 CURVE SMOOTH",
"151 312 OFFCURVE",
"115 328 OFFCURVE",
"115 363 CURVE SMOOTH",
"115 407 OFFCURVE",
"161 446 OFFCURVE",
"273 426 CURVE",
"267 443 LINE",
"149 483 OFFCURVE",
"30 398 OFFCURVE",
"30 320 CURVE SMOOTH",
"30 253 OFFCURVE",
"83 225 OFFCURVE",
"156 225 CURVE SMOOTH",
"238 225 OFFCURVE",
"277 243 OFFCURVE",
"336 243 CURVE SMOOTH",
"391 243 OFFCURVE",
"431 223 OFFCURVE",
"431 170 CURVE SMOOTH",
"431 131 OFFCURVE",
"400 93 OFFCURVE",
"346 71 CURVE",
"379 57 LINE"
);
},
{
closed = 1;
nodes = (
"59 -15 LINE",
"113 16 OFFCURVE",
"150 34 OFFCURVE",
"197 34 CURVE SMOOTH",
"277 34 OFFCURVE",
"384 -6 OFFCURVE",
"424 -15 CURVE",
"499 36 OFFCURVE",
"617 96 OFFCURVE",
"669 187 CURVE",
"709 399 OFFCURVE",
"581 461 OFFCURVE",
"415 486 CURVE SMOOTH",
"297 504 OFFCURVE",
"167 527 OFFCURVE",
"167 579 CURVE SMOOTH",
"167 599 OFFCURVE",
"185 627 OFFCURVE",
"224 627 CURVE SMOOTH",
"262 627 OFFCURVE",
"332 606 OFFCURVE",
"332 566 CURVE SMOOTH",
"332 546 OFFCURVE",
"287 512 OFFCURVE",
"266 494 CURVE",
"306 477 LINE",
"350 525 OFFCURVE",
"408 577 OFFCURVE",
"455 625 CURVE",
"455 629 LINE",
"387 652 OFFCURVE",
"266 709 OFFCURVE",
"245 718 CURVE",
"216 691 OFFCURVE",
"128 613 OFFCURVE",
"80 545 CURVE",
"119 452 OFFCURVE",
"236 428 OFFCURVE",
"353 413 CURVE SMOOTH",
"490 396 OFFCURVE",
"593 350 OFFCURVE",
"593 237 CURVE SMOOTH",
"593 139 OFFCURVE",
"521 64 OFFCURVE",
"429 64 CURVE SMOOTH",
"371 64 OFFCURVE",
"319 78 OFFCURVE",
"254 78 CURVE SMOOTH",
"180 78 OFFCURVE",
"87 40 OFFCURVE",
"42 11 CURVE"
);
}
);
width = 706;
}
);
},
{
color = 3;
glyphname = T;
lastChange = "2019-04-24 16:48:09 +0000";
layers = (
{
layerId = "31E65565-C22C-4792-86EE-013C6F95D489";
paths = (
{
closed = 1;
nodes = (
"609 683 OFFCURVE",
"608 680 OFFCURVE",
"539 680 CURVE SMOOTH",
"173 680 LINE SMOOTH",
"118 680 OFFCURVE",
"98 691 OFFCURVE",
"99 731 CURVE",
"60 737 LINE",
"10 555 LINE",
"51 546 LINE",
"69 608 OFFCURVE",
"114 605 OFFCURVE",
"185 605 CURVE SMOOTH",
"508 605 LINE SMOOTH",
"596 605 OFFCURVE",
"622 609 OFFCURVE",
"632 548 CURVE",
"670 547 LINE",
"669 726 LINE",
"634 727 LINE"
);
},
{
closed = 1;
nodes = (
"218 -3 LINE",
"289 1 OFFCURVE",
"418 0 OFFCURVE",
"498 -3 CURVE",
"498 32 LINE",
"396 42 OFFCURVE",
"402 75 OFFCURVE",
"401 175 CURVE SMOOTH",
"394 659 LINE",
"300 659 LINE",
"298 175 LINE SMOOTH",
"298 75 OFFCURVE",
"292 42 OFFCURVE",
"218 32 CURVE"
);
}
);
width = 680;
}
);
unicode = 0054;
},
{
color = 3;
glyphname = T.ss01;
lastChange = "2019-04-24 16:48:09 +0000";
layers = (
{
layerId = "31E65565-C22C-4792-86EE-013C6F95D489";
paths = (
{
closed = 1;
nodes = (
"90 700 OFFCURVE",
"197 731 OFFCURVE",
"312 731 CURVE SMOOTH",
"487 731 OFFCURVE",
"639 682 OFFCURVE",
"750 607 CURVE",
"738 568 LINE",
"700 694 LINE",
"759 701 LINE",
"764 643 OFFCURVE",
"784 567 OFFCURVE",
"792 525 CURVE",
"771 517 LINE",
"687 551 OFFCURVE",
"638 559 OFFCURVE",
"570 559 CURVE SMOOTH",
"403 559 OFFCURVE",
"215 488 OFFCURVE",
"215 307 CURVE SMOOTH",
"215 126 OFFCURVE",
"360 50 OFFCURVE",
"521 50 CURVE SMOOTH",
"630 50 OFFCURVE",
"698 85 OFFCURVE",
"775 156 CURVE",
"799 130 LINE",
"721 54 OFFCURVE",
"600 -8 OFFCURVE",
"474 -8 CURVE SMOOTH",
"265 -8 OFFCURVE",
"90 93 OFFCURVE",
"90 283 CURVE SMOOTH",
"90 531 OFFCURVE",
"421 636 OFFCURVE",
"670 582 CURVE",
"660 578 LINE",
"565 652 OFFCURVE",
"412 669 OFFCURVE",
"310 669 CURVE SMOOTH",
"206 669 OFFCURVE",
"89 631 OFFCURVE",
"40 591 CURVE",
"26 591 LINE",
"25 662 LINE"
);
},
{
closed = 1;
nodes = (
"521 225 LINE",
"605 310 LINE",
"516 389 LINE",
"430 308 LINE"
);
}
);
width = 824;
}
);
},
{
color = 6;
glyphname = U;
lastChange = "2019-04-19 22:04:51 +0000";
layers = (
{
layerId = "31E65565-C22C-4792-86EE-013C6F95D489";
paths = (
{
closed = 1;
nodes = (
"684 471 OFFCURVE",
"687 293 OFFCURVE",
"684 212 CURVE SMOOTH",
"679 73 OFFCURVE",
"547 -10 OFFCURVE",
"390 -10 CURVE SMOOTH",
"160 -10 OFFCURVE",
"78 133 OFFCURVE",
"81 175 CURVE",
"85 314 OFFCURVE",
"81 432 OFFCURVE",
"81 571 CURVE SMOOTH",
"81 616 OFFCURVE",
"77 643 OFFCURVE",
"36 664 CURVE",
"36 704 LINE",
"106 701 OFFCURVE",
"208 702 OFFCURVE",
"235 704 CURVE",
"235 664 LINE",
"200 644 OFFCURVE",
"195 614 OFFCURVE",
"195 561 CURVE SMOOTH",
"195 232 LINE SMOOTH",
"195 103 OFFCURVE",
"269 34 OFFCURVE",
"405 34 CURVE SMOOTH",
"536 34 OFFCURVE",
"629 96 OFFCURVE",
"629 233 CURVE SMOOTH",
"629 548 LINE SMOOTH",
"629 624 OFFCURVE",
"630 646 OFFCURVE",
"587 667 CURVE",
"586 702 LINE",
"643 700 OFFCURVE",
"697 701 OFFCURVE",
"728 702 CURVE",
"728 667 LINE",
"693 646 OFFCURVE",
"684 624 OFFCURVE",
"684 544 CURVE SMOOTH"
);
}
);
width = 776;
}
);
unicode = 0055;
},
{
color = 6;
glyphname = U.ss01;
lastChange = "2019-04-22 14:21:15 +0000";
layers = (
{
layerId = "31E65565-C22C-4792-86EE-013C6F95D489";
paths = (
{
closed = 1;
nodes = (
"588 243 LINE",
"584 2 LINE SMOOTH",
"584 -7 OFFCURVE",
"618 4 OFFCURVE",
"697 -10 CURVE",
"707 -10 OFFCURVE",
"756 36 OFFCURVE",
"786 71 CURVE",
"779 96 LINE",
"757 91 OFFCURVE",
"744 90 OFFCURVE",
"725 90 CURVE SMOOTH",
"688 90 OFFCURVE",
"666 204 OFFCURVE",
"666 294 CURVE SMOOTH",
"666 448 OFFCURVE",
"675 605 OFFCURVE",
"718 710 CURVE",
"698 725 LINE",
"594 653 LINE"
);
},
{
closed = 1;
nodes = (
"227 49 OFFCURVE",
"155 151 OFFCURVE",
"155 292 CURVE SMOOTH",
"155 455 OFFCURVE",
"273 571 OFFCURVE",
"379 676 CURVE",
"379 41 LINE",
"409 41 LINE",
"409 719 LINE",
"326 709 OFFCURVE",
"211 709 OFFCURVE",
"110 719 CURVE",
"62 612 LINE",
"81 605 LINE",
"149 628 OFFCURVE",
"235 626 OFFCURVE",
"307 626 CURVE",
"290 639 LINE",
"229 573 OFFCURVE",
"45 420 OFFCURVE",
"45 255 CURVE SMOOTH",
"45 103 OFFCURVE",
"143 -11 OFFCURVE",
"326 -11 CURVE SMOOTH",
"515 -11 OFFCURVE",
"631 160 OFFCURVE",
"631 287 CURVE",
"590 292 LINE",
"590 162 OFFCURVE",
"508 49 OFFCURVE",
"372 49 CURVE SMOOTH"
);
},
{
closed = 1;
nodes = (
"390 391 LINE",
"306 307 LINE",
"395 227 LINE",
"482 309 LINE"
);
},
{
closed = 1;
nodes = (
"627 233 LINE"
);
}
);
width = 826;
}
);
leftMetricsKey = O;
rightMetricsKey = H;
},
{
color = 3;
glyphname = V;
lastChange = "2019-04-24 16:48:09 +0000";
layers = (
{
layerId = "31E65565-C22C-4792-86EE-013C6F95D489";
paths = (
{
closed = 1;
nodes = (
"10 663 LINE",
"71 652 OFFCURVE",
"217 217 OFFCURVE",
"322 -10 CURVE",
"372 -10 LINE",
"617 543 LINE SMOOTH",
"642 599 OFFCURVE",
"663 639 OFFCURVE",
"697 663 CURVE",
"697 703 LINE",
"625 700 OFFCURVE",
"577 700 OFFCURVE",
"480 703 CURVE",
"480 663 LINE",
"566 627 OFFCURVE",
"587 617 OFFCURVE",
"549 528 CURVE SMOOTH",
"355 77 LINE",
"379 119 LINE",
"211 540 LINE SMOOTH",
"183 610 OFFCURVE",
"164 635 OFFCURVE",
"271 663 CURVE",
"271 703 LINE",
"199 701 OFFCURVE",
"91 699 OFFCURVE",
"10 703 CURVE"
);
}
);
width = 707;
}
);
unicode = 0056;
},
{
color = 3;
glyphname = V.ss01;
lastChange = "2019-04-24 16:48:09 +0000";
layers = (
{
layerId = "31E65565-C22C-4792-86EE-013C6F95D489";
paths = (
{
closed = 1;
nodes = (
"411 468 LINE",
"397 610 OFFCURVE",
"323 660 OFFCURVE",
"265 660 CURVE SMOOTH",
"186 660 OFFCURVE",
"160 615 OFFCURVE",
"71 506 CURVE",
"103 482 LINE",
"155 531 OFFCURVE",
"195 547 OFFCURVE",
"244 547 CURVE SMOOTH",
"281 547 OFFCURVE",
"355 528 OFFCURVE",
"375 404 CURVE"
);
},
{
closed = 1;
nodes = (
"717 78 OFFCURVE",
"584 151 OFFCURVE",
"418 151 CURVE SMOOTH",
"341 151 OFFCURVE",
"270 143 OFFCURVE",
"199 124 CURVE",
"277 195 OFFCURVE",
"397 407 OFFCURVE",
"499 564 CURVE",
"624 635 OFFCURVE",
"856 602 OFFCURVE",
"856 358 CURVE SMOOTH",
"856 228 OFFCURVE",
"800 143 OFFCURVE",
"736 78 CURVE"
);
},
{
closed = 1;
nodes = (
"617 254 LINE",
"698 334 LINE",
"613 411 LINE",
"529 332 LINE"
);
},
{
closed = 1;
nodes = (
"368 429 LINE SMOOTH",
"319 336 OFFCURVE",
"127 89 OFFCURVE",
"14 12 CURVE",
"35 -22 LINE",
"126 18 OFFCURVE",
"212 43 OFFCURVE",
"359 43 CURVE SMOOTH",
"460 43 OFFCURVE",
"583 25 OFFCURVE",
"686 -22 CURVE",
"703 -22 LINE",
"819 89 OFFCURVE",
"965 200 OFFCURVE",
"965 391 CURVE SMOOTH",
"965 576 OFFCURVE",
"845 706 OFFCURVE",
"670 715 CURVE SMOOTH",
"630 717 OFFCURVE",
"566 708 OFFCURVE",
"495 672 CURVE"
);
}
);
width = 1005;
}
);
},
{
color = 6;
glyphname = W;
lastChange = "2019-04-19 22:04:51 +0000";
layers = (
{
layerId = "31E65565-C22C-4792-86EE-013C6F95D489";
paths = (
{
closed = 1;
nodes = (
"682 316 OFFCURVE",
"723 180 OFFCURVE",
"811 -10 CURVE",
"861 -10 LINE",
"1106 543 LINE SMOOTH",
"1131 599 OFFCURVE",
"1152 639 OFFCURVE",
"1186 663 CURVE",
"1186 703 LINE",
"1114 700 OFFCURVE",
"1056 700 OFFCURVE",
"959 703 CURVE",
"959 663 LINE",
"1045 627 OFFCURVE",
"1065 618 OFFCURVE",
"1028 528 CURVE SMOOTH",
"865 128 LINE",
"700 540 LINE SMOOTH",
"672 610 OFFCURVE",
"653 635 OFFCURVE",
"760 663 CURVE",
"760 703 LINE",
"667 700 OFFCURVE",
"573 700 OFFCURVE",
"480 703 CURVE",
"480 663 LINE",
"496 656 OFFCURVE",
"534 632 OFFCURVE",
"558 589 CURVE SMOOTH"
);
},
{
closed = 1;
nodes = (
"573 606 LINE",
"374 131 LINE",
"211 540 LINE SMOOTH",
"183 610 OFFCURVE",
"164 635 OFFCURVE",
"271 663 CURVE",
"271 703 LINE",
"199 701 OFFCURVE",
"91 699 OFFCURVE",
"10 703 CURVE",
"10 663 LINE",
"71 652 OFFCURVE",
"217 217 OFFCURVE",
"322 -10 CURVE",
"372 -10 LINE",
"605 516 LINE"
);
}
);
width = 1196;
}
);
unicode = 0057;
},
{
color = 6;
glyphname = X;
lastChange = "2019-04-19 22:04:51 +0000";
layers = (
{
anchors = (
{
name = bottom;
position = "{377, 25}";
},
{
name = top;
position = "{377, 722}";
}
);
guideLines = (
{
angle = 90;
position = "{45, 380}";
},
{
position = "{575, 284}";
},
{
angle = 90;
position = "{662, 305}";
}
);
layerId = "31E65565-C22C-4792-86EE-013C6F95D489";
paths = (
{
closed = 1;
nodes = (
"405 351 LINE",
"642 601 LINE SMOOTH",
"667 628 OFFCURVE",
"690 642 OFFCURVE",
"708 651 CURVE SMOOTH",
"729 662 LINE",
"729 700 LINE",
"499 700 LINE",
"499 665 LINE",
"524 659 LINE SMOOTH",
"560 650 OFFCURVE",
"590 633 OFFCURVE",
"549 588 CURVE SMOOTH",
"376 399 LINE"
);
},
{
closed = 1;
nodes = (
"342 363 LINE",
"69 81 LINE SMOOTH",
"56 68 OFFCURVE",
"44 54 OFFCURVE",
"5 41 CURVE",
"5 0 LINE",
"208 0 LINE",
"208 38 LINE",
"169 49 OFFCURVE",
"152 57 OFFCURVE",
"167 75 CURVE SMOOTH",
"370 313 LINE"
);
},
{
closed = 1;
nodes = (
"496 97 LINE SMOOTH",
"518 70 OFFCURVE",
"521 52 OFFCURVE",
"468 32 CURVE",
"468 0 LINE",
"718 0 LINE",
"718 35 LINE",
"696 47 OFFCURVE",
"670 68 OFFCURVE",
"653 88 CURVE SMOOTH",
"218 616 LINE SMOOTH",
"203 634 OFFCURVE",
"213 651 OFFCURVE",
"228 655 CURVE SMOOTH",
"263 665 LINE",
"263 700 LINE",
"5 700 LINE",
"5 662 LINE",
"24 656 OFFCURVE",
"46 649 OFFCURVE",
"78 610 CURVE SMOOTH"
);
}
);
width = 734;
}
);
unicode = 0058;
},
{
color = 6;
glyphname = Y;
lastChange = "2019-04-19 22:04:51 +0000";
layers = (
{
layerId = "31E65565-C22C-4792-86EE-013C6F95D489";
paths = (
{
closed = 1;
nodes = (
"190 0 LINE",
"506 0 LINE",
"506 35 LINE",
"466 46 OFFCURVE",
"404 41 OFFCURVE",
"405 139 CURVE SMOOTH",
"406 300 LINE",
"651 626 LINE SMOOTH",
"670 652 OFFCURVE",
"688 658 OFFCURVE",
"709 671 CURVE",
"709 700 LINE",
"485 700 LINE",
"485 671 LINE",
"534 664 LINE SMOOTH",
"561 660 OFFCURVE",
"577 643 OFFCURVE",
"561 619 CURVE SMOOTH",
"362 331 LINE",
"408 315 LINE",
"189 616 LINE SMOOTH",
"175 636 OFFCURVE",
"186 656 OFFCURVE",
"205 660 CURVE SMOOTH",
"260 671 LINE",
"260 700 LINE",
"5 700 LINE",
"5 671 LINE",
"36 647 OFFCURVE",
"52 638 OFFCURVE",
"78 601 CURVE SMOOTH",
"296 291 LINE",
"294 139 LINE SMOOTH",
"293 45 OFFCURVE",
"239 46 OFFCURVE",
"190 35 CURVE"
);
}
);
width = 714;
}
);
unicode = 0059;
},
{
color = 6;
glyphname = Z;
lastChange = "2019-04-19 22:04:51 +0000";
layers = (
{
anchors = (
{
name = bottom;
position = "{350, 25}";
},
{
name = top;
position = "{350, 722}";
}
);
layerId = "31E65565-C22C-4792-86EE-013C6F95D489";
paths = (
{
closed = 1;
nodes = (
"13 560 LINE",
"48 546 LINE",
"100 592 OFFCURVE",
"165 639 OFFCURVE",
"228 640 CURVE SMOOTH",
"593 648 LINE",
"577 672 LINE",
"10 15 LINE",
"43 -10 LINE",
"57 -4 OFFCURVE",
"70 0 OFFCURVE",
"86 0 CURVE SMOOTH",
"272 0 OFFCURVE",
"469 0 OFFCURVE",
"655 -10 CURVE",
"746 164 LINE",
"710 173 LINE",
"670 125 OFFCURVE",
"593 60 OFFCURVE",
"481 58 CURVE SMOOTH",
"139 52 LINE",
"155 22 LINE",
"637 586 LINE SMOOTH",
"659 612 OFFCURVE",
"684 638 OFFCURVE",
"717 662 CURVE",
"705 706 LINE",
"663 701 OFFCURVE",
"623 700 OFFCURVE",
"578 700 CURVE SMOOTH",
"100 700 LINE"
);
}
);
width = 756;
}
);
unicode = 005A;
},
{
color = 4;
glyphname = a;
lastChange = "2019-04-24 16:48:09 +0000";
layers = (
{
anchors = (
{
name = bottom;
position = "{189, 0}";
},
{
name = ogonek;
position = "{343, 10}";
},
{
name = top;
position = "{189, 400}";
}
);
layerId = "31E65565-C22C-4792-86EE-013C6F95D489";
paths = (
{
closed = 1;
nodes = (
"364 30 LINE",
"343 43 OFFCURVE",
"338 54 OFFCURVE",
"339 96 CURVE SMOOTH",
"342 302 LINE SMOOTH",
"343 367 OFFCURVE",
"294 410 OFFCURVE",
"210 410 CURVE SMOOTH",
"154 410 OFFCURVE",
"81 366 OFFCURVE",
"28 315 CURVE",
"43 292 LINE",
"79 321 OFFCURVE",
"117 337 OFFCURVE",
"160 337 CURVE SMOOTH",
"220 337 OFFCURVE",
"245 313 OFFCURVE",
"245 253 CURVE",
"193 235 OFFCURVE",
"138 221 OFFCURVE",
"77 193 CURVE SMOOTH",
"36 174 OFFCURVE",
"5 144 OFFCURVE",
"5 92 CURVE SMOOTH",
"5 27 OFFCURVE",
"56 -10 OFFCURVE",
"101 -10 CURVE SMOOTH",
"155 -10 OFFCURVE",
"209 23 OFFCURVE",
"244 70 CURVE",
"252 -10 LINE",
"296 -5 OFFCURVE",
"329 -1 OFFCURVE",
"364 0 CURVE"
);
},
{
closed = 1;
nodes = (
"259 99 OFFCURVE",
"210 66 OFFCURVE",
"162 66 CURVE SMOOTH",
"114 66 OFFCURVE",
"100 94 OFFCURVE",
"100 122 CURVE SMOOTH",
"100 173 OFFCURVE",
"181 207 OFFCURVE",
"259 226 CURVE"
);
}
);
width = 379;
}
);
unicode = 0061;
},
{
color = 4;
glyphname = a_hook;
lastChange = "2019-04-19 22:04:51 +0000";
layers = (
{
anchors = (
{
name = bottom;
position = "{217, 0}";
},
{
name = ogonek;
position = "{371, 10}";
},
{
name = top;
position = "{217, 400}";
}
);
layerId = "31E65565-C22C-4792-86EE-013C6F95D489";
paths = (
{
closed = 1;
nodes = (
"243 648 OFFCURVE",
"302 603 OFFCURVE",
"302 575 CURVE SMOOTH",
"302 538 OFFCURVE",
"221 522 OFFCURVE",
"123 491 CURVE",
"143 463 LINE",
"258 498 OFFCURVE",
"367 522 OFFCURVE",
"417 556 CURVE",
"417 599 OFFCURVE",
"361 667 OFFCURVE",
"329 706 CURVE",
"224 662 LINE"
);
},
{
closed = 1;
nodes = (
"280 -20 CURVE",
"324 -8 OFFCURVE",
"360 -1 OFFCURVE",
"385 0 CURVE",
"385 30 LINE",
"374 43 OFFCURVE",
"358 64 OFFCURVE",
"360 106 CURVE SMOOTH",
"373 332 LINE",
"347 378 OFFCURVE",
"303 401 OFFCURVE",
"268 409 CURVE",
"212 400 OFFCURVE",
"131 356 OFFCURVE",
"56 315 CURVE",
"61 292 LINE",
"107 313 OFFCURVE",
"167 337 OFFCURVE",
"210 337 CURVE SMOOTH",
"259 337 OFFCURVE",
"279 309 OFFCURVE",
"279 257 CURVE SMOOTH",
"279 2 OFFCURVE",
"278 232 OFFCURVE"
);
},
{
closed = 1;
nodes = (
"301 135 LINE",
"273 100 OFFCURVE",
"234 66 OFFCURVE",
"202 66 CURVE SMOOTH",
"154 66 OFFCURVE",
"132 131 OFFCURVE",
"132 159 CURVE",
"166 185 OFFCURVE",
"225 213 OFFCURVE",
"288 228 CURVE",
"286 268 LINE",
"219 230 OFFCURVE",
"94 174 OFFCURVE",
"49 142 CURVE",
"59 77 OFFCURVE",
"92 24 OFFCURVE",
"137 -12 CURVE",
"194 24 OFFCURVE",
"245 50 OFFCURVE",
"298 92 CURVE"
);
}
);
width = 465;
}
);
unicode = 1EA3;
},
{
color = 4;
glyphname = a_macr;
lastChange = "2019-04-19 22:04:51 +0000";
layers = (
{
anchors = (
{
name = _top;
position = "{181, 356}";
},
{
name = top;
position = "{172, 629}";
}
);
components = (
{
name = a;
}
);
layerId = "31E65565-C22C-4792-86EE-013C6F95D489";
paths = (
{
closed = 1;
nodes = (
"151 608 LINE",
"229 608 OFFCURVE",
"261 589 OFFCURVE",
"335 670 CURVE",
"363 662 LINE",
"247 508 LINE",
"186 514 OFFCURVE",
"141 524 OFFCURVE",
"92 500 CURVE",
"68 513 LINE"
);
}
);
width = 386;
}
);
unicode = 0101;
},
{
color = 4;
glyphname = b;
lastChange = "2019-04-24 16:48:09 +0000";
layers = (
{
layerId = "31E65565-C22C-4792-86EE-013C6F95D489";
paths = (
{
closed = 1;
nodes = (
"15 654 LINE",
"42 651 OFFCURVE",
"50 621 OFFCURVE",
"51 591 CURVE SMOOTH",
"59 425 OFFCURVE",
"49 247 OFFCURVE",
"49 81 CURVE SMOOTH",
"49 61 OFFCURVE",
"111 -10 OFFCURVE",
"240 -10 CURVE SMOOTH",
"268 -10 OFFCURVE",
"474 70 OFFCURVE",
"474 220 CURVE SMOOTH",
"474 331 OFFCURVE",
"409 410 OFFCURVE",
"290 410 CURVE SMOOTH",
"271 410 OFFCURVE",
"185 391 OFFCURVE",
"144 381 CURVE",
"146 545 LINE SMOOTH",
"147 589 OFFCURVE",
"152 661 OFFCURVE",
"156 700 CURVE",
"147 705 LINE",
"99 696 OFFCURVE",
"55 692 OFFCURVE",
"15 684 CURVE"
);
},
{
closed = 1;
nodes = (
"376 122 OFFCURVE",
"309 53 OFFCURVE",
"279 53 CURVE SMOOTH",
"175 53 OFFCURVE",
"145 96 OFFCURVE",
"145 215 CURVE SMOOTH",
"145 314 OFFCURVE",
"197 364 OFFCURVE",
"259 364 CURVE SMOOTH",
"320 364 OFFCURVE",
"376 308 OFFCURVE",
"376 222 CURVE SMOOTH"
);
}
);
width = 504;
}
);
unicode = 0062;
},
{
color = 4;
glyphname = b_strok;
lastChange = "2019-04-19 22:04:51 +0000";
layers = (
{
components = (
{
name = b;
}
);
layerId = "31E65565-C22C-4792-86EE-013C6F95D489";
paths = (
{
closed = 1;
nodes = (
"268 655 OFFCURVE",
"296 650 OFFCURVE",
"286 611 CURVE SMOOTH",
"266 532 OFFCURVE",
"176 481 OFFCURVE",
"85 440 CURVE",
"95 416 LINE",
"235 474 OFFCURVE",
"355 560 OFFCURVE",
"365 694 CURVE",
"203 704 LINE",
"203 673 LINE"
);
}
);
width = 504;
}
);
leftMetricsKey = b;
rightMetricsKey = b;
},
{
color = 4;
glyphname = c;
lastChange = "2019-04-24 16:48:14 +0000";
layers = (
{
guideLines = (
{
position = "{238, 45}";
}
);
layerId = "31E65565-C22C-4792-86EE-013C6F95D489";
paths = (
{
closed = 1;
nodes = (
"405 358 LINE",
"372 337 OFFCURVE",
"347 314 OFFCURVE",
"315 293 CURVE",
"308 293 OFFCURVE",
"267 358 OFFCURVE",
"207 358 CURVE SMOOTH",
"184 358 OFFCURVE",
"132 305 OFFCURVE",
"132 209 CURVE SMOOTH",
"132 106 OFFCURVE",
"201 45 OFFCURVE",
"281 45 CURVE SMOOTH",
"313 45 OFFCURVE",
"350 54 OFFCURVE",
"373 61 CURVE",
"384 33 LINE",
"345 14 OFFCURVE",
"294 -9 OFFCURVE",
"223 -9 CURVE SMOOTH",
"103 -9 OFFCURVE",
"30 69 OFFCURVE",
"30 199 CURVE SMOOTH",
"30 329 OFFCURVE",
"104 410 OFFCURVE",
"234 410 CURVE SMOOTH",
"312 410 OFFCURVE",
"336 384 OFFCURVE",
"398 387 CURVE"
);
}
);
width = 415;
}
);
unicode = 0063;
},
{
color = 4;
glyphname = c_hook;
lastChange = "2019-04-19 22:04:51 +0000";
layers = (
{
anchors = (
{
name = _top;
position = "{231, 400}";
},
{
name = top;
position = "{231, 716}";
}
);
components = (
{
alignment = -1;
name = c;
}
);
layerId = "31E65565-C22C-4792-86EE-013C6F95D489";
paths = (
{
closed = 1;
nodes = (
"340 527 OFFCURVE",
"325 487 OFFCURVE",
"249 487 CURVE SMOOTH",
"186 487 OFFCURVE",
"141 510 OFFCURVE",
"114 527 CURVE",
"95 507 LINE",
"128 482 OFFCURVE",
"173 459 OFFCURVE",
"263 459 CURVE SMOOTH",
"332 459 OFFCURVE",
"405 489 OFFCURVE",
"405 536 CURVE SMOOTH",
"405 588 OFFCURVE",
"357 620 OFFCURVE",
"327 636 CURVE",
"235 583 LINE"
);
}
);
width = 415;
}
);
leftMetricsKey = c;
rightMetricsKey = c;
},
{
color = 4;
glyphname = c_ra;
lastChange = "2019-04-22 14:41:07 +0000";
layers = (
{
components = (
{
name = c;
}
);
layerId = "31E65565-C22C-4792-86EE-013C6F95D489";
paths = (
{
closed = 1;
nodes = (
"33 565 LINE",
"111 663 LINE",
"132 633 OFFCURVE",
"157 603 OFFCURVE",
"178 584 CURVE",
"191 597 OFFCURVE",
"213 617 OFFCURVE",
"237 652 CURVE",
"272 633 OFFCURVE",
"298 614 OFFCURVE",
"323 614 CURVE SMOOTH",
"342 614 OFFCURVE",
"352 621 OFFCURVE",
"358 641 CURVE",
"379 633 LINE",
"367 590 OFFCURVE",
"327 542 OFFCURVE",
"288 529 CURVE",
"263 550 OFFCURVE",
"237 578 OFFCURVE",
"214 578 CURVE SMOOTH",
"198 578 OFFCURVE",
"174 548 OFFCURVE",
"155 522 CURVE",
"124 551 OFFCURVE",
"99 572 OFFCURVE",
"79 572 CURVE SMOOTH",
"74 572 OFFCURVE",
"66 568 OFFCURVE",
"55 552 CURVE"
);
}
);
width = 415;
}
);
leftMetricsKey = c;
},
{
color = 4;
glyphname = c_strok;
lastChange = "2019-04-19 22:04:51 +0000";
layers = (
{
layerId = "31E65565-C22C-4792-86EE-013C6F95D489";
paths = (
{
closed = 1;
nodes = (
"355 511 LINE",
"464 513 LINE",
"466 493 LINE",
"430 470 OFFCURVE",
"429 463 OFFCURVE",
"427 377 CURVE SMOOTH",
"423 213 OFFCURVE",
"393 30 OFFCURVE",
"432 -117 CURVE",
"392 -123 LINE",
"368 21 OFFCURVE",
"390 214 OFFCURVE",
"388 377 CURVE SMOOTH",
"387 471 OFFCURVE",
"388 480 OFFCURVE",
"354 490 CURVE"
);
},
{
closed = 1;
nodes = (
"504 457 LINE",
"504 359 LINE",
"471 328 OFFCURVE",
"446 315 OFFCURVE",
"414 294 CURVE",
"346 326 OFFCURVE",
"267 358 OFFCURVE",
"207 358 CURVE SMOOTH",
"184 358 OFFCURVE",
"132 305 OFFCURVE",
"132 209 CURVE SMOOTH",
"132 106 OFFCURVE",
"171 45 OFFCURVE",
"251 45 CURVE SMOOTH",
"313 45 OFFCURVE",
"338 69 OFFCURVE",
"361 91 CURVE",
"372 63 LINE",
"333 25 OFFCURVE",
"294 -9 OFFCURVE",
"223 -9 CURVE SMOOTH",
"103 -9 OFFCURVE",
"30 69 OFFCURVE",
"30 199 CURVE SMOOTH",
"30 329 OFFCURVE",
"114 410 OFFCURVE",
"244 410 CURVE SMOOTH",
"310 410 OFFCURVE",
"345 388 OFFCURVE",
"411 388 CURVE SMOOTH",
"465 388 OFFCURVE",
"478 410 OFFCURVE",
"477 457 CURVE"
);
}
);
width = 514;
}
);
leftMetricsKey = c;
rightMetricsKey = c;
},
{
color = 4;
glyphname = d;
lastChange = "2019-04-24 16:48:09 +0000";
layers = (
{
layerId = "31E65565-C22C-4792-86EE-013C6F95D489";
paths = (
{
closed = 1;
nodes = (
"335 366 OFFCURVE",
"292 381 OFFCURVE",
"232 381 CURVE SMOOTH",
"154 381 OFFCURVE",
"25 318 OFFCURVE",
"25 174 CURVE SMOOTH",
"25 64 OFFCURVE",
"87 -10 OFFCURVE",
"236 -10 CURVE SMOOTH",
"246 -10 OFFCURVE",
"310 58 OFFCURVE",
"350 81 CURVE",
"360 -9 LINE",
"404 3 OFFCURVE",
"449 12 OFFCURVE",
"493 20 CURVE",
"493 50 LINE",
"457 64 OFFCURVE",
"439 71 OFFCURVE",
"440 114 CURVE SMOOTH",
"446 522 LINE SMOOTH",
"447 622 OFFCURVE",
"456 662 OFFCURVE",
"466 707 CURVE",
"461 711 LINE",
"383 699 OFFCURVE",
"319 691 OFFCURVE",
"232 683 CURVE",
"233 653 LINE",
"256 652 LINE SMOOTH",
"360 650 OFFCURVE",
"350 628 OFFCURVE",
"351 563 CURVE SMOOTH",
"355 356 LINE"
);
},
{
closed = 1;
nodes = (
"105 294 OFFCURVE",
"168 331 OFFCURVE",
"216 331 CURVE SMOOTH",
"306 331 OFFCURVE",
"347 268 OFFCURVE",
"347 144 CURVE SMOOTH",
"347 134 OFFCURVE",
"296 71 OFFCURVE",
"236 71 CURVE SMOOTH",
"151 71 OFFCURVE",
"105 139 OFFCURVE",
"105 204 CURVE SMOOTH"
);
}
);
width = 518;
}
);
leftMetricsKey = o;
rightMetricsKey = n;
unicode = 0064;
},
{
color = 4;
glyphname = d_strok;
lastChange = "2019-04-19 22:04:51 +0000";
layers = (
{
components = (
{
name = d;
}
);
layerId = "31E65565-C22C-4792-86EE-013C6F95D489";
paths = (
{
closed = 1;
nodes = (
"492 547 LINE",
"430 484 OFFCURVE",
"228 474 OFFCURVE",
"72 478 CURVE",
"64 444 LINE",
"163 444 OFFCURVE",
"321 435 OFFCURVE",
"470 451 CURVE",
"490 482 OFFCURVE",
"502 511 OFFCURVE",
"514 540 CURVE"
);
}
);
width = 509;
}
);
},
{
color = 4;
glyphname = e;
lastChange = "2019-04-24 16:48:09 +0000";
layers = (
{
anchors = (
{
name = bottom;
position = "{188, 0}";
},
{
name = ogonek;
position = "{350, 10}";
},
{
name = top;
position = "{188, 400}";
}
);
guideLines = (
{
angle = 270;
position = "{408, 198}";
},
{
position = "{206, 45}";
}
);
layerId = "31E65565-C22C-4792-86EE-013C6F95D489";
paths = (
{
closed = 1;
nodes = (
"363 65 LINE",
"334 55 OFFCURVE",
"305 45 OFFCURVE",
"267 45 CURVE SMOOTH",
"177 45 OFFCURVE",
"111 122 OFFCURVE",
"111 222 CURVE SMOOTH",
"111 284 OFFCURVE",
"129 346 OFFCURVE",
"178 346 CURVE SMOOTH",
"206 346 OFFCURVE",
"237 324 OFFCURVE",
"248 259 CURVE",
"313 316 LINE",
"95 200 LINE",
"105 163 LINE",
"189 214 OFFCURVE",
"292 256 OFFCURVE",
"386 307 CURVE",
"375 338 LINE",
"360 338 OFFCURVE",
"339 342 OFFCURVE",
"326 350 CURVE SMOOTH",
"313 358 OFFCURVE",
"268 408 OFFCURVE",
"205 408 CURVE SMOOTH",
"157 408 OFFCURVE",
"68 372 OFFCURVE",
"47 334 CURVE SMOOTH",
"37 316 OFFCURVE",
"15 289 OFFCURVE",
"15 201 CURVE SMOOTH",
"15 91 OFFCURVE",
"78 -10 OFFCURVE",
"217 -10 CURVE SMOOTH",
"289 -10 OFFCURVE",
"331 15 OFFCURVE",
"376 40 CURVE"
);
}
);
width = 396;
}
);
unicode = 0065;
},
{
color = 4;
glyphname = e_hook;
lastChange = "2019-04-19 22:04:51 +0000";
layers = (
{
anchors = (
{
name = _top;
position = "{405.061, 480.716}";
},
{
name = top;
position = "{219.321, 668.757}";
}
);
components = (
{
name = e;
}
);
layerId = "31E65565-C22C-4792-86EE-013C6F95D489";
paths = (
{
closed = 1;
nodes = (
"133 592 LINE",
"75 512 LINE",
"120 486 OFFCURVE",
"182 475 OFFCURVE",
"215 475 CURVE SMOOTH",
"285 475 OFFCURVE",
"338 526 OFFCURVE",
"363 586 CURVE",
"326 596 LINE",
"317 555 OFFCURVE",
"290 524 OFFCURVE",
"252 524 CURVE SMOOTH",
"215 524 OFFCURVE",
"174 549 OFFCURVE",
"144 592 CURVE"
);
}
);
width = 406;
}
);
},
{
color = 4;
glyphname = e_macr;
lastChange = "2019-04-19 22:04:51 +0000";
layers = (
{
anchors = (
{
name = _top;
position = "{217, 350}";
},
{
name = top;
position = "{208, 623}";
}
);
components = (
{
name = e;
}
);
layerId = "31E65565-C22C-4792-86EE-013C6F95D489";
paths = (
{
closed = 1;
nodes = (
"163 588 LINE",
"241 580 OFFCURVE",
"277 570 OFFCURVE",
"351 621 CURVE",
"377 611 LINE",
"289 492 LINE",
"228 498 OFFCURVE",
"143 509 OFFCURVE",
"114 485 CURVE",
"90 498 LINE"
);
}
);
width = 406;
}
);
unicode = 0113;
},
{
color = 4;
glyphname = f;
lastChange = "2019-04-24 16:48:09 +0000";
layers = (
{
layerId = "31E65565-C22C-4792-86EE-013C6F95D489";
paths = (
{
closed = 1;
nodes = (
"109 2 OFFCURVE",
"159 0 OFFCURVE",
"247 -5 CURVE",
"247 25 LINE",
"175 38 OFFCURVE",
"158 37 OFFCURVE",
"157 103 CURVE SMOOTH",
"155 332 LINE",
"192 337 OFFCURVE",
"234 344 OFFCURVE",
"274 347 CURVE",
"274 391 LINE",
"155 390.496 LINE",
"151 436 OFFCURVE",
"149 481 OFFCURVE",
"152 557 CURVE SMOOTH",
"155 615 OFFCURVE",
"175 653 OFFCURVE",
"220 653 CURVE SMOOTH",
"258 653 OFFCURVE",
"281 632 OFFCURVE",
"304 595 CURVE",
"354 600 LINE",
"354 700 LINE",
"317 702 OFFCURVE",
"281 710 OFFCURVE",
"230 710 CURVE SMOOTH",
"110 710 OFFCURVE",
"65 600 OFFCURVE",
"65 497 CURVE SMOOTH",
"65 455 OFFCURVE",
"67 424 OFFCURVE",
"68 392 CURVE",
"66 390 LINE",
"38 390 LINE",
"38 337 LINE",
"48 336 OFFCURVE",
"58 334 OFFCURVE",
"67 330 CURVE",
"69 251 OFFCURVE",
"69 157 OFFCURVE",
"65 78 CURVE SMOOTH",
"64 56 OFFCURVE",
"60 34 OFFCURVE",
"30 26 CURVE",
"30 -4 LINE"
);
}
);
width = 314;
}
);
unicode = 0066;
},
{
color = 4;
glyphname = f_f;
lastChange = "2019-04-19 22:04:51 +0000";
layers = (
{
annotations = (
{
position = "{231.293, 95.176}";
type = Plus;
}
);
layerId = "31E65565-C22C-4792-86EE-013C6F95D489";
paths = (
{
closed = 1;
nodes = (
"400 2 OFFCURVE",
"450 0 OFFCURVE",
"528 -5 CURVE",
"528 25 LINE",
"466 38 OFFCURVE",
"449 37 OFFCURVE",
"448 103 CURVE SMOOTH",
"446 347 LINE",
"483 348 OFFCURVE",
"562 348 OFFCURVE",
"602 347 CURVE",
"636 383 LINE",
"635 394 LINE",
"572 392 OFFCURVE",
"508 388 OFFCURVE",
"445 390 CURVE",
"439 426 OFFCURVE",
"433 471 OFFCURVE",
"434 527 CURVE SMOOTH",
"436 615 OFFCURVE",
"505 656 OFFCURVE",
"570 656 CURVE SMOOTH",
"618 656 OFFCURVE",
"664 640 OFFCURVE",
"687 584 CURVE",
"769 584 LINE",
"770 598 LINE",
"762 649 OFFCURVE",
"705 710 OFFCURVE",
"581 710 CURVE SMOOTH",
"461 710 OFFCURVE",
"356 617 OFFCURVE",
"356 514 CURVE SMOOTH",
"356 362 OFFCURVE",
"356 232 OFFCURVE",
"356 78 CURVE SMOOTH",
"356 56 OFFCURVE",
"351 34 OFFCURVE",
"291 26 CURVE",
"291 -4 LINE"
);
},
{
closed = 1;
nodes = (
"51 2 OFFCURVE",
"101 0 OFFCURVE",
"179 -5 CURVE",
"179 25 LINE",
"117 38 OFFCURVE",
"100 37 OFFCURVE",
"99 103 CURVE SMOOTH",
"97 347 LINE",
"134 347 OFFCURVE",
"331 346 OFFCURVE",
"371 348 CURVE",
"375 391 LINE",
"97 390 LINE",
"97 444 LINE SMOOTH",
"97 542 OFFCURVE",
"153 612 OFFCURVE",
"248 612 CURVE SMOOTH",
"306 612 OFFCURVE",
"349 583 OFFCURVE",
"371 553 CURVE",
"412 558 LINE",
"414 620 LINE",
"376 640 OFFCURVE",
"312 658 OFFCURVE",
"248 658 CURVE SMOOTH",
"108 658 OFFCURVE",
"8 561 OFFCURVE",
"8 458 CURVE SMOOTH",
"8 416 OFFCURVE",
"9 424 OFFCURVE",
"10 392 CURVE",
"8 390 LINE",
"-20 390 LINE",
"-20 352 LINE",
"-10 351 OFFCURVE",
"0 349 OFFCURVE",
"9 345 CURVE",
"11 266 OFFCURVE",
"11 147 OFFCURVE",
"7 68 CURVE SMOOTH",
"6 46 OFFCURVE",
"2 32 OFFCURVE",
"-28 26 CURVE",
"-28 -4 LINE"
);
}
);
width = 730;
}
);
rightMetricsKey = f;
},
{
color = 4;
glyphname = g;
lastChange = "2019-04-24 16:48:09 +0000";
layers = (
{
layerId = "31E65565-C22C-4792-86EE-013C6F95D489";
paths = (
{
closed = 1;
nodes = (
"10 -253 OFFCURVE",
"137 -290 OFFCURVE",
"247 -290 CURVE SMOOTH",
"397 -290 OFFCURVE",
"502 -221 OFFCURVE",
"502 -128 CURVE SMOOTH",
"502 -40 OFFCURVE",
"393 -14 OFFCURVE",
"383 -14 CURVE SMOOTH",
"375 -14 OFFCURVE",
"339 -21 OFFCURVE",
"306 -21 CURVE SMOOTH",
"291 -21 OFFCURVE",
"219 11 OFFCURVE",
"204 36 CURVE",
"211 47 OFFCURVE",
"245 63 OFFCURVE",
"262 63 CURVE SMOOTH",
"362 63 OFFCURVE",
"464 120 OFFCURVE",
"464 230 CURVE SMOOTH",
"464 274 OFFCURVE",
"441 313 OFFCURVE",
"422 332 CURVE",
"501 340 LINE",
"501 400 LINE",
"362 400 LINE SMOOTH",
"323 400 OFFCURVE",
"294 410 OFFCURVE",
"251 410 CURVE SMOOTH",
"131 410 OFFCURVE",
"39 350 OFFCURVE",
"39 240 CURVE SMOOTH",
"39 167 OFFCURVE",
"101 108 OFFCURVE",
"179 80 CURVE",
"160 70 OFFCURVE",
"139 66 OFFCURVE",
"107 58 CURVE",
"107 28 LINE",
"146 17 OFFCURVE",
"191 -11 OFFCURVE",
"200 -39 CURVE",
"159 -51 OFFCURVE",
"120 -57 OFFCURVE",
"75 -61 CURVE",
"39 -75 OFFCURVE",
"10 -108 OFFCURVE",
"10 -153 CURVE SMOOTH"
);
},
{
closed = 1;
nodes = (
"104 -98 OFFCURVE",
"200 -59 OFFCURVE",
"278 -58 CURVE SMOOTH",
"352 -57 OFFCURVE",
"429 -88 OFFCURVE",
"429 -149 CURVE SMOOTH",
"429 -209 OFFCURVE",
"362 -255 OFFCURVE",
"267 -255 CURVE SMOOTH",
"177 -255 OFFCURVE",
"104 -223 OFFCURVE",
"104 -162 CURVE SMOOTH"
);
},
{
closed = 1;
nodes = (
"136 285 OFFCURVE",
"191 328 OFFCURVE",
"253 328 CURVE SMOOTH",
"323 328 OFFCURVE",
"374 286 OFFCURVE",
"374 219 CURVE SMOOTH",
"374 154 OFFCURVE",
"324 106 OFFCURVE",
"255 106 CURVE SMOOTH",
"191 106 OFFCURVE",
"136 152 OFFCURVE",
"136 218 CURVE SMOOTH"
);
}
);
width = 512;
}
);
unicode = 0067;
},
{
color = 4;
glyphname = g_ra;
lastChange = "2019-04-19 22:04:51 +0000";
layers = (
{
layerId = "31E65565-C22C-4792-86EE-013C6F95D489";
paths = (
{
closed = 1;
nodes = (
"55 154 OFFCURVE",
"117 83 OFFCURVE",
"231 83 CURVE SMOOTH",
"371 83 OFFCURVE",
"447 152 OFFCURVE",
"447 259 CURVE SMOOTH",
"447 298 OFFCURVE",
"434 323 OFFCURVE",
"423 349 CURVE",
"466 351 OFFCURVE",
"525 342 OFFCURVE",
"568 340 CURVE",
"591 393 LINE",
"585 400 LINE",
"452 392 OFFCURVE",
"320 410 OFFCURVE",
"264 410 CURVE SMOOTH",
"149 410 OFFCURVE",
"55 347 OFFCURVE",
"55 241 CURVE SMOOTH"
);
},
{
closed = 1;
nodes = (
"143 322 OFFCURVE",
"188 370 OFFCURVE",
"251 370 CURVE SMOOTH",
"325 370 OFFCURVE",
"359 306 OFFCURVE",
"359 244 CURVE SMOOTH",
"359 174 OFFCURVE",
"331 111 OFFCURVE",
"250 111 CURVE SMOOTH",
"168 111 OFFCURVE",
"143 184 OFFCURVE",
"143 247 CURVE SMOOTH"
);
},
{
closed = 1;
nodes = (
"178 105 LINE",
"66 34 LINE",
"66 -21 OFFCURVE",
"144 -72 OFFCURVE",
"210 -71 CURVE SMOOTH",
"269 -70 OFFCURVE",
"347 -66 OFFCURVE",
"406 -67 CURVE SMOOTH",
"481 -68 OFFCURVE",
"515 -109 OFFCURVE",
"515 -158 CURVE SMOOTH",
"515 -221 OFFCURVE",
"438 -256 OFFCURVE",
"328 -256 CURVE SMOOTH",
"213 -256 OFFCURVE",
"153 -205 OFFCURVE",
"153 -161 CURVE SMOOTH",
"153 -119 OFFCURVE",
"184 -85 OFFCURVE",
"242 -68 CURVE",
"214 -49 LINE",
"143 -71 OFFCURVE",
"67 -116 OFFCURVE",
"67 -170 CURVE SMOOTH",
"67 -253 OFFCURVE",
"180 -288 OFFCURVE",
"328 -288 CURVE SMOOTH",
"460 -288 OFFCURVE",
"584 -209 OFFCURVE",
"584 -119 CURVE SMOOTH",
"584 -46 OFFCURVE",
"517 4 OFFCURVE",
"390 2 CURVE SMOOTH",
"265 0 LINE SMOOTH",
"188 -1 OFFCURVE",
"171 28 OFFCURVE",
"171 46 CURVE SMOOTH",
"171 62 OFFCURVE",
"196 84 OFFCURVE",
"231 84 CURVE"
);
},
{
closed = 1;
nodes = (
"86 564 LINE",
"168 658 LINE",
"189 628 OFFCURVE",
"214 603 OFFCURVE",
"235 584 CURVE",
"248 597 OFFCURVE",
"273 621 OFFCURVE",
"294 647 CURVE",
"329 621 OFFCURVE",
"352 599 OFFCURVE",
"378 599 CURVE SMOOTH",
"421 599 OFFCURVE",
"452 618 OFFCURVE",
"494 655 CURVE",
"512 636 LINE",
"463 571 OFFCURVE",
"381 534 OFFCURVE",
"342 521 CURVE",
"317 542 OFFCURVE",
"285 569 OFFCURVE",
"262 569 CURVE SMOOTH",
"246 569 OFFCURVE",
"231 543 OFFCURVE",
"212 517 CURVE",
"181 546 OFFCURVE",
"156 567 OFFCURVE",
"136 567 CURVE SMOOTH",
"131 567 OFFCURVE",
"123 563 OFFCURVE",
"112 547 CURVE"
);
}
);
width = 600;
}
);
},
{
color = 4;
glyphname = g_ring;
lastChange = "2019-04-19 22:04:51 +0000";
layers = (
{
layerId = "31E65565-C22C-4792-86EE-013C6F95D489";
paths = (
{
closed = 1;
nodes = (
"11 154 OFFCURVE",
"79 83 OFFCURVE",
"193 83 CURVE SMOOTH",
"333 83 OFFCURVE",
"416 152 OFFCURVE",
"416 259 CURVE SMOOTH",
"416 298 OFFCURVE",
"396 323 OFFCURVE",
"385 349 CURVE",
"408 351 OFFCURVE",
"437 348 OFFCURVE",
"480 350 CURVE",
"487 403 LINE",
"481 410 LINE",
"348 402 OFFCURVE",
"282 410 OFFCURVE",
"226 410 CURVE SMOOTH",
"111 410 OFFCURVE",
"11 347 OFFCURVE",
"11 241 CURVE SMOOTH"
);
},
{
closed = 1;
nodes = (
"105 322 OFFCURVE",
"150 370 OFFCURVE",
"213 370 CURVE SMOOTH",
"287 370 OFFCURVE",
"321 306 OFFCURVE",
"321 244 CURVE SMOOTH",
"321 174 OFFCURVE",
"293 111 OFFCURVE",
"212 111 CURVE SMOOTH",
"130 111 OFFCURVE",
"105 184 OFFCURVE",
"105 247 CURVE SMOOTH"
);
},
{
closed = 1;
nodes = (
"130 105 LINE",
"48 54 LINE",
"48 36 LINE",
"107 20 OFFCURVE",
"140 -3 OFFCURVE",
"217 -22 CURVE SMOOTH",
"362 -58 OFFCURVE",
"423 -93 OFFCURVE",
"423 -154 CURVE SMOOTH",
"423 -227 OFFCURVE",
"343 -254 OFFCURVE",
"265 -254 CURVE SMOOTH",
"150 -254 OFFCURVE",
"97 -217 OFFCURVE",
"97 -137 CURVE SMOOTH",
"97 -83 OFFCURVE",
"139 -27 OFFCURVE",
"207 18 CURVE",
"164 27 LINE",
"93 -23 OFFCURVE",
"10 -77 OFFCURVE",
"10 -149 CURVE SMOOTH",
"10 -232 OFFCURVE",
"112 -288 OFFCURVE",
"260 -288 CURVE SMOOTH",
"392 -288 OFFCURVE",
"516 -207 OFFCURVE",
"516 -127 CURVE SMOOTH",
"516 -32 OFFCURVE",
"381 -5 OFFCURVE",
"257 22 CURVE SMOOTH",
"153 45 OFFCURVE",
"133 52 OFFCURVE",
"133 59 CURVE SMOOTH",
"133 75 OFFCURVE",
"158 84 OFFCURVE",
"193 84 CURVE"
);
},
{
closed = 1;
nodes = (
"305.684 508.232 OFFCURVE",
"366 555 OFFCURVE",
"366.531 633.309 CURVE SMOOTH",
"367 722 OFFCURVE",
"305.684 758.387 OFFCURVE",
"231.451 758.387 CURVE SMOOTH",
"157.218 758.387 OFFCURVE",
"96 707 OFFCURVE",
"96 628 CURVE SMOOTH",
"97 551 OFFCURVE",
"157.218 508.232 OFFCURVE",
"231.451 508.232 CURVE SMOOTH"
);
},
{
closed = 1;
nodes = (
"188 551 OFFCURVE",
"147 581 OFFCURVE",
"148 633 CURVE SMOOTH",
"149 684 OFFCURVE",
"188 706 OFFCURVE",
"232.668 706.553 CURVE SMOOTH",
"279 707 OFFCURVE",
"318 677 OFFCURVE",
"317 626 CURVE SMOOTH",
"316 574 OFFCURVE",
"276 551 OFFCURVE",
"233 551 CURVE SMOOTH"
);
}
);
width = 526;
}
);
leftMetricsKey = g;
rightMetricsKey = g;
},
{
color = 4;
glyphname = g_stroke;
lastChange = "2019-04-22 14:43:56 +0000";
layers = (
{
layerId = "31E65565-C22C-4792-86EE-013C6F95D489";
paths = (
{
closed = 1;
nodes = (
"479 256 OFFCURVE",
"510 2 OFFCURVE",
"548 -163 CURVE",
"588 -154 LINE",
"545 3 OFFCURVE",
"525 222 OFFCURVE",
"557 470 CURVE",
"500 470 LINE"
);
},
{
closed = 1;
nodes = (
"58 161 OFFCURVE",
"122 94 OFFCURVE",
"229 94 CURVE SMOOTH",
"361 94 OFFCURVE",
"439 159 OFFCURVE",
"439 260 CURVE SMOOTH",
"439 296 OFFCURVE",
"430 325 OFFCURVE",
"410 359 CURVE",
"491 360 OFFCURVE",
"543 356 OFFCURVE",
"611 332 CURVE",
"646 393 LINE",
"644 400 LINE",
"518 392 OFFCURVE",
"313 402 OFFCURVE",
"260 402 CURVE SMOOTH",
"152 402 OFFCURVE",
"58 342 OFFCURVE",
"58 243 CURVE SMOOTH"
);
},
{
closed = 1;
nodes = (
"146 319 OFFCURVE",
"189 364 OFFCURVE",
"248 364 CURVE SMOOTH",
"318 364 OFFCURVE",
"350 304 OFFCURVE",
"350 245 CURVE SMOOTH",
"350 179 OFFCURVE",
"323 120 OFFCURVE",
"247 120 CURVE SMOOTH",
"170 120 OFFCURVE",
"146 189 OFFCURVE",
"146 248 CURVE SMOOTH"
);
},
{
closed = 1;
nodes = (
"158 125 LINE",
"48 74 LINE",
"48 56 LINE",
"67 50 OFFCURVE",
"121 23 OFFCURVE",
"150 5 CURVE",
"328 20 OFFCURVE",
"416 -29 OFFCURVE",
"416 -124 CURVE SMOOTH",
"416 -208 OFFCURVE",
"361 -260 OFFCURVE",
"265 -260 CURVE SMOOTH",
"170 -260 OFFCURVE",
"92 -226 OFFCURVE",
"92 -128 CURVE SMOOTH",
"92 -74 OFFCURVE",
"127 -7 OFFCURVE",
"215 18 CURVE",
"164 27 LINE",
"93 -3 OFFCURVE",
"10 -47 OFFCURVE",
"10 -139 CURVE SMOOTH",
"10 -240 OFFCURVE",
"132 -288 OFFCURVE",
"260 -288 CURVE SMOOTH",
"401 -288 OFFCURVE",
"490 -218 OFFCURVE",
"490 -107 CURVE SMOOTH",
"490 -12 OFFCURVE",
"393 40 OFFCURVE",
"297 41 CURVE SMOOTH",
"211 42 OFFCURVE",
"170 46 OFFCURVE",
"133 69 CURVE",
"164 95 OFFCURVE",
"188 104 OFFCURVE",
"223 104 CURVE"
);
}
);
width = 600;
}
);
},
{
color = 4;
glyphname = g.ss01;
lastChange = "2019-04-24 16:48:09 +0000";
layers = (
{
layerId = "31E65565-C22C-4792-86EE-013C6F95D489";
paths = (
{
closed = 1;
nodes = (
"55 154 OFFCURVE",
"117 83 OFFCURVE",
"231 83 CURVE SMOOTH",
"371 83 OFFCURVE",
"447 152 OFFCURVE",
"447 259 CURVE SMOOTH",
"447 278 OFFCURVE",
"442 307 OFFCURVE",
"433 323 CURVE",
"476 331 OFFCURVE",
"515 335 OFFCURVE",
"558 337 CURVE",
"555 400 LINE",
"454 400 LINE SMOOTH",
"385 400 OFFCURVE",
"347 411 OFFCURVE",
"264 410 CURVE SMOOTH",
"151 408 OFFCURVE",
"55 347 OFFCURVE",
"55 241 CURVE SMOOTH"
);
},
{
closed = 1;
nodes = (
"151 302 OFFCURVE",
"198 350 OFFCURVE",
"261 350 CURVE SMOOTH",
"315 350 OFFCURVE",
"349 306 OFFCURVE",
"349 244 CURVE SMOOTH",
"349 174 OFFCURVE",
"302 121 OFFCURVE",
"241 121 CURVE SMOOTH",
"189 121 OFFCURVE",
"151 164 OFFCURVE",
"151 227 CURVE SMOOTH"
);
},
{
closed = 1;
nodes = (
"185 105 LINE",
"66 34 LINE",
"66 -21 OFFCURVE",
"144 -61 OFFCURVE",
"210 -62 CURVE SMOOTH",
"269 -63 OFFCURVE",
"326 -63 OFFCURVE",
"385 -64 CURVE SMOOTH",
"460 -65 OFFCURVE",
"535 -88 OFFCURVE",
"535 -148 CURVE SMOOTH",
"535 -210 OFFCURVE",
"459 -251 OFFCURVE",
"349 -251 CURVE SMOOTH",
"234 -251 OFFCURVE",
"153 -195 OFFCURVE",
"153 -131 CURVE SMOOTH",
"153 -99 OFFCURVE",
"174 -76 OFFCURVE",
"222 -58 CURVE",
"175 -49 LINE",
"104 -71 OFFCURVE",
"58 -86 OFFCURVE",
"58 -150 CURVE SMOOTH",
"58 -233 OFFCURVE",
"180 -288 OFFCURVE",
"328 -288 CURVE SMOOTH",
"460 -288 OFFCURVE",
"594 -219 OFFCURVE",
"594 -119 CURVE SMOOTH",
"594 -46 OFFCURVE",
"537 -6 OFFCURVE",
"451 -6 CURVE SMOOTH",
"382 -6 OFFCURVE",
"322 -17 OFFCURVE",
"264 -17 CURVE SMOOTH",
"208 -17 OFFCURVE",
"161 8 OFFCURVE",
"161 36 CURVE SMOOTH",
"161 59 OFFCURVE",
"207 84 OFFCURVE",
"242 84 CURVE"
);
}
);
width = 584;
}
);
},
{
color = 4;
glyphname = h;
lastChange = "2019-04-24 16:48:09 +0000";
layers = (
{
layerId = "31E65565-C22C-4792-86EE-013C6F95D489";
paths = (
{
closed = 1;
nodes = (
"144 258 LINE",
"154 325 OFFCURVE",
"211 352 OFFCURVE",
"255 352 CURVE SMOOTH",
"345 352 OFFCURVE",
"401 267 OFFCURVE",
"401 177 CURVE SMOOTH",
"401 118 OFFCURVE",
"381 61 OFFCURVE",
"343 10 CURVE",
"368 -10 LINE",
"434 57 OFFCURVE",
"488 136 OFFCURVE",
"488 227 CURVE SMOOTH",
"488 327 OFFCURVE",
"411 410 OFFCURVE",
"301 410 CURVE SMOOTH",
"232 410 OFFCURVE",
"183 388 OFFCURVE",
"142 347 CURVE"
);
},
{
closed = 1;
nodes = (
"147 231 OFFCURVE",
"147 391 OFFCURVE",
"151 551 CURVE SMOOTH",
"152 595 OFFCURVE",
"157 666 OFFCURVE",
"161 705 CURVE",
"152 710 LINE",
"104 701 OFFCURVE",
"60 695 OFFCURVE",
"20 689 CURVE",
"20 659 LINE",
"47 656 OFFCURVE",
"54 626 OFFCURVE",
"56 596 CURVE SMOOTH",
"65 421 OFFCURVE",
"65 245 OFFCURVE",
"56 70 CURVE SMOOTH",
"55 52 OFFCURVE",
"42 34 OFFCURVE",
"28 27 CURVE",
"28 -3 LINE",
"53 -1 OFFCURVE",
"84 0 OFFCURVE",
"112 0 CURVE SMOOTH",
"132 0 OFFCURVE",
"158 0 OFFCURVE",
"182 -3 CURVE",
"182 27 LINE",
"162 34 OFFCURVE",
"152 47 OFFCURVE",
"151 71 CURVE SMOOTH"
);
}
);
width = 527;
}
);
leftMetricsKey = l;
unicode = 0068;
},
{
color = 4;
glyphname = h_strok;
lastChange = "2019-04-19 22:04:51 +0000";
layers = (
{
layerId = "31E65565-C22C-4792-86EE-013C6F95D489";
paths = (
{
closed = 1;
nodes = (
"156 231 OFFCURVE",
"156 391 OFFCURVE",
"160 551 CURVE SMOOTH",
"161 595 OFFCURVE",
"166 666 OFFCURVE",
"170 705 CURVE",
"161 710 LINE",
"113 701 OFFCURVE",
"69 695 OFFCURVE",
"29 689 CURVE",
"29 659 LINE",
"56 656 OFFCURVE",
"63 626 OFFCURVE",
"65 596 CURVE SMOOTH",
"74 421 OFFCURVE",
"74 245 OFFCURVE",
"65 70 CURVE SMOOTH",
"64 52 OFFCURVE",
"51 34 OFFCURVE",
"37 27 CURVE",
"37 -3 LINE",
"75 0 OFFCURVE",
"157 1 OFFCURVE",
"191 -3 CURVE",
"191 27 LINE",
"171 34 OFFCURVE",
"161 47 OFFCURVE",
"160 71 CURVE SMOOTH"
);
},
{
closed = 1;
nodes = (
"146 272 LINE",
"170 319 OFFCURVE",
"224 351 OFFCURVE",
"266 351 CURVE SMOOTH",
"341 351 OFFCURVE",
"391 296 OFFCURVE",
"393 208 CURVE SMOOTH",
"396 97 OFFCURVE",
"376 43 OFFCURVE",
"357 27 CURVE",
"356 -3 LINE",
"409 1 OFFCURVE",
"445 0 OFFCURVE",
"536 -3 CURVE",
"537 27 LINE",
"486 43 OFFCURVE",
"484 56 OFFCURVE",
"481 96 CURVE SMOOTH",
"478 142 OFFCURVE",
"477 175 OFFCURVE",
"480 270 CURVE SMOOTH",
"483 359 OFFCURVE",
"430 410 OFFCURVE",
"311 410 CURVE SMOOTH",
"231 410 OFFCURVE",
"175 367 OFFCURVE",
"137 337 CURVE"
);
},
{
closed = 1;
nodes = (
"462 612 LINE",
"429 563 OFFCURVE",
"195 573 OFFCURVE",
"23 557 CURVE",
"19.706 532.201 LINE",
"129 537 OFFCURVE",
"269 537 OFFCURVE",
"423 536 CURVE",
"444 547 OFFCURVE",
"468 579 OFFCURVE",
"484.445 607.93 CURVE"
);
}
);
width = 542;
}
);
leftMetricsKey = h;
},
{
color = 4;
glyphname = h_ring;
lastChange = "2019-04-19 22:04:51 +0000";
layers = (
{
layerId = "31E65565-C22C-4792-86EE-013C6F95D489";
paths = (
{
closed = 1;
nodes = (
"98 243 LINE",
"134 297 OFFCURVE",
"182 327 OFFCURVE",
"241 327 CURVE SMOOTH",
"344 327 OFFCURVE",
"412 262 OFFCURVE",
"412 186 CURVE SMOOTH",
"412 107 OFFCURVE",
"373 72 OFFCURVE",
"305 52 CURVE",
"287 66 OFFCURVE",
"276 78 OFFCURVE",
"259 97 CURVE",
"231 82 LINE",
"249 51 OFFCURVE",
"268 17 OFFCURVE",
"282 -10 CURVE",
"384 10 OFFCURVE",
"500 67 OFFCURVE",
"500 190 CURVE SMOOTH",
"500 304 OFFCURVE",
"400 367 OFFCURVE",
"245 367 CURVE SMOOTH",
"175 367 OFFCURVE",
"126 347 OFFCURVE",
"81 327 CURVE"
);
},
{
closed = 1;
nodes = (
"120 231 OFFCURVE",
"117 451 OFFCURVE",
"121 611 CURVE SMOOTH",
"122 655 OFFCURVE",
"130 659 OFFCURVE",
"167 672 CURVE",
"168 698 LINE",
"20 710 LINE",
"27 521 OFFCURVE",
"42 239 OFFCURVE",
"27 2 CURVE",
"155 -3 LINE",
"160 27 LINE",
"140 34 OFFCURVE",
"125 47 OFFCURVE",
"124 71 CURVE SMOOTH"
);
},
{
closed = 1;
nodes = (
"458 443 OFFCURVE",
"528 493 OFFCURVE",
"527.784 570.197 CURVE SMOOTH",
"528 640 OFFCURVE",
"478 697 OFFCURVE",
"394.466 696.966 CURVE SMOOTH",
"321 697 OFFCURVE",
"261 639 OFFCURVE",
"261 569 CURVE SMOOTH",
"261 490 OFFCURVE",
"321 444 OFFCURVE",
"394.466 443.428 CURVE SMOOTH"
);
},
{
closed = 1;
nodes = (
"342 485 OFFCURVE",
"306 519 OFFCURVE",
"306 566 CURVE SMOOTH",
"306 608 OFFCURVE",
"338 641 OFFCURVE",
"382 642 CURVE SMOOTH",
"428 643 OFFCURVE",
"467 614 OFFCURVE",
"467 566 CURVE SMOOTH",
"467 519 OFFCURVE",
"437 485 OFFCURVE",
"388 485 CURVE SMOOTH"
);
}
);
width = 553;
}
);
leftMetricsKey = h;
rightMetricsKey = p;
},
{
color = 4;
glyphname = i;
lastChange = "2019-04-19 22:04:51 +0000";
layers = (
{
layerId = "31E65565-C22C-4792-86EE-013C6F95D489";
paths = (
{
closed = 1;
nodes = (
"57 357 OFFCURVE",
"65 337 OFFCURVE",
"66 307 CURVE SMOOTH",
"68 239 OFFCURVE",
"68 170 OFFCURVE",
"64 102 CURVE SMOOTH",
"62 60 OFFCURVE",
"60 38 OFFCURVE",
"48 8 CURVE",
"53 -10 LINE",
"95 -5 OFFCURVE",
"152 0 OFFCURVE",
"203 0 CURVE",
"203 30 LINE",
"165 44 OFFCURVE",
"163 58 OFFCURVE",
"162 95 CURVE SMOOTH",
"160 158 OFFCURVE",
"160 220 OFFCURVE",
"162 283 CURVE SMOOTH",
"163 324 OFFCURVE",
"165.872 374.503 OFFCURVE",
"169 405 CURVE",
"162 411 LINE",
"114 402 OFFCURVE",
"70 396 OFFCURVE",
"30 390 CURVE",
"30 360 LINE"
);
},
{
closed = 1;
nodes = (
"60 534 OFFCURVE",
"82 512 OFFCURVE",
"109 512 CURVE SMOOTH",
"136 512 OFFCURVE",
"158 534 OFFCURVE",
"158 562 CURVE SMOOTH",
"158 589 OFFCURVE",
"136 611 OFFCURVE",
"109 611 CURVE SMOOTH",
"82 611 OFFCURVE",
"60 589 OFFCURVE",
"60 562 CURVE SMOOTH"
);
}
);
width = 233;
}
);
unicode = 0069;
},
{
color = 4;
glyphname = idotless;
lastChange = "2019-04-19 22:04:51 +0000";
layers = (
{
layerId = "31E65565-C22C-4792-86EE-013C6F95D489";
paths = (
{
closed = 1;
nodes = (
"57 357 OFFCURVE",
"65 337 OFFCURVE",
"66 307 CURVE SMOOTH",
"68 239 OFFCURVE",
"68 170 OFFCURVE",
"64 102 CURVE SMOOTH",
"62 60 OFFCURVE",
"60 38 OFFCURVE",
"48 8 CURVE",
"53 -10 LINE",
"95 -5 OFFCURVE",
"152 0 OFFCURVE",
"203 0 CURVE",
"203 30 LINE",
"165 44 OFFCURVE",
"163 58 OFFCURVE",
"162 95 CURVE SMOOTH",
"160 158 OFFCURVE",
"160 220 OFFCURVE",
"162 283 CURVE SMOOTH",
"163 324 OFFCURVE",
"165.872 374.503 OFFCURVE",
"169 405 CURVE",
"162 411 LINE",
"114 402 OFFCURVE",
"70 396 OFFCURVE",
"30 390 CURVE",
"30 360 LINE"
);
}
);
width = 233;
}
);
unicode = 0131;
},
{
color = 4;
glyphname = i_hook;
lastChange = "2019-04-19 22:04:51 +0000";
layers = (
{
layerId = "31E65565-C22C-4792-86EE-013C6F95D489";
paths = (
{
closed = 1;
nodes = (
"73 606 OFFCURVE",
"116 591 OFFCURVE",
"116 556 CURVE SMOOTH",
"116 525 OFFCURVE",
"60 500 OFFCURVE",
"17 484 CURVE",
"21 454 LINE",
"128 498 OFFCURVE",
"187 532 OFFCURVE",
"187 597 CURVE SMOOTH",
"187 640 OFFCURVE",
"153 685 OFFCURVE",
"85 701 CURVE",
"21 620 LINE"
);
},
{
closed = 1;
nodes = (
"44 304 OFFCURVE",
"45 255 OFFCURVE",
"44 93 CURVE SMOOTH",
"44 51 OFFCURVE",
"33 43 OFFCURVE",
"-14 23 CURVE",
"-13 -5 LINE",
"29 0 OFFCURVE",
"110 1 OFFCURVE",
"161 0 CURVE",
"161 30 LINE",
"143 44 OFFCURVE",
"138 58 OFFCURVE",
"137 95 CURVE SMOOTH",
"135 158 OFFCURVE",
"135 220 OFFCURVE",
"137 283 CURVE SMOOTH",
"138 324 OFFCURVE",
"141 375 OFFCURVE",
"144 405 CURVE",
"137 411 LINE",
"35 385 LINE"
);
}
);
width = 215;
}
);
},
{
color = 4;
glyphname = i_macr;
lastChange = "2019-04-19 22:04:51 +0000";
layers = (
{
anchors = (
{
name = _top;
position = "{160.55, 340.771}";
},
{
name = top;
position = "{89.828, 607.363}";
}
);
layerId = "31E65565-C22C-4792-86EE-013C6F95D489";
paths = (
{
closed = 1;
nodes = (
"54 357 OFFCURVE",
"62 337 OFFCURVE",
"63 307 CURVE SMOOTH",
"65 239 OFFCURVE",
"65 170 OFFCURVE",
"61 102 CURVE SMOOTH",
"59 60 OFFCURVE",
"57 38 OFFCURVE",
"45 8 CURVE",
"50 -10 LINE",
"92 -5 OFFCURVE",
"149 0 OFFCURVE",
"180 0 CURVE",
"180 30 LINE",
"162 64 OFFCURVE",
"156 112 OFFCURVE",
"156 179 CURVE SMOOTH",
"156 263 OFFCURVE",
"156 327 OFFCURVE",
"166 405 CURVE",
"159 411 LINE",
"111 402 OFFCURVE",
"67 396 OFFCURVE",
"27 390 CURVE",
"27 360 LINE"
);
},
{
closed = 1;
nodes = (
"52 587 LINE",
"126 579 OFFCURVE",
"213 572 OFFCURVE",
"222 663 CURVE",
"251 660 LINE",
"242 597 OFFCURVE",
"218 538 OFFCURVE",
"197 505 CURVE",
"137 502 OFFCURVE",
"61 496 OFFCURVE",
"40 465 CURVE",
"15 474 LINE"
);
}
);
width = 259;
}
);
unicode = 012B;
},
{
color = 4;
glyphname = i_ring;
lastChange = "2019-04-19 22:04:51 +0000";
layers = (
{
layerId = "31E65565-C22C-4792-86EE-013C6F95D489";
paths = (
{
closed = 1;
nodes = (
"183 475 OFFCURVE",
"246 520 OFFCURVE",
"245 590 CURVE SMOOTH",
"244 654 OFFCURVE",
"201 705 OFFCURVE",
"125 705 CURVE SMOOTH",
"58 705 OFFCURVE",
"4 653 OFFCURVE",
"4 590 CURVE SMOOTH",
"4 518 OFFCURVE",
"58 477 OFFCURVE",
"125 476 CURVE SMOOTH"
);
},
{
closed = 1;
nodes = (
"88 516 OFFCURVE",
"57 546 OFFCURVE",
"57 586 CURVE SMOOTH",
"57 623 OFFCURVE",
"85 653 OFFCURVE",
"124 653 CURVE SMOOTH",
"161 653 OFFCURVE",
"197 628 OFFCURVE",
"197 586 CURVE SMOOTH",
"197 546 OFFCURVE",
"170 516 OFFCURVE",
"128 516 CURVE SMOOTH"
);
},
{
closed = 1;
nodes = (
"70 362 OFFCURVE",
"65 362 OFFCURVE",
"66 317 CURVE SMOOTH",
"68 249 OFFCURVE",
"68 170 OFFCURVE",
"64 102 CURVE SMOOTH",
"62 60 OFFCURVE",
"57 28 OFFCURVE",
"55 -2 CURVE",
"73 -16 LINE",
"105 -1 OFFCURVE",
"123 10 OFFCURVE",
"162 27 CURVE",
"160 90 OFFCURVE",
"160 220 OFFCURVE",
"162 283 CURVE SMOOTH",
"163 324 OFFCURVE",
"166 367 OFFCURVE",
"169 397 CURVE",
"166 403 LINE",
"118 403 OFFCURVE",
"63 403 OFFCURVE",
"13 400 CURVE",
"13 370 LINE"
);
}
);
width = 230;
}
);
},
{
color = 6;
glyphname = j;
lastChange = "2019-04-19 22:04:51 +0000";
layers = (
{
layerId = "31E65565-C22C-4792-86EE-013C6F95D489";
paths = (
{
closed = 1;
nodes = (
"67 357 OFFCURVE",
"75 337 OFFCURVE",
"76 307 CURVE SMOOTH",
"78 239 OFFCURVE",
"74 88 OFFCURVE",
"71 20 CURVE SMOOTH",
"69 -22 OFFCURVE",
"65 -94 OFFCURVE",
"30 -177 CURVE",
"59 -195 LINE",
"116 -95 OFFCURVE",
"168 2 OFFCURVE",
"167 105 CURVE SMOOTH",
"166 168 OFFCURVE",
"170 220 OFFCURVE",
"172 283 CURVE SMOOTH",
"173 324 OFFCURVE",
"176 375 OFFCURVE",
"179 405 CURVE",
"172 411 LINE",
"124 402 OFFCURVE",
"80 396 OFFCURVE",
"40 390 CURVE",
"40 360 LINE"
);
},
{
closed = 1;
nodes = (
"70 534 OFFCURVE",
"92 512 OFFCURVE",
"119 512 CURVE SMOOTH",
"146 512 OFFCURVE",
"168 534 OFFCURVE",
"168 562 CURVE SMOOTH",
"168 589 OFFCURVE",
"146 611 OFFCURVE",
"119 611 CURVE SMOOTH",
"92 611 OFFCURVE",
"70 589 OFFCURVE",
"70 562 CURVE SMOOTH"
);
}
);
width = 234;
}
);
leftMetricsKey = i;
unicode = 006A;
},
{
color = 4;
glyphname = k;
lastChange = "2019-04-24 16:48:14 +0000";
layers = (
{
layerId = "31E65565-C22C-4792-86EE-013C6F95D489";
paths = (
{
closed = 1;
nodes = (
"80 679 LINE",
"120 685 OFFCURVE",
"194 701 OFFCURVE",
"242 710 CURVE",
"249 704 LINE",
"245 665 OFFCURVE",
"243 594 OFFCURVE",
"241 550 CURVE SMOOTH",
"234 397 OFFCURVE",
"234 243 OFFCURVE",
"234 90 CURVE SMOOTH",
"234 55 OFFCURVE",
"254 41 OFFCURVE",
"296 27 CURVE",
"296 -3 LINE",
"252 -1 OFFCURVE",
"152 0 OFFCURVE",
"91 -3 CURVE",
"92 27 LINE",
"134 41 OFFCURVE",
"146 55 OFFCURVE",
"147 90 CURVE SMOOTH",
"153 292 OFFCURVE",
"151 449 OFFCURVE",
"146 586 CURVE SMOOTH",
"144 636 OFFCURVE",
"107 646 OFFCURVE",
"80 649 CURVE"
);
},
{
closed = 1;
nodes = (
"352 237 LINE",
"352 205 LINE",
"198 205 LINE",
"198 237 LINE"
);
},
{
closed = 1;
nodes = (
"374 248 LINE",
"501 70 LINE SMOOTH",
"518 46 OFFCURVE",
"545 24 OFFCURVE",
"566 14 CURVE",
"559 -12 LINE",
"520 -6 OFFCURVE",
"481 -2 OFFCURVE",
"442 0 CURVE",
"314 205 LINE"
);
},
{
closed = 1;
nodes = (
"367 288 LINE SMOOTH",
"390 314 OFFCURVE",
"403 354 OFFCURVE",
"325 375 CURVE",
"326 400 LINE",
"526 401 LINE",
"525 376 LINE",
"460 341 OFFCURVE",
"398 265 OFFCURVE",
"333 210 CURVE",
"314 226 LINE"
);
}
);
width = 600;
}
);
unicode = 006B;
},
{
color = 4;
glyphname = l;
lastChange = "2019-04-24 16:48:09 +0000";
layers = (
{
layerId = "31E65565-C22C-4792-86EE-013C6F95D489";
paths = (
{
closed = 1;
nodes = (
"47 656 OFFCURVE",
"54 636 OFFCURVE",
"56 586 CURVE SMOOTH",
"61 449 OFFCURVE",
"61 302 OFFCURVE",
"58 150 CURVE SMOOTH",
"56 67 OFFCURVE",
"48 17 OFFCURVE",
"49 9 CURVE SMOOTH",
"50 -2 LINE",
"68 -1 OFFCURVE",
"93 0 OFFCURVE",
"111 0 CURVE SMOOTH",
"131 0 OFFCURVE",
"162 -1 OFFCURVE",
"206 -3 CURVE",
"206 32 LINE",
"164 46 OFFCURVE",
"144 55 OFFCURVE",
"144 90 CURVE SMOOTH",
"144 243 OFFCURVE",
"145 397 OFFCURVE",
"151 550 CURVE SMOOTH",
"153 594 OFFCURVE",
"155 665 OFFCURVE",
"159 704 CURVE",
"152 710 LINE",
"104 701 OFFCURVE",
"60 695 OFFCURVE",
"20 689 CURVE",
"20 659 LINE"
);
}
);
width = 231;
}
);
unicode = 006C;
},
{
color = 4;
glyphname = l_strok;
lastChange = "2019-04-24 16:48:14 +0000";
layers = (
{
components = (
{
name = l;
}
);
layerId = "31E65565-C22C-4792-86EE-013C6F95D489";
paths = (
{
closed = 1;
nodes = (
"217 601 OFFCURVE",
"256 582 OFFCURVE",
"256 526 CURVE SMOOTH",
"256 473 OFFCURVE",
"196 399 OFFCURVE",
"15 374 CURVE",
"17 368 LINE",
"45 353 LINE",
"195 367 OFFCURVE",
"333 470 OFFCURVE",
"333 577 CURVE SMOOTH",
"333 624 OFFCURVE",
"305 660 OFFCURVE",
"234 691 CURVE",
"165 628 LINE",
"163 619 LINE"
);
}
);
width = 391;
}
);
unicode = A769;
},
{
color = 4;
glyphname = m;
lastChange = "2019-04-24 16:48:09 +0000";
layers = (
{
layerId = "31E65565-C22C-4792-86EE-013C6F95D489";
paths = (
{
closed = 1;
nodes = (
"52 327 OFFCURVE",
"60 321 OFFCURVE",
"60 282 CURVE SMOOTH",
"60 212 OFFCURVE",
"58 105 OFFCURVE",
"55 78 CURVE SMOOTH",
"52 53 OFFCURVE",
"47 40 OFFCURVE",
"32 27 CURVE",
"32 -3 LINE",
"52 -1 OFFCURVE",
"155 -1 OFFCURVE",
"183 -3 CURVE",
"183 27 LINE",
"157 47 OFFCURVE",
"159 63 OFFCURVE",
"156 96 CURVE SMOOTH",
"153 126 OFFCURVE",
"154 201 OFFCURVE",
"159 244 CURVE SMOOTH",
"166 299 OFFCURVE",
"193 347 OFFCURVE",
"250 347 CURVE SMOOTH",
"309 347 OFFCURVE",
"328 303 OFFCURVE",
"331 235 CURVE SMOOTH",
"333 186 OFFCURVE",
"329 113 OFFCURVE",
"326 78 CURVE SMOOTH",
"323 47 OFFCURVE",
"312 37 OFFCURVE",
"286 27 CURVE",
"286 -3 LINE",
"338 1 OFFCURVE",
"425 0 OFFCURVE",
"474 -3 CURVE",
"474 27 LINE",
"451 36 OFFCURVE",
"436 45 OFFCURVE",
"433 71 CURVE SMOOTH",
"428 118 OFFCURVE",
"423 206 OFFCURVE",
"431 266 CURVE SMOOTH",
"437 310 OFFCURVE",
"465 347 OFFCURVE",
"514 347 CURVE SMOOTH",
"582 347 OFFCURVE",
"602 290 OFFCURVE",
"606 235 CURVE SMOOTH",
"609 189 OFFCURVE",
"607 138 OFFCURVE",
"604 96 CURVE SMOOTH",
"602 61 OFFCURVE",
"597 43 OFFCURVE",
"578 27 CURVE",
"578 -3 LINE",
"630 1 OFFCURVE",
"667 0 OFFCURVE",
"726 -3 CURVE",
"726 27 LINE",
"705 43 OFFCURVE",
"705 56 OFFCURVE",
"703 96 CURVE SMOOTH",
"701 142 OFFCURVE",
"700 193 OFFCURVE",
"702 261 CURVE SMOOTH",
"704 338 OFFCURVE",
"673 410 OFFCURVE",
"563 410 CURVE SMOOTH",
"518 410 OFFCURVE",
"470 387 OFFCURVE",
"422 338 CURVE",
"397 385 OFFCURVE",
"365 410 OFFCURVE",
"299 410 CURVE SMOOTH",
"248 410 OFFCURVE",
"198 384 OFFCURVE",
"158 342 CURVE",
"159 400 LINE",
"148 410 LINE",
"103 391 OFFCURVE",
"61 374 OFFCURVE",
"25 363 CURVE",
"25 333 LINE"
);
}
);
width = 751;
}
);
leftMetricsKey = n;
rightMetricsKey = n;
unicode = 006D;
},
{
color = 4;
glyphname = m_macr;
lastChange = "2019-04-22 14:27:35 +0000";
layers = (
{
anchors = (
{
name = _top;
position = "{440, 353}";
},
{
name = top;
position = "{431, 626}";
}
);
components = (
{
alignment = -1;
name = m;
}
);
layerId = "31E65565-C22C-4792-86EE-013C6F95D489";
paths = (
{
closed = 1;
nodes = (
"386 605 LINE",
"464 605 OFFCURVE",
"520 586 OFFCURVE",
"594 637 CURVE",
"622 629 LINE",
"512 495 LINE",
"451 501 OFFCURVE",
"376 521 OFFCURVE",
"327 497 CURVE",
"303 510 LINE"
);
}
);
width = 748;
}
);
unicode = E5B8;
},
{
color = 4;
glyphname = m_urrot;
lastChange = "2019-04-22 14:42:03 +0000";
layers = (
{
components = (
{
name = m;
}
);
layerId = "31E65565-C22C-4792-86EE-013C6F95D489";
paths = (
{
closed = 1;
nodes = (
"325 745 LINE",
"455 750 LINE",
"459 745 LINE",
"445 619 LINE SMOOTH",
"439 569 OFFCURVE",
"446 569 OFFCURVE",
"489 565 CURVE",
"488 540 LINE",
"376 520 LINE",
"371 526 LINE",
"369 667 LINE SMOOTH",
"368 714 OFFCURVE",
"360 714 OFFCURVE",
"324 714 CURVE"
);
}
);
width = 751;
}
);
leftMetricsKey = m;
rightMetricsKey = m;
},
{
color = 4;
glyphname = m_urrot.ss01;
lastChange = "2019-04-19 22:04:51 +0000";
layers = (
{
components = (
{
name = m;
}
);
layerId = "31E65565-C22C-4792-86EE-013C6F95D489";
paths = (
{
closed = 1;
nodes = (
"428 720 OFFCURVE",
"470 731 OFFCURVE",
"504 731 CURVE",
"539 731 OFFCURVE",
"571 671 OFFCURVE",
"571 629 CURVE",
"510 597 OFFCURVE",
"465 570 OFFCURVE",
"465 549 CURVE SMOOTH",
"465 512 OFFCURVE",
"535 511 OFFCURVE",
"640 572 CURVE",
"677 556 LINE",
"678 552 LINE",
"633 522 OFFCURVE",
"575 492 OFFCURVE",
"496 492 CURVE SMOOTH",
"458 492 OFFCURVE",
"403 503 OFFCURVE",
"403 552 CURVE SMOOTH",
"403 612 OFFCURVE",
"459 618 OFFCURVE",
"489 650 CURVE",
"489 684 OFFCURVE",
"456 688 OFFCURVE",
"413 679 CURVE",
"404 706 LINE"
);
}
);
width = 800;
}
);
},
{
color = 4;
glyphname = n;
lastChange = "2019-04-24 16:48:09 +0000";
layers = (
{
layerId = "31E65565-C22C-4792-86EE-013C6F95D489";
paths = (
{
closed = 1;
nodes = (
"149 272 LINE",
"173 319 OFFCURVE",
"207 341 OFFCURVE",
"249 341 CURVE SMOOTH",
"294 341 OFFCURVE",
"330 314 OFFCURVE",
"335 276 CURVE SMOOTH",
"340 235 OFFCURVE",
"339 137 OFFCURVE",
"335 96 CURVE SMOOTH",
"332 61 OFFCURVE",
"329 43 OFFCURVE",
"310 27 CURVE",
"309 -3 LINE",
"362 1 OFFCURVE",
"398 0 OFFCURVE",
"459 -3 CURVE",
"460 27 LINE",
"439 43 OFFCURVE",
"437 56 OFFCURVE",
"434 96 CURVE SMOOTH",
"431 142 OFFCURVE",
"427 215 OFFCURVE",
"433 310 CURVE SMOOTH",
"436 359 OFFCURVE",
"383 410 OFFCURVE",
"294 410 CURVE SMOOTH",
"264 410 OFFCURVE",
"208 378 OFFCURVE",
"140 337 CURVE"
);
},
{
closed = 1;
nodes = (
"159 400 LINE",
"149 409 LINE",
"109 392 OFFCURVE",
"67 376 OFFCURVE",
"25 363 CURVE",
"25 333 LINE",
"56 327 OFFCURVE",
"64 321 OFFCURVE",
"64 282 CURVE SMOOTH",
"64 212 OFFCURVE",
"62 105 OFFCURVE",
"59 78 CURVE SMOOTH",
"56 53 OFFCURVE",
"51 40 OFFCURVE",
"36 27 CURVE",
"36 -3 LINE",
"75 1 OFFCURVE",
"142 0 OFFCURVE",
"187 -3 CURVE",
"187 27 LINE",
"161 47 OFFCURVE",
"163 63 OFFCURVE",
"160 96 CURVE SMOOTH",
"156 131 OFFCURVE",
"159 319 OFFCURVE",
"157 319 CURVE"
);
}
);
width = 485;
}
);
unicode = 006E;
},
{
color = 4;
glyphname = n_macr;
lastChange = "2019-04-19 22:04:51 +0000";
layers = (
{
anchors = (
{
name = _top;
position = "{259, 421}";
},
{
name = top;
position = "{250, 630}";
}
);
layerId = "31E65565-C22C-4792-86EE-013C6F95D489";
paths = (
{
closed = 1;
nodes = (
"225 617 LINE",
"303 617 OFFCURVE",
"371 608 OFFCURVE",
"415 667 CURVE",
"424 667 LINE",
"423 622 LINE",
"301 530 LINE",
"240 534 OFFCURVE",
"185 547 OFFCURVE",
"146 531 CURVE",
"122 541 LINE"
);
},
{
closed = 1;
nodes = (
"149 292 LINE",
"173 319 OFFCURVE",
"217 346 OFFCURVE",
"279 346 CURVE SMOOTH",
"343 346 OFFCURVE",
"385 314 OFFCURVE",
"385 223 CURVE SMOOTH",
"385 156 OFFCURVE",
"383 55 OFFCURVE",
"350 27 CURVE",
"349 -3 LINE",
"402 1 OFFCURVE",
"438 0 OFFCURVE",
"499 -3 CURVE",
"500 27 LINE",
"479 43 OFFCURVE",
"477 56 OFFCURVE",
"474 96 CURVE SMOOTH",
"471 142 OFFCURVE",
"468 212 OFFCURVE",
"473 307 CURVE SMOOTH",
"476 366 OFFCURVE",
"423 410 OFFCURVE",
"334 410 CURVE SMOOTH",
"264 410 OFFCURVE",
"208 378 OFFCURVE",
"140 337 CURVE"
);
},
{
closed = 1;
nodes = (
"159 400 LINE",
"149 409 LINE",
"109 392 OFFCURVE",
"67 376 OFFCURVE",
"25 363 CURVE",
"25 333 LINE",
"56 327 OFFCURVE",
"64 321 OFFCURVE",
"64 282 CURVE SMOOTH",
"64 212 OFFCURVE",
"62 105 OFFCURVE",
"59 78 CURVE SMOOTH",
"56 53 OFFCURVE",
"51 40 OFFCURVE",
"36 27 CURVE",
"36 -3 LINE",
"75 1 OFFCURVE",
"142 0 OFFCURVE",
"187 -3 CURVE",
"187 27 LINE",
"161 47 OFFCURVE",
"163 63 OFFCURVE",
"160 96 CURVE SMOOTH",
"156 131 OFFCURVE",
"159 319 OFFCURVE",
"157 319 CURVE"
);
}
);
width = 525;
}
);
leftMetricsKey = n;
rightMetricsKey = n;
unicode = E5DC;
},
{
color = 4;
glyphname = n_urrot;
lastChange = "2019-04-19 22:04:51 +0000";
layers = (
{
layerId = "31E65565-C22C-4792-86EE-013C6F95D489";
paths = (
{
closed = 1;
nodes = (
"140 714 LINE",
"270 719 LINE",
"274 714 LINE",
"260 588 LINE SMOOTH",
"254 538 OFFCURVE",
"261 538 OFFCURVE",
"304 534 CURVE",
"303 509 LINE",
"191 489 LINE",
"186 495 LINE",
"184 636 LINE SMOOTH",
"183 683 OFFCURVE",
"175 683 OFFCURVE",
"139 683 CURVE"
);
},
{
closed = 1;
nodes = (
"122 302 LINE",
"160 331 OFFCURVE",
"200 342 OFFCURVE",
"242 342 CURVE SMOOTH",
"321 342 OFFCURVE",
"327 288 OFFCURVE",
"326 179 CURVE SMOOTH",
"325 88 OFFCURVE",
"321 43 OFFCURVE",
"302 27 CURVE",
"301 -3 LINE",
"325 -1 OFFCURVE",
"417 -2 OFFCURVE",
"440 -3 CURVE",
"441 27 LINE",
"420 43 OFFCURVE",
"418 56 OFFCURVE",
"415 96 CURVE SMOOTH",
"412 142 OFFCURVE",
"417 240 OFFCURVE",
"412 335 CURVE SMOOTH",
"410 374 OFFCURVE",
"356 413 OFFCURVE",
"320 413 CURVE SMOOTH",
"290 413 OFFCURVE",
"181 378 OFFCURVE",
"113 337 CURVE"
);
},
{
closed = 1;
nodes = (
"127 144 OFFCURVE",
"122 311 OFFCURVE",
"132 400 CURVE",
"122 409 LINE",
"82 392 OFFCURVE",
"50 376 OFFCURVE",
"28 363 CURVE",
"32 275 OFFCURVE",
"33 67 OFFCURVE",
"25 -6 CURVE",
"160 -3 LINE",
"160 27 LINE",
"134 47 OFFCURVE",
"136 63 OFFCURVE",
"133 96 CURVE SMOOTH"
);
}
);
width = 466;
}
);
leftMetricsKey = n;
rightMetricsKey = n;
},
{
color = 4;
glyphname = o;
lastChange = "2019-04-24 16:48:09 +0000";
layers = (
{
anchors = (
{
name = bottom;
position = "{234, 0}";
},
{
name = center;
position = "{234, 200}";
},
{
name = ogonek;
position = "{421, 10}";
},
{
name = top;
position = "{234, 400}";
},
{
name = topright;
position = "{448, 400}";
}
);
layerId = "31E65565-C22C-4792-86EE-013C6F95D489";
paths = (
{
closed = 1;
nodes = (
"359 -10 OFFCURVE",
"443 80 OFFCURVE",
"443 197 CURVE SMOOTH",
"443 324 OFFCURVE",
"349 410 OFFCURVE",
"224 410 CURVE SMOOTH",
"101 410 OFFCURVE",
"25 314 OFFCURVE",
"25 197 CURVE SMOOTH",
"25 70 OFFCURVE",
"119 -10 OFFCURVE",
"244 -10 CURVE SMOOTH"
);
},
{
closed = 1;
nodes = (
"348 101 OFFCURVE",
"304 33 OFFCURVE",
"244 33 CURVE SMOOTH",
"168 33 OFFCURVE",
"119 114 OFFCURVE",
"119 219 CURVE SMOOTH",
"119 319 OFFCURVE",
"166 366 OFFCURVE",
"228 366 CURVE SMOOTH",
"298 366 OFFCURVE",
"348 280 OFFCURVE",
"348 187 CURVE SMOOTH"
);
}
);
width = 468;
}
);
unicode = 006F;
},
{
color = 4;
glyphname = o_hook;
lastChange = "2019-04-19 22:04:51 +0000";
layers = (
{
components = (
{
name = o;
}
);
layerId = "31E65565-C22C-4792-86EE-013C6F95D489";
paths = (
{
closed = 1;
nodes = (
"310 547 OFFCURVE",
"340 493 OFFCURVE",
"271 493 CURVE SMOOTH",
"240 493 OFFCURVE",
"195 511 OFFCURVE",
"165 524 CURVE",
"146 499 LINE",
"210 474 OFFCURVE",
"259 457 OFFCURVE",
"299 457 CURVE SMOOTH",
"391 457 OFFCURVE",
"413 536 OFFCURVE",
"358 626 CURVE",
"253 612 LINE"
);
}
);
width = 468;
}
);
},
{
color = 4;
glyphname = o_macr;
lastChange = "2019-04-22 14:27:26 +0000";
layers = (
{
anchors = (
{
name = _top;
position = "{234.092, 395.343}";
},
{
name = top;
position = "{177.822, 662.633}";
}
);
components = (
{
name = o;
}
);
layerId = "31E65565-C22C-4792-86EE-013C6F95D489";
paths = (
{
closed = 1;
nodes = (
"137.152 634.138 LINE",
"213.968 647.682 OFFCURVE",
"272.416 638.695 OFFCURVE",
"336.436 701.771 CURVE",
"365.4 698.754 LINE",
"280.34 547.688 LINE",
"219.225 543.005 OFFCURVE",
"141.891 549.677 OFFCURVE",
"97.803 517.533 CURVE",
"71.91 526.168 LINE"
);
}
);
width = 468;
}
);
unicode = 014D;
},
{
color = 4;
glyphname = o_ra;
lastChange = "2019-04-19 22:04:51 +0000";
layers = (
{
components = (
{
name = o;
transform = "{1, 0, 0, 1, 9, 0}";
}
);
layerId = "31E65565-C22C-4792-86EE-013C6F95D489";
paths = (
{
closed = 1;
nodes = (
"29 558 OFFCURVE",
"46 611 OFFCURVE",
"76 647 CURVE",
"85 644 LINE",
"105 619 OFFCURVE",
"144 575 OFFCURVE",
"181 575 CURVE SMOOTH",
"216 575 OFFCURVE",
"258 617 OFFCURVE",
"277 638 CURVE",
"287 636 LINE",
"313 587 OFFCURVE",
"344 555 OFFCURVE",
"383 555 CURVE SMOOTH",
"424 555 OFFCURVE",
"453 575 OFFCURVE",
"487 633 CURVE",
"504 614 LINE",
"470 536 OFFCURVE",
"385 492 OFFCURVE",
"299 492 CURVE",
"280 521 OFFCURVE",
"257 552 OFFCURVE",
"223 574 CURVE",
"249 565 LINE",
"220 556 OFFCURVE",
"183 541 OFFCURVE",
"146 504 CURVE",
"126 514 OFFCURVE",
"90 538 OFFCURVE",
"65 553 CURVE",
"52 540 OFFCURVE",
"52 523 OFFCURVE",
"48 510 CURVE",
"29 514 LINE"
);
}
);
width = 525;
}
);
},
{
color = 4;
glyphname = o_tilde;
lastChange = "2019-04-22 14:27:30 +0000";
layers = (
{
components = (
{
name = o;
}
);
layerId = "31E65565-C22C-4792-86EE-013C6F95D489";
paths = (
{
closed = 1;
nodes = (
"95 531 OFFCURVE",
"119 606 OFFCURVE",
"164 606 CURVE SMOOTH",
"201 606 OFFCURVE",
"251 576 OFFCURVE",
"282 576 CURVE SMOOTH",
"308 576 OFFCURVE",
"311 593 OFFCURVE",
"328 614 CURVE",
"356 606 LINE",
"345 557 OFFCURVE",
"322 489 OFFCURVE",
"290 489 CURVE SMOOTH",
"248 489 OFFCURVE",
"196 523 OFFCURVE",
"168 523 CURVE SMOOTH",
"141 523 OFFCURVE",
"131 508 OFFCURVE",
"121 484 CURVE",
"95 492 LINE"
);
}
);
width = 468;
}
);
},
{
color = 4;
glyphname = p;
lastChange = "2019-04-24 16:48:09 +0000";
layers = (
{
guideLines = (
{
angle = 270;
position = "{23, 360}";
}
);
hints = (
{
place = "{-3.762, 0}";
type = Stem;
}
);
layerId = "31E65565-C22C-4792-86EE-013C6F95D489";
paths = (
{
closed = 1;
nodes = (
"51 330 OFFCURVE",
"66 326 OFFCURVE",
"71 250 CURVE SMOOTH",
"77 163 OFFCURVE",
"74 -106 OFFCURVE",
"69 -195 CURVE SMOOTH",
"67 -231 OFFCURVE",
"58 -242 OFFCURVE",
"35 -253 CURVE",
"35 -283 LINE",
"50 -281 OFFCURVE",
"97 -280 OFFCURVE",
"114 -280 CURVE SMOOTH",
"133 -280 OFFCURVE",
"174 -282 OFFCURVE",
"199 -283 CURVE",
"199 -253 LINE",
"182 -244 OFFCURVE",
"164 -238 OFFCURVE",
"164 -207 CURVE SMOOTH",
"162 22 LINE",
"188 7 OFFCURVE",
"224 -8 OFFCURVE",
"270 -8 CURVE SMOOTH",
"392 -8 OFFCURVE",
"483 97 OFFCURVE",
"483 217 CURVE SMOOTH",
"483 327 OFFCURVE",
"420 408 OFFCURVE",
"320 408 CURVE SMOOTH",
"276 408 OFFCURVE",
"210 364 OFFCURVE",
"161 328 CURVE",
"164 401 LINE",
"152 410 LINE",
"107 394 OFFCURVE",
"72 381 OFFCURVE",
"25 370 CURVE",
"25 340 LINE"
);
},
{
closed = 1;
nodes = (
"204 40 OFFCURVE",
"162 117 OFFCURVE",
"162 203 CURVE SMOOTH",
"162 299 OFFCURVE",
"211 340 OFFCURVE",
"260 340 CURVE SMOOTH",
"329 340 OFFCURVE",
"386 277 OFFCURVE",
"386 177 CURVE SMOOTH",
"386 109 OFFCURVE",
"359 40 OFFCURVE",
"289 40 CURVE SMOOTH"
);
}
);
width = 508;
}
);
leftMetricsKey = n;
rightMetricsKey = o;
unicode = 0070;
},
{
color = 4;
glyphname = p_bardes;
lastChange = "2019-04-19 22:04:51 +0000";
layers = (
{
components = (
{
name = p;
transform = "{1, 0, 0, 1, 42, 0}";
}
);
layerId = "31E65565-C22C-4792-86EE-013C6F95D489";
paths = (
{
closed = 1;
nodes = (
"40 -82 LINE",
"87 -75 OFFCURVE",
"214 -85 OFFCURVE",
"412 -129 CURVE",
"418 -125 LINE",
"409 -96 LINE",
"311 -78 OFFCURVE",
"216 -51 OFFCURVE",
"69 -26 CURVE",
"60 -38 OFFCURVE",
"35 -64 OFFCURVE",
"25 -74 CURVE"
);
}
);
width = 550;
}
);
leftMetricsKey = p;
rightMetricsKey = o;
},
{
color = 4;
glyphname = p_flour;
lastChange = "2019-04-22 14:28:16 +0000";
layers = (
{
components = (
{
alignment = -1;
name = p;
transform = "{1, 0, 0, 1, 110, 0}";
}
);
layerId = "31E65565-C22C-4792-86EE-013C6F95D489";
paths = (
{
closed = 1;
nodes = (
"86 37 OFFCURVE",
"10 -29 OFFCURVE",
"10 -89 CURVE SMOOTH",
"10 -122 OFFCURVE",
"26 -155 OFFCURVE",
"55 -179 CURVE",
"122 -170 OFFCURVE",
"171 -152 OFFCURVE",
"225 -121 CURVE",
"222 -99 LINE",
"147 -99 OFFCURVE",
"111 -86 OFFCURVE",
"111 -47 CURVE SMOOTH",
"111 -13 OFFCURVE",
"146 19 OFFCURVE",
"209 52 CURVE",
"190 74 LINE"
);
}
);
width = 618;
}
);
rightMetricsKey = o;
unicode = A752;
},
{
color = 4;
glyphname = p_p_flour;
lastChange = "2019-04-22 14:28:19 +0000";
layers = (
{
hints = (
{
place = "{932.238, 0}";
type = Stem;
},
{
place = "{612.238, 0}";
type = Stem;
}
);
layerId = "31E65565-C22C-4792-86EE-013C6F95D489";
paths = (
{
closed = 1;
nodes = (
"600 40 OFFCURVE",
"558 117 OFFCURVE",
"558 203 CURVE SMOOTH",
"558 279 OFFCURVE",
"607 320 OFFCURVE",
"666 320 CURVE SMOOTH",
"725 320 OFFCURVE",
"782 267 OFFCURVE",
"782 177 CURVE SMOOTH",
"782 109 OFFCURVE",
"755 40 OFFCURVE",
"685 40 CURVE SMOOTH"
);
},
{
closed = 1;
nodes = (
"292 40 OFFCURVE",
"268 97 OFFCURVE",
"268 183 CURVE SMOOTH",
"268 249 OFFCURVE",
"302 310 OFFCURVE",
"366 310 CURVE SMOOTH",
"405 310 OFFCURVE",
"462 277 OFFCURVE",
"462 177 CURVE SMOOTH",
"462 109 OFFCURVE",
"435 40 OFFCURVE",
"365 40 CURVE SMOOTH"
);
},
{
closed = 1;
nodes = (
"157 330 OFFCURVE",
"172 326 OFFCURVE",
"177 250 CURVE SMOOTH",
"183 163 OFFCURVE",
"180 -106 OFFCURVE",
"175 -195 CURVE SMOOTH",
"173 -231 OFFCURVE",
"164 -242 OFFCURVE",
"141 -253 CURVE",
"141 -283 LINE",
"156 -281 OFFCURVE",
"203 -280 OFFCURVE",
"220 -280 CURVE SMOOTH",
"239 -280 OFFCURVE",
"280 -282 OFFCURVE",
"305 -283 CURVE",
"305 -253 LINE",
"288 -244 OFFCURVE",
"270 -238 OFFCURVE",
"270 -207 CURVE",
"268 22 LINE",
"294 7 OFFCURVE",
"330 -8 OFFCURVE",
"366 -8 CURVE SMOOTH",
"393 -8 OFFCURVE",
"436 -2 OFFCURVE",
"470 24 CURVE",
"470 -67 OFFCURVE",
"468 -150 OFFCURVE",
"465 -195 CURVE SMOOTH",
"463 -231 OFFCURVE",
"454 -242 OFFCURVE",
"431 -253 CURVE",
"431 -283 LINE",
"446 -281 OFFCURVE",
"493 -280 OFFCURVE",
"510 -280 CURVE SMOOTH",
"529 -280 OFFCURVE",
"570 -282 OFFCURVE",
"595 -283 CURVE",
"595 -253 LINE",
"578 -244 OFFCURVE",
"560 -238 OFFCURVE",
"560 -207 CURVE",
"558 22 LINE",
"584 7 OFFCURVE",
"620 -8 OFFCURVE",
"666 -8 CURVE SMOOTH",
"788 -8 OFFCURVE",
"879 97 OFFCURVE",
"879 217 CURVE SMOOTH",
"879 327 OFFCURVE",
"816 408 OFFCURVE",
"716 408 CURVE SMOOTH",
"672 408 OFFCURVE",
"606 364 OFFCURVE",
"557 328 CURVE",
"560 401 LINE",
"548 410 LINE",
"440 377 OFFCURVE",
"353 353 OFFCURVE",
"267 328 CURVE",
"270 401 LINE",
"258 410 LINE",
"213 394 OFFCURVE",
"178 381 OFFCURVE",
"131 370 CURVE",
"131 340 LINE"
);
},
{
closed = 1;
nodes = (
"76 37 OFFCURVE",
"0 -29 OFFCURVE",
"0 -89 CURVE SMOOTH",
"0 -122 OFFCURVE",
"16 -155 OFFCURVE",
"45 -179 CURVE",
"112 -170 OFFCURVE",
"161 -152 OFFCURVE",
"215 -121 CURVE",
"212 -99 LINE",
"137 -99 OFFCURVE",
"101 -86 OFFCURVE",
"101 -47 CURVE SMOOTH",
"101 -13 OFFCURVE",
"136 19 OFFCURVE",
"199 52 CURVE",
"180 74 LINE"
);
}
);
width = 904;
}
);
rightMetricsKey = p;
unicode = EED7;
},
{
color = 4;
glyphname = p_macr;
lastChange = "2019-04-19 22:04:51 +0000";
layers = (
{
anchors = (
{
name = _top;
position = "{333, 360}";
},
{
name = top;
position = "{324, 633}";
}
);
components = (
{
name = p;
}
);
layerId = "31E65565-C22C-4792-86EE-013C6F95D489";
paths = (
{
closed = 1;
nodes = (
"289 612 LINE",
"367 612 OFFCURVE",
"403 564 OFFCURVE",
"487 644 CURVE",
"512 628 LINE",
"375 502 LINE",
"314 508 OFFCURVE",
"269 528 OFFCURVE",
"220 504 CURVE",
"196 517 LINE"
);
}
);
width = 506;
}
);
unicode = E665;
},
{
color = 4;
glyphname = p_ra;
lastChange = "2019-04-19 22:04:51 +0000";
layers = (
{
components = (
{
name = p;
}
);
layerId = "31E65565-C22C-4792-86EE-013C6F95D489";
paths = (
{
closed = 1;
nodes = (
"48 574 OFFCURVE",
"86 621 OFFCURVE",
"106 647 CURVE",
"115 644 LINE",
"137 619 OFFCURVE",
"180 575 OFFCURVE",
"199 575 CURVE SMOOTH",
"214 575 OFFCURVE",
"238 607 OFFCURVE",
"267 648 CURVE",
"277 646 LINE",
"293 616 OFFCURVE",
"326 576 OFFCURVE",
"354 576 CURVE SMOOTH",
"375 576 OFFCURVE",
"404 595 OFFCURVE",
"438 653 CURVE",
"455 634 LINE",
"429 576 OFFCURVE",
"366 522 OFFCURVE",
"329 502 CURVE",
"310 511 OFFCURVE",
"257 562 OFFCURVE",
"223 574 CURVE",
"249 565 LINE",
"220 556 OFFCURVE",
"193 541 OFFCURVE",
"156 504 CURVE",
"126 524 OFFCURVE",
"105 558 OFFCURVE",
"82 562 CURVE",
"70 559 OFFCURVE",
"62 547 OFFCURVE",
"58 540 CURVE",
"38 559 LINE"
);
}
);
width = 506;
}
);
},
{
color = 4;
glyphname = p_urrot;
lastChange = "2019-04-22 14:28:46 +0000";
layers = (
{
components = (
{
name = p;
}
);
layerId = "31E65565-C22C-4792-86EE-013C6F95D489";
paths = (
{
closed = 1;
nodes = (
"160 654 LINE",
"290 659 LINE",
"294 654 LINE",
"277 566 LINE SMOOTH",
"270 528 OFFCURVE",
"271 528 OFFCURVE",
"324 514 CURVE",
"313 489 LINE",
"201 499 LINE",
"196 505 LINE",
"204 576 LINE SMOOTH",
"209 623 OFFCURVE",
"195 623 OFFCURVE",
"159 623 CURVE"
);
}
);
width = 508;
}
);
leftMetricsKey = p;
rightMetricsKey = o;
},
{
color = 4;
glyphname = q;
lastChange = "2019-04-19 22:04:51 +0000";
layers = (
{
layerId = "31E65565-C22C-4792-86EE-013C6F95D489";
paths = (
{
closed = 1;
nodes = (
"40 71 OFFCURVE",
"127 -10 OFFCURVE",
"277 -10 CURVE SMOOTH",
"286 -10 OFFCURVE",
"345 26 OFFCURVE",
"400 49 CURVE",
"394 -207 LINE SMOOTH",
"393 -238 OFFCURVE",
"376 -244 OFFCURVE",
"349 -253 CURVE",
"349 -283 LINE",
"384 -282 OFFCURVE",
"425 -280 OFFCURVE",
"444 -280 CURVE SMOOTH",
"461 -280 OFFCURVE",
"508 -281 OFFCURVE",
"523 -283 CURVE",
"523 -253 LINE",
"500 -242 OFFCURVE",
"491 -231 OFFCURVE",
"489 -195 CURVE SMOOTH",
"484 -106 OFFCURVE",
"486 163 OFFCURVE",
"492 250 CURVE SMOOTH",
"497 326 OFFCURVE",
"508 370 OFFCURVE",
"524 422 CURVE",
"495 431 LINE",
"474.894 403.901 OFFCURVE",
"450.967 377.566 OFFCURVE",
"423.888 341.975 CURVE",
"365.754 382.296 OFFCURVE",
"323 410 OFFCURVE",
"252 410 CURVE SMOOTH",
"162 410 OFFCURVE",
"40 331 OFFCURVE",
"40 201 CURVE SMOOTH"
);
},
{
closed = 1;
nodes = (
"140 290 OFFCURVE",
"189 360 OFFCURVE",
"272 360 CURVE SMOOTH",
"379 360 OFFCURVE",
"418 241 OFFCURVE",
"400 119 CURVE",
"400 118 LINE",
"355 60 OFFCURVE",
"311 45 OFFCURVE",
"288 45 CURVE SMOOTH",
"188 45 OFFCURVE",
"140 120 OFFCURVE",
"140 211 CURVE SMOOTH"
);
}
);
width = 534;
}
);
unicode = 0071;
},
{
color = 4;
glyphname = q_bardes;
lastChange = "2019-04-22 14:28:29 +0000";
layers = (
{
components = (
{
name = q;
}
);
layerId = "31E65565-C22C-4792-86EE-013C6F95D489";
paths = (
{
closed = 1;
nodes = (
"612 8 LINE",
"550 -55 OFFCURVE",
"388 -56 OFFCURVE",
"232 -81 CURVE",
"224 -115 LINE",
"323 -105 OFFCURVE",
"421 -104 OFFCURVE",
"570 -88 CURVE SMOOTH",
"589 -86 OFFCURVE",
"624 -55 OFFCURVE",
"644 -6 CURVE"
);
}
);
width = 644;
}
);
leftMetricsKey = q;
unicode = A757;
},
{
color = 4;
glyphname = q_etfin;
lastChange = "2019-04-19 22:04:51 +0000";
layers = (
{
components = (
{
name = q;
}
);
layerId = "31E65565-C22C-4792-86EE-013C6F95D489";
paths = (
{
closed = 1;
nodes = (
"481 276 LINE",
"521 344 OFFCURVE",
"598 320 OFFCURVE",
"598 259 CURVE SMOOTH",
"598 220 OFFCURVE",
"518 157 OFFCURVE",
"466 150 CURVE",
"477 111 LINE",
"514 134 OFFCURVE",
"630 188 OFFCURVE",
"717 295 CURVE",
"717 334 OFFCURVE",
"620 412 OFFCURVE",
"605 412 CURVE SMOOTH",
"590 412 OFFCURVE",
"521 360 OFFCURVE",
"481 321 CURVE"
);
},
{
closed = 1;
nodes = (
"514 134 OFFCURVE",
"532 139 OFFCURVE",
"560 139 CURVE SMOOTH",
"593 139 OFFCURVE",
"629 108 OFFCURVE",
"629 57 CURVE SMOOTH",
"629 -1 OFFCURVE",
"558 -80 OFFCURVE",
"440 -105 CURVE",
"452 -144 LINE",
"549 -120 OFFCURVE",
"732 -2 OFFCURVE",
"732 90 CURVE SMOOTH",
"732 153 OFFCURVE",
"650 196 OFFCURVE",
"603 206 CURVE",
"477 111 LINE"
);
}
);
width = 747;
}
);
leftMetricsKey = q;
},
{
color = 4;
glyphname = q_etfin_ra;
lastChange = "2019-04-19 22:04:51 +0000";
layers = (
{
components = (
{
name = q_etfin;
}
);
layerId = "31E65565-C22C-4792-86EE-013C6F95D489";
paths = (
{
closed = 1;
nodes = (
"286 598 OFFCURVE",
"333 637 OFFCURVE",
"358 659 CURVE",
"366 655 LINE",
"383 625 OFFCURVE",
"417 574 OFFCURVE",
"437 570 CURVE SMOOTH",
"451 567 OFFCURVE",
"481 594 OFFCURVE",
"517 629 CURVE",
"528 625 LINE",
"538 592 OFFCURVE",
"562 545 OFFCURVE",
"590 540 CURVE SMOOTH",
"611 536 OFFCURVE",
"644 550 OFFCURVE",
"688 601 CURVE",
"701 579 LINE",
"665 526 OFFCURVE",
"591 485 OFFCURVE",
"551 473 CURVE",
"534 485 OFFCURVE",
"491 545 OFFCURVE",
"460 564 CURVE SMOOTH",
"484 551 LINE",
"454 546 OFFCURVE",
"423 537 OFFCURVE",
"380 507 CURVE",
"354 533 OFFCURVE",
"340 571 OFFCURVE",
"317 580 CURVE",
"305 579 OFFCURVE",
"295 569 OFFCURVE",
"290 563 CURVE",
"274 585 LINE"
);
}
);
width = 747;
}
);
leftMetricsKey = q;
},
{
color = 4;
glyphname = q_etfin_ring;
lastChange = "2019-04-19 22:04:51 +0000";
layers = (
{
components = (
{
alignment = -1;
name = q;
}
);
layerId = "31E65565-C22C-4792-86EE-013C6F95D489";
paths = (
{
closed = 1;
nodes = (
"485.276 489 OFFCURVE",
"556 532 OFFCURVE",
"556 603 CURVE SMOOTH",
"556 683 OFFCURVE",
"485.276 711 OFFCURVE",
"414.837 711 CURVE SMOOTH",
"344.399 711 OFFCURVE",
"276 674 OFFCURVE",
"276 600 CURVE SMOOTH",
"276 530 OFFCURVE",
"344.399 489 OFFCURVE",
"414.837 489 CURVE SMOOTH"
);
},
{
closed = 1;
nodes = (
"373 526 OFFCURVE",
"349 564 OFFCURVE",
"349 600 CURVE SMOOTH",
"349 636 OFFCURVE",
"373 675 OFFCURVE",
"416 675 CURVE SMOOTH",
"458 675 OFFCURVE",
"482 636 OFFCURVE",
"482 600 CURVE SMOOTH",
"482 564 OFFCURVE",
"458 526 OFFCURVE",
"416 526 CURVE SMOOTH"
);
},
{
closed = 1;
nodes = (
"452 -144 LINE",
"562 -132 OFFCURVE",
"782 17 OFFCURVE",
"782 128 CURVE SMOOTH",
"782 198 OFFCURVE",
"691 210 OFFCURVE",
"648 211 CURVE",
"634 189 LINE",
"683 217 OFFCURVE",
"732 251 OFFCURVE",
"767 295 CURVE",
"767 334 OFFCURVE",
"670 412 OFFCURVE",
"655 412 CURVE SMOOTH",
"640 412 OFFCURVE",
"521 360 OFFCURVE",
"481 321 CURVE",
"481 276 LINE",
"568 368 OFFCURVE",
"648 320 OFFCURVE",
"648 259 CURVE SMOOTH",
"648 220 OFFCURVE",
"518 157 OFFCURVE",
"466 150 CURVE",
"477 111 LINE",
"590 156 LINE",
"640 156 OFFCURVE",
"666 126 OFFCURVE",
"666 85 CURVE SMOOTH",
"666 10 OFFCURVE",
"558 -80 OFFCURVE",
"440 -105 CURVE"
);
},
{
closed = 1;
nodes = (
"477 111 LINE"
);
}
);
width = 747;
}
);
leftMetricsKey = q;
},
{
color = 4;
glyphname = q_macr;
lastChange = "2019-04-22 14:25:15 +0000";
layers = (
{
anchors = (
{
name = _top;
position = "{361, 361}";
},
{
name = top;
position = "{352, 634}";
}
);
components = (
{
alignment = -1;
name = q;
}
);
layerId = "31E65565-C22C-4792-86EE-013C6F95D489";
paths = (
{
closed = 1;
nodes = (
"287 576 LINE",
"335 576 OFFCURVE",
"391 569 OFFCURVE",
"445 588 CURVE",
"473 580 LINE",
"372 475 LINE",
"311 481 OFFCURVE",
"277 482 OFFCURVE",
"228 468 CURVE",
"204 481 LINE"
);
}
);
width = 524;
}
);
unicode = E681;
},
{
color = 4;
glyphname = q_ra;
lastChange = "2019-04-22 14:29:30 +0000";
layers = (
{
components = (
{
name = q;
}
);
layerId = "31E65565-C22C-4792-86EE-013C6F95D489";
paths = (
{
closed = 1;
nodes = (
"136 572 OFFCURVE",
"172 621 OFFCURVE",
"191 648 CURVE",
"200 646 LINE",
"224 621 OFFCURVE",
"269 580 OFFCURVE",
"289 581 CURVE SMOOTH",
"304 582 OFFCURVE",
"326 615 OFFCURVE",
"353 658 CURVE",
"364 656 LINE",
"382 627 OFFCURVE",
"417 588 OFFCURVE",
"445 589 CURVE SMOOTH",
"466 590 OFFCURVE",
"476 612 OFFCURVE",
"506 662 CURVE",
"533 644 LINE",
"511 593 OFFCURVE",
"459 536 OFFCURVE",
"423 514 CURVE",
"404 522 OFFCURVE",
"277 590 OFFCURVE",
"313 581 CURVE SMOOTH",
"340 574 LINE",
"312 562 OFFCURVE",
"284 546 OFFCURVE",
"249 506 CURVE",
"218 525 OFFCURVE",
"195 558 OFFCURVE",
"171 562 CURVE",
"159 558 OFFCURVE",
"152 546 OFFCURVE",
"148 539 CURVE",
"128 556 LINE"
);
}
);
width = 543;
}
);
leftMetricsKey = q;
rightMetricsKey = q;
},
{
color = 4;
glyphname = q_ring;
lastChange = "2019-04-22 14:26:57 +0000";
layers = (
{
layerId = "31E65565-C22C-4792-86EE-013C6F95D489";
paths = (
{
closed = 1;
nodes = (
"40 71 OFFCURVE",
"127 -10 OFFCURVE",
"277 -10 CURVE SMOOTH",
"286 -10 OFFCURVE",
"345 26 OFFCURVE",
"400 39 CURVE",
"394 -167 LINE SMOOTH",
"393 -198 OFFCURVE",
"376 -204 OFFCURVE",
"349 -213 CURVE",
"349 -243 LINE",
"384 -242 OFFCURVE",
"425 -240 OFFCURVE",
"444 -240 CURVE SMOOTH",
"461 -240 OFFCURVE",
"508 -241 OFFCURVE",
"523 -243 CURVE",
"523 -213 LINE",
"500 -202 OFFCURVE",
"491 -191 OFFCURVE",
"489 -155 CURVE SMOOTH",
"484 -66 OFFCURVE",
"486 163 OFFCURVE",
"492 250 CURVE SMOOTH",
"497 326 OFFCURVE",
"508 370 OFFCURVE",
"524 422 CURVE",
"495 431 LINE",
"475 404 OFFCURVE",
"451 371 OFFCURVE",
"424 335 CURVE",
"367 369 OFFCURVE",
"323 390 OFFCURVE",
"252 390 CURVE SMOOTH",
"152 390 OFFCURVE",
"40 331 OFFCURVE",
"40 181 CURVE SMOOTH"
);
},
{
closed = 1;
nodes = (
"140 273 OFFCURVE",
"194 340 OFFCURVE",
"272 340 CURVE SMOOTH",
"379 340 OFFCURVE",
"437 259 OFFCURVE",
"400 100 CURVE",
"400 99 LINE",
"355 61 OFFCURVE",
"311 45 OFFCURVE",
"288 45 CURVE SMOOTH",
"188 45 OFFCURVE",
"140 121 OFFCURVE",
"140 192 CURVE SMOOTH"
);
},
{
closed = 1;
nodes = (
"455 439 OFFCURVE",
"513 489 OFFCURVE",
"513 550 CURVE SMOOTH",
"513 611 OFFCURVE",
"455 661 OFFCURVE",
"385 661 CURVE SMOOTH",
"314 661 OFFCURVE",
"257 611 OFFCURVE",
"257 550 CURVE SMOOTH",
"257 489 OFFCURVE",
"314 439 OFFCURVE",
"385 439 CURVE SMOOTH"
);
},
{
closed = 1;
nodes = (
"343 485 OFFCURVE",
"311 514 OFFCURVE",
"311 550 CURVE SMOOTH",
"311 586 OFFCURVE",
"343 615 OFFCURVE",
"386 615 CURVE SMOOTH",
"428 615 OFFCURVE",
"460 586 OFFCURVE",
"460 550 CURVE SMOOTH",
"460 514 OFFCURVE",
"428 485 OFFCURVE",
"386 485 CURVE SMOOTH"
);
}
);
width = 524;
}
);
},
{
color = 4;
glyphname = q_strok;
lastChange = "2019-04-19 22:04:51 +0000";
layers = (
{
layerId = "31E65565-C22C-4792-86EE-013C6F95D489";
paths = (
{
closed = 1;
nodes = (
"482 244 LINE",
"521 277 OFFCURVE",
"539 311 OFFCURVE",
"581 311 CURVE SMOOTH",
"627 311 OFFCURVE",
"650 273 OFFCURVE",
"650 232 CURVE SMOOTH",
"650 151 OFFCURVE",
"548 16 OFFCURVE",
"483 -47 CURVE",
"490 -84 LINE",
"582 0 OFFCURVE",
"738 162 OFFCURVE",
"738 264 CURVE SMOOTH",
"738 330 OFFCURVE",
"717 413 OFFCURVE",
"640 413 CURVE SMOOTH",
"582 413 OFFCURVE",
"519 322 OFFCURVE",
"475 262 CURVE"
);
},
{
closed = 1;
nodes = (
"40 71 OFFCURVE",
"119 -10 OFFCURVE",
"269 -10 CURVE SMOOTH",
"278 -10 OFFCURVE",
"365 26 OFFCURVE",
"420 49 CURVE",
"414 -207 LINE SMOOTH",
"413 -238 OFFCURVE",
"396 -244 OFFCURVE",
"369 -253 CURVE",
"369 -283 LINE",
"404 -282 OFFCURVE",
"445 -280 OFFCURVE",
"464 -280 CURVE SMOOTH",
"481 -280 OFFCURVE",
"528 -281 OFFCURVE",
"543 -283 CURVE",
"543 -253 LINE",
"520 -242 OFFCURVE",
"511 -231 OFFCURVE",
"509 -195 CURVE SMOOTH",
"504 -106 OFFCURVE",
"506 163 OFFCURVE",
"512 250 CURVE SMOOTH",
"517 326 OFFCURVE",
"528 370 OFFCURVE",
"534 422 CURVE",
"505 431 LINE",
"491 405 OFFCURVE",
"471 378 OFFCURVE",
"444 342 CURVE",
"386 382 OFFCURVE",
"333 410 OFFCURVE",
"262 410 CURVE SMOOTH",
"162 410 OFFCURVE",
"40 331 OFFCURVE",
"40 201 CURVE SMOOTH"
);
},
{
closed = 1;
nodes = (
"140 290 OFFCURVE",
"198 360 OFFCURVE",
"278 360 CURVE SMOOTH",
"401 360 OFFCURVE",
"438 241 OFFCURVE",
"420 109 CURVE",
"420 108 LINE",
"375 60 OFFCURVE",
"323 40 OFFCURVE",
"280 40 CURVE SMOOTH",
"180 40 OFFCURVE",
"140 120 OFFCURVE",
"140 201 CURVE SMOOTH"
);
}
);
width = 763;
}
);
leftMetricsKey = q;
rightMetricsKey = p;
unicode = A759;
},
{
color = 4;
glyphname = q_urrot;
lastChange = "2019-04-22 14:28:50 +0000";
layers = (
{
components = (
{
name = q;
}
);
layerId = "31E65565-C22C-4792-86EE-013C6F95D489";
paths = (
{
closed = 1;
nodes = (
"239 644 LINE",
"369 649 LINE",
"373 644 LINE",
"356 556 LINE SMOOTH",
"349 518 OFFCURVE",
"350 518 OFFCURVE",
"403 504 CURVE",
"392 479 LINE",
"280 489 LINE",
"275 495 LINE",
"283 566 LINE SMOOTH",
"288 613 OFFCURVE",
"274 613 OFFCURVE",
"238 613 CURVE"
);
}
);
width = 534;
}
);
rightMetricsKey = q;
},
{
color = 4;
glyphname = r;
lastChange = "2019-04-24 16:48:09 +0000";
layers = (
{
layerId = "31E65565-C22C-4792-86EE-013C6F95D489";
paths = (
{
closed = 1;
nodes = (
"204 325 OFFCURVE",
"240 306 OFFCURVE",
"281 268 CURVE",
"285 268 LINE",
"345 365 LINE",
"323 381 OFFCURVE",
"252 409 OFFCURVE",
"238 409 CURVE",
"209 369 OFFCURVE",
"193 350 OFFCURVE",
"156 311 CURVE",
"153 264 LINE"
);
},
{
closed = 1;
nodes = (
"163 399 LINE",
"144 409 LINE",
"100 393 OFFCURVE",
"64 377 OFFCURVE",
"25 363 CURVE",
"25 333 LINE",
"56 327 OFFCURVE",
"64 321 OFFCURVE",
"64 282 CURVE SMOOTH",
"64 212 OFFCURVE",
"62 105 OFFCURVE",
"59 78 CURVE SMOOTH",
"56 53 OFFCURVE",
"51 40 OFFCURVE",
"36 27 CURVE",
"36 -3 LINE",
"56 -1 OFFCURVE",
"90 0 OFFCURVE",
"121 0 CURVE SMOOTH",
"147 0 OFFCURVE",
"179 -1 OFFCURVE",
"207 -3 CURVE",
"207 27 LINE",
"181 40 OFFCURVE",
"163 43 OFFCURVE",
"160 76 CURVE SMOOTH",
"157 106 OFFCURVE",
"156 288 OFFCURVE",
"158 324 CURVE SMOOTH"
);
}
);
width = 350;
}
);
unicode = 0072;
},
{
color = 4;
glyphname = r_hook;
lastChange = "2019-04-19 22:04:51 +0000";
layers = (
{
components = (
{
alignment = -1;
name = r;
transform = "{1, 0, 0, 1, -33, 0}";
}
);
layerId = "31E65565-C22C-4792-86EE-013C6F95D489";
paths = (
{
closed = 1;
nodes = (
"269 569 OFFCURVE",
"254 504 OFFCURVE",
"197 504 CURVE SMOOTH",
"145 504 OFFCURVE",
"80 537 OFFCURVE",
"52 554 CURVE",
"33 535 LINE",
"66 509 OFFCURVE",
"128 477 OFFCURVE",
"192 476 CURVE SMOOTH",
"261 475 OFFCURVE",
"324 497 OFFCURVE",
"323 553 CURVE SMOOTH",
"322 606 OFFCURVE",
"295 637 OFFCURVE",
"255 653 CURVE",
"163 612 LINE",
"163 601 LINE"
);
}
);
width = 320;
}
);
},
{
color = 4;
glyphname = r_macr;
lastChange = "2019-04-19 22:04:51 +0000";
layers = (
{
anchors = (
{
name = _top;
position = "{188, 397.549}";
},
{
name = top;
position = "{179, 640.893}";
}
);
components = (
{
alignment = -1;
name = r;
transform = "{1, 0, 0, 1, -13, 0}";
}
);
layerId = "31E65565-C22C-4792-86EE-013C6F95D489";
paths = (
{
closed = 1;
nodes = (
"154 582 LINE",
"232 582 OFFCURVE",
"268 565 OFFCURVE",
"342 611 CURVE",
"370 604 LINE",
"240 494 LINE",
"179 499 OFFCURVE",
"144 507 OFFCURVE",
"95 486 CURVE",
"71 497 LINE"
);
}
);
width = 386;
}
);
},
{
color = 4;
glyphname = r_ra;
lastChange = "2019-04-19 22:04:51 +0000";
layers = (
{
layerId = "31E65565-C22C-4792-86EE-013C6F95D489";
paths = (
{
closed = 1;
nodes = (
"78 574 OFFCURVE",
"116 621 OFFCURVE",
"136 647 CURVE",
"145 644 LINE",
"167 619 OFFCURVE",
"210 575 OFFCURVE",
"229 575 CURVE SMOOTH",
"244 575 OFFCURVE",
"268 607 OFFCURVE",
"297 648 CURVE",
"307 646 LINE",
"323 616 OFFCURVE",
"356 576 OFFCURVE",
"384 576 CURVE SMOOTH",
"405 576 OFFCURVE",
"424 595 OFFCURVE",
"458 633 CURVE",
"475 614 LINE",
"449 576 OFFCURVE",
"376 532 OFFCURVE",
"339 512 CURVE",
"320 521 OFFCURVE",
"287 562 OFFCURVE",
"253 574 CURVE",
"279 565 LINE",
"250 556 OFFCURVE",
"223 541 OFFCURVE",
"186 504 CURVE",
"156 524 OFFCURVE",
"135 558 OFFCURVE",
"112 562 CURVE",
"100 559 OFFCURVE",
"92 547 OFFCURVE",
"88 540 CURVE",
"68 559 LINE"
);
},
{
closed = 1;
nodes = (
"231 325 OFFCURVE",
"323 354 OFFCURVE",
"371 274 CURVE",
"392 274 LINE",
"435 383 LINE",
"413 399 OFFCURVE",
"332 409 OFFCURVE",
"318 409 CURVE",
"289 379 OFFCURVE",
"240 349 OFFCURVE",
"203 320 CURVE",
"200 264 LINE"
);
},
{
closed = 1;
nodes = (
"223 401 LINE",
"214 408 LINE",
"170 402 OFFCURVE",
"124 400 OFFCURVE",
"55 398 CURVE",
"55 368 LINE",
"116 362 OFFCURVE",
"124 326 OFFCURVE",
"124 287 CURVE SMOOTH",
"124 217 OFFCURVE",
"122 105 OFFCURVE",
"119 78 CURVE SMOOTH",
"116 53 OFFCURVE",
"111 40 OFFCURVE",
"96 27 CURVE",
"96 -3 LINE",
"116 -1 OFFCURVE",
"150 0 OFFCURVE",
"181 0 CURVE SMOOTH",
"207 0 OFFCURVE",
"239 -1 OFFCURVE",
"297 -3 CURVE",
"297 27 LINE",
"241 40 OFFCURVE",
"223 43 OFFCURVE",
"220 76 CURVE SMOOTH",
"217 106 OFFCURVE",
"215 294 OFFCURVE",
"218 330 CURVE SMOOTH"
);
}
);
width = 455;
}
);
},
{
color = 4;
glyphname = r_strok;
lastChange = "2019-04-19 22:04:51 +0000";
layers = (
{
layerId = "31E65565-C22C-4792-86EE-013C6F95D489";
paths = (
{
closed = 1;
nodes = (
"307 336 OFFCURVE",
"338 -21 OFFCURVE",
"356 -186 CURVE",
"396 -177 LINE",
"373 -20 OFFCURVE",
"363 302 OFFCURVE",
"385 447 CURVE",
"318 447 LINE"
);
},
{
closed = 1;
nodes = (
"305 311 OFFCURVE",
"440 317 OFFCURVE",
"462 313 CURVE",
"460 379 LINE",
"408 375 OFFCURVE",
"297 370 OFFCURVE",
"266 370 CURVE",
"268 308 LINE"
);
},
{
closed = 1;
nodes = (
"179 325 OFFCURVE",
"215 306 OFFCURVE",
"256 268 CURVE",
"260 268 LINE",
"320 365 LINE",
"298 381 OFFCURVE",
"227 409 OFFCURVE",
"213 409 CURVE",
"184 369 OFFCURVE",
"168 350 OFFCURVE",
"131 311 CURVE",
"128 264 LINE"
);
},
{
closed = 1;
nodes = (
"138 399 LINE",
"119 409 LINE",
"75 393 OFFCURVE",
"39 377 OFFCURVE",
"0 363 CURVE",
"0 333 LINE",
"31 327 OFFCURVE",
"39 321 OFFCURVE",
"39 282 CURVE SMOOTH",
"39 212 OFFCURVE",
"37 105 OFFCURVE",
"34 78 CURVE SMOOTH",
"31 53 OFFCURVE",
"26 40 OFFCURVE",
"11 27 CURVE",
"11 -3 LINE",
"31 -1 OFFCURVE",
"65 0 OFFCURVE",
"96 0 CURVE SMOOTH",
"122 0 OFFCURVE",
"154 -1 OFFCURVE",
"212 -3 CURVE",
"212 27 LINE",
"156 40 OFFCURVE",
"138 43 OFFCURVE",
"135 76 CURVE SMOOTH",
"132 106 OFFCURVE",
"131 288 OFFCURVE",
"133 324 CURVE SMOOTH"
);
}
);
width = 462;
}
);
unicode = A776;
},
{
color = 4;
glyphname = r.ss01;
lastChange = "2019-04-23 07:27:55 +0000";
layers = (
{
layerId = "31E65565-C22C-4792-86EE-013C6F95D489";
paths = (
{
closed = 1;
nodes = (
"70 376 OFFCURVE",
"149 411 OFFCURVE",
"169 411 CURVE SMOOTH",
"200 411 OFFCURVE",
"296 387 OFFCURVE",
"296 306 CURVE SMOOTH",
"296 218 OFFCURVE",
"122 73 OFFCURVE",
"79 32 CURVE",
"63 53 LINE",
"168 57 OFFCURVE",
"276 60 OFFCURVE",
"389 67 CURVE",
"391 55 LINE",
"366 -3 LINE",
"216 -1 OFFCURVE",
"119 -1 OFFCURVE",
"9 -2 CURVE",
"5 14 LINE",
"92 75 OFFCURVE",
"200 188 OFFCURVE",
"200 254 CURVE SMOOTH",
"200 334 OFFCURVE",
"124 373 OFFCURVE",
"48 311 CURVE",
"37 341 LINE"
);
}
);
width = 394;
}
);
},
{
color = 4;
glyphname = r_ring;
lastChange = "2019-04-23 07:29:22 +0000";
layers = (
{
layerId = "31E65565-C22C-4792-86EE-013C6F95D489";
paths = (
{
closed = 1;
nodes = (
"313 485 OFFCURVE",
"376 530 OFFCURVE",
"375 600 CURVE SMOOTH",
"374 664 OFFCURVE",
"331 715 OFFCURVE",
"255 715 CURVE SMOOTH",
"188 715 OFFCURVE",
"134 663 OFFCURVE",
"134 600 CURVE SMOOTH",
"134 528 OFFCURVE",
"188 487 OFFCURVE",
"255 486 CURVE SMOOTH"
);
},
{
closed = 1;
nodes = (
"218 526 OFFCURVE",
"187 556 OFFCURVE",
"187 596 CURVE SMOOTH",
"187 633 OFFCURVE",
"215 663 OFFCURVE",
"254 663 CURVE SMOOTH",
"291 663 OFFCURVE",
"327 638 OFFCURVE",
"327 596 CURVE SMOOTH",
"327 556 OFFCURVE",
"300 526 OFFCURVE",
"258 526 CURVE SMOOTH"
);
},
{
closed = 1;
nodes = (
"70 377 OFFCURVE",
"176 411 OFFCURVE",
"196 411 CURVE SMOOTH",
"227 411 OFFCURVE",
"361 399 OFFCURVE",
"361 328 CURVE SMOOTH",
"361 241 OFFCURVE",
"128 83 OFFCURVE",
"94 44 CURVE",
"63 47 LINE",
"168 51 OFFCURVE",
"276 52 OFFCURVE",
"389 68 CURVE",
"388 56 LINE",
"326 -3 LINE",
"176 -1 OFFCURVE",
"119 -1 OFFCURVE",
"9 -2 CURVE",
"5 14 LINE",
"92 85 OFFCURVE",
"257 217 OFFCURVE",
"257 283 CURVE SMOOTH",
"257 336 OFFCURVE",
"146 358 OFFCURVE",
"38 331 CURVE",
"27 361 LINE"
);
}
);
width = 394;
}
);
leftMetricsKey = r.ss01;
},
{
color = 4;
glyphname = s;
lastChange = "2019-04-22 09:46:06 +0000";
layers = (
{
layerId = "31E65565-C22C-4792-86EE-013C6F95D489";
paths = (
{
closed = 1;
nodes = (
"113 11 OFFCURVE",
"169 -10 OFFCURVE",
"228 -10 CURVE SMOOTH",
"295 -10 OFFCURVE",
"370 35 OFFCURVE",
"370 118 CURVE SMOOTH",
"370 182 OFFCURVE",
"325 229 OFFCURVE",
"233 245 CURVE SMOOTH",
"148 260 OFFCURVE",
"85 273 OFFCURVE",
"85 311 CURVE SMOOTH",
"85 340 OFFCURVE",
"116 358 OFFCURVE",
"158 358 CURVE SMOOTH",
"212 358 OFFCURVE",
"258 333 OFFCURVE",
"300 287 CURVE",
"327 287 LINE",
"375 394 LINE",
"353 408 LINE",
"338 398 OFFCURVE",
"329 389 OFFCURVE",
"313 389 CURVE SMOOTH",
"280 389 OFFCURVE",
"245 410 OFFCURVE",
"190 410 CURVE SMOOTH",
"100 410 OFFCURVE",
"31 359 OFFCURVE",
"31 289 CURVE SMOOTH",
"31 221 OFFCURVE",
"78 178 OFFCURVE",
"171 164 CURVE SMOOTH",
"258 151 OFFCURVE",
"298 132 OFFCURVE",
"298 88 CURVE SMOOTH",
"298 46 OFFCURVE",
"264 27 OFFCURVE",
"227 27 CURVE SMOOTH",
"170 27 OFFCURVE",
"92 81 OFFCURVE",
"83 164 CURVE",
"56 170 LINE",
"15 7 LINE",
"39 -1 LINE",
"69 44 LINE"
);
}
);
width = 395;
}
);
unicode = 0073;
},
{
color = 4;
glyphname = longs;
lastChange = "2019-04-19 22:04:51 +0000";
layers = (
{
layerId = "31E65565-C22C-4792-86EE-013C6F95D489";
paths = (
{
closed = 1;
nodes = (
"39 28 LINE",
"60 40 OFFCURVE",
"70 50 OFFCURVE",
"70 69 CURVE SMOOTH",
"70 77 OFFCURVE",
"73 232 OFFCURVE",
"74 343 CURVE",
"29 342 LINE",
"30 373 LINE",
"51 401 OFFCURVE",
"67 421 OFFCURVE",
"76 485 CURVE SMOOTH",
"90 581 OFFCURVE",
"138 710 OFFCURVE",
"276 710 CURVE SMOOTH",
"334 710 OFFCURVE",
"378 691 OFFCURVE",
"430 666 CURVE",
"430 662 LINE",
"378 598 LINE",
"373 598 LINE",
"343 637 OFFCURVE",
"296 665 OFFCURVE",
"262 665 CURVE SMOOTH",
"191 665 OFFCURVE",
"155 608 OFFCURVE",
"156 499 CURVE SMOOTH",
"157 390 OFFCURVE",
"160 95 OFFCURVE",
"164 75 CURVE SMOOTH",
"170 47 OFFCURVE",
"175 37 OFFCURVE",
"226 28 CURVE",
"226 -7 LINE",
"168 -2 OFFCURVE",
"108 2 OFFCURVE",
"39 -6 CURVE"
);
},
{
closed = 0;
nodes = (
"127 355 LINE"
);
}
);
width = 260;
}
);
unicode = 017F;
},
{
color = 4;
glyphname = longs_strok;
lastChange = "2019-04-19 22:04:51 +0000";
layers = (
{
layerId = "31E65565-C22C-4792-86EE-013C6F95D489";
paths = (
{
closed = 1;
nodes = (
"267 425 OFFCURVE",
"402 369 OFFCURVE",
"402 272 CURVE SMOOTH",
"402 175 OFFCURVE",
"155 95 OFFCURVE",
"49 63 CURVE",
"29 90 LINE",
"191 139 OFFCURVE",
"323 194 OFFCURVE",
"323 279 CURVE SMOOTH",
"323 353 OFFCURVE",
"224 411 OFFCURVE",
"127 420 CURVE",
"131 455 LINE"
);
},
{
closed = 1;
nodes = (
"46 28 LINE",
"67 40 OFFCURVE",
"79 50 OFFCURVE",
"79 69 CURVE SMOOTH",
"79 77 OFFCURVE",
"82 232 OFFCURVE",
"83 343 CURVE",
"38 342 LINE",
"39 373 LINE",
"60 401 OFFCURVE",
"75 434 OFFCURVE",
"85 485 CURVE SMOOTH",
"104 580 OFFCURVE",
"147 710 OFFCURVE",
"285 710 CURVE SMOOTH",
"343 710 OFFCURVE",
"387 701 OFFCURVE",
"439 686 CURVE",
"439 682 LINE",
"387 608 LINE",
"382 608 LINE",
"352 638 OFFCURVE",
"305 665 OFFCURVE",
"271 665 CURVE SMOOTH",
"200 665 OFFCURVE",
"167 598 OFFCURVE",
"168 499 CURVE SMOOTH",
"169 390 OFFCURVE",
"169 95 OFFCURVE",
"173 75 CURVE SMOOTH",
"179 47 OFFCURVE",
"181 37 OFFCURVE",
"242 28 CURVE",
"245 -7 LINE",
"167 0 OFFCURVE",
"116 0 OFFCURVE",
"46 -6 CURVE"
);
},
{
closed = 0;
nodes = (
"136 355 LINE"
);
}
);
width = 409;
}
);
leftMetricsKey = longs;
},
{
color = 4;
glyphname = longs_longs;
lastChange = "2019-04-19 22:04:51 +0000";
layers = (
{
components = (
{
name = longs;
transform = "{1, 0, 0, 1, 300, 0}";
}
);
layerId = "31E65565-C22C-4792-86EE-013C6F95D489";
paths = (
{
closed = 1;
nodes = (
"37 28 LINE",
"68 40 OFFCURVE",
"70 40 OFFCURVE",
"70 69 CURVE SMOOTH",
"70 127 OFFCURVE",
"73 232 OFFCURVE",
"74 343 CURVE",
"29 342 LINE",
"30 373 LINE",
"51 401 OFFCURVE",
"68 413 OFFCURVE",
"76 485 CURVE SMOOTH",
"87 582 OFFCURVE",
"138 710 OFFCURVE",
"276 710 CURVE SMOOTH",
"334 710 OFFCURVE",
"418 691 OFFCURVE",
"470 666 CURVE",
"470 662 LINE",
"413 588 LINE",
"383 637 OFFCURVE",
"336 665 OFFCURVE",
"272 665 CURVE SMOOTH",
"201 665 OFFCURVE",
"158 598 OFFCURVE",
"159 499 CURVE SMOOTH",
"160 390 OFFCURVE",
"162 95 OFFCURVE",
"164 75 CURVE SMOOTH",
"167 35 OFFCURVE",
"172 36 OFFCURVE",
"223 27 CURVE",
"226 -7 LINE",
"190 -5 OFFCURVE",
"79 -1 OFFCURVE",
"37 -6 CURVE"
);
}
);
width = 560;
}
);
leftMetricsKey = longs;
rightMetricsKey = longs;
},
{
color = 4;
glyphname = longs_t;
lastChange = "2019-04-19 22:04:51 +0000";
layers = (
{
components = (
{
name = t;
transform = "{1, 0, 0, 1, 282, 0}";
}
);
layerId = "31E65565-C22C-4792-86EE-013C6F95D489";
paths = (
{
closed = 1;
nodes = (
"107 0 OFFCURVE",
"131 -1 OFFCURVE",
"228 -7 CURVE",
"228 26 LINE",
"207 35 OFFCURVE",
"172 45 OFFCURVE",
"166 73 CURVE SMOOTH",
"162 93 OFFCURVE",
"154 361 OFFCURVE",
"161 470 CURVE SMOOTH",
"167 569 OFFCURVE",
"203 637 OFFCURVE",
"274 635 CURVE SMOOTH",
"359 633 OFFCURVE",
"379 554 OFFCURVE",
"355 400 CURVE",
"434 396 LINE",
"440 527 LINE SMOOTH",
"445 641 OFFCURVE",
"386 710 OFFCURVE",
"298 710 CURVE SMOOTH",
"160 710 OFFCURVE",
"96 580 OFFCURVE",
"78 485 CURVE SMOOTH",
"69 437 OFFCURVE",
"53 401 OFFCURVE",
"32 373 CURVE",
"31 342 LINE",
"76 343 LINE",
"75 232 OFFCURVE",
"73 75 OFFCURVE",
"72 67 CURVE SMOOTH",
"70 48 OFFCURVE",
"60 38 OFFCURVE",
"29 26 CURVE",
"29 -6 LINE"
);
},
{
closed = 0;
nodes = (
"129 355 LINE"
);
}
);
width = 588;
}
);
leftMetricsKey = longs;
rightMetricsKey = t;
},
{
color = 4;
glyphname = t;
lastChange = "2019-04-24 16:48:09 +0000";
layers = (
{
guideLines = (
{
position = "{134, 246}";
}
);
layerId = "31E65565-C22C-4792-86EE-013C6F95D489";
paths = (
{
closed = 1;
nodes = (
"62 103 LINE SMOOTH",
"62 37 OFFCURVE",
"108 -11 OFFCURVE",
"161 -11 CURVE SMOOTH",
"209 -11 OFFCURVE",
"265 8 OFFCURVE",
"286 19 CURVE",
"281 50 LINE",
"166 33 OFFCURVE",
"156 62 OFFCURVE",
"151 155 CURVE SMOOTH",
"149 190 OFFCURVE",
"150 418 OFFCURVE",
"156 503 CURVE",
"125 503 LINE",
"101 453 OFFCURVE",
"69 408 OFFCURVE",
"30 370 CURVE",
"30 330 LINE",
"62 330 LINE"
);
},
{
closed = 1;
nodes = (
"283 330 LINE",
"283 400 LINE",
"142 400 LINE",
"150 330 LINE"
);
}
);
width = 306;
}
);
unicode = 0074;
},
{
color = 4;
glyphname = t_acute;
lastChange = "2019-04-19 22:04:51 +0000";
layers = (
{
anchors = (
{
name = _top;
position = "{95.421, 455.503}";
},
{
name = top;
position = "{155.716, 765.697}";
}
);
layerId = "31E65565-C22C-4792-86EE-013C6F95D489";
paths = (
{
closed = 1;
nodes = (
"231 602 OFFCURVE",
"278 506 OFFCURVE",
"203 506 CURVE SMOOTH",
"170 506 OFFCURVE",
"153 540 OFFCURVE",
"130 562 CURVE",
"107 546 LINE",
"126 515 OFFCURVE",
"160 469 OFFCURVE",
"210 468 CURVE SMOOTH",
"277 467 OFFCURVE",
"317 521 OFFCURVE",
"317 597 CURVE SMOOTH",
"317 649 OFFCURVE",
"274 675 OFFCURVE",
"249 696 CURVE",
"168 651 LINE"
);
},
{
closed = 1;
nodes = (
"62 103 LINE SMOOTH",
"62 37 OFFCURVE",
"118 -11 OFFCURVE",
"171 -11 CURVE SMOOTH",
"219 -11 OFFCURVE",
"275 18 OFFCURVE",
"306 39 CURVE",
"301 70 LINE",
"200 38 OFFCURVE",
"156 62 OFFCURVE",
"151 155 CURVE SMOOTH",
"149 190 OFFCURVE",
"149 363 OFFCURVE",
"155 448 CURVE",
"72 448 LINE",
"68 398 LINE",
"30 397 LINE",
"30 341 LINE",
"62 330 LINE"
);
},
{
closed = 1;
nodes = (
"243 330 LINE",
"312 384 LINE",
"313 400 LINE",
"142 400 LINE",
"150 330 LINE"
);
}
);
width = 306;
}
);
},
{
color = 4;
glyphname = t_ra;
lastChange = "2019-04-19 22:04:51 +0000";
layers = (
{
layerId = "31E65565-C22C-4792-86EE-013C6F95D489";
paths = (
{
closed = 1;
nodes = (
"33 654 OFFCURVE",
"80 693 OFFCURVE",
"105 715 CURVE",
"113 711 LINE",
"130 681 OFFCURVE",
"155 643 OFFCURVE",
"175 639 CURVE SMOOTH",
"189 636 OFFCURVE",
"208 650 OFFCURVE",
"244 685 CURVE",
"255 681 LINE",
"265 648 OFFCURVE",
"290 606 OFFCURVE",
"317 596 CURVE SMOOTH",
"328 592 OFFCURVE",
"361 606 OFFCURVE",
"405 657 CURVE",
"418 635 LINE",
"382 582 OFFCURVE",
"318 541 OFFCURVE",
"278 529 CURVE",
"261 541 OFFCURVE",
"228 584 OFFCURVE",
"197 624 CURVE",
"231 617 LINE",
"201 612 OFFCURVE",
"170 593 OFFCURVE",
"127 563 CURVE",
"101 589 OFFCURVE",
"87 627 OFFCURVE",
"64 636 CURVE",
"52 635 OFFCURVE",
"42 625 OFFCURVE",
"37 619 CURVE",
"21 641 LINE"
);
},
{
closed = 1;
nodes = (
"61 103 LINE SMOOTH",
"61 37 OFFCURVE",
"107 -11 OFFCURVE",
"160 -11 CURVE SMOOTH",
"208 -11 OFFCURVE",
"303 30 OFFCURVE",
"324 41 CURVE",
"320 70 LINE",
"205 53 OFFCURVE",
"155 62 OFFCURVE",
"150 155 CURVE SMOOTH",
"148 190 OFFCURVE",
"149 418 OFFCURVE",
"155 503 CURVE",
"124 503 LINE",
"100 453 OFFCURVE",
"68 408 OFFCURVE",
"29 370 CURVE",
"29 339 LINE",
"61 330 LINE"
);
},
{
closed = 1;
nodes = (
"346 358 LINE",
"346 400 LINE",
"141 400 LINE",
"149 337 LINE"
);
}
);
width = 366;
}
);
},
{
color = 4;
glyphname = t_stroke;
lastChange = "2019-04-19 22:04:51 +0000";
layers = (
{
layerId = "31E65565-C22C-4792-86EE-013C6F95D489";
paths = (
{
closed = 1;
nodes = (
"65 430 OFFCURVE",
"107 457 OFFCURVE",
"138 518 CURVE",
"163 509 LINE",
"148 418 OFFCURVE",
"154 360 OFFCURVE",
"149 224 CURVE SMOOTH",
"145 108 OFFCURVE",
"154 62 OFFCURVE",
"219 62 CURVE SMOOTH",
"268 62 OFFCURVE",
"311 76 OFFCURVE",
"350 98 CURVE",
"360 73 LINE",
"329 43 OFFCURVE",
"268 -9 OFFCURVE",
"182 -9 CURVE SMOOTH",
"67 -9 OFFCURVE",
"55 61 OFFCURVE",
"55 184 CURVE SMOOTH",
"55 314 LINE SMOOTH",
"55 330 OFFCURVE",
"51 345 OFFCURVE",
"36 347 CURVE SMOOTH",
"10 351 LINE",
"12 385 LINE"
);
},
{
closed = 1;
nodes = (
"355 413 OFFCURVE",
"473 403 OFFCURVE",
"563 440 CURVE",
"581 425 LINE",
"507 327 LINE",
"348 352 OFFCURVE",
"272 363 OFFCURVE",
"138 359 CURVE",
"143 407 LINE"
);
},
{
closed = 1;
nodes = (
"413 568 LINE",
"408 344 OFFCURVE",
"407 119 OFFCURVE",
"413 -105 CURVE",
"351 -123 LINE",
"356 105 OFFCURVE",
"356 332 OFFCURVE",
"351 560 CURVE"
);
}
);
width = 586;
}
);
unicode = A777;
},
{
color = 4;
glyphname = t_tilde;
lastChange = "2019-04-19 22:04:51 +0000";
layers = (
{
components = (
{
name = t;
}
);
layerId = "31E65565-C22C-4792-86EE-013C6F95D489";
paths = (
{
closed = 1;
nodes = (
"10 524 LINE",
"2 545 LINE",
"20 597 OFFCURVE",
"59 646 OFFCURVE",
"101 646 CURVE SMOOTH",
"201 646 OFFCURVE",
"204 562 OFFCURVE",
"254 562 CURVE SMOOTH",
"285 562 OFFCURVE",
"278 610 OFFCURVE",
"254 630 CURVE",
"258 633 LINE",
"291 621 LINE",
"324 590 OFFCURVE",
"309 497 OFFCURVE",
"245 497 CURVE SMOOTH",
"181 497 OFFCURVE",
"155 569 OFFCURVE",
"91 569 CURVE SMOOTH",
"55 569 OFFCURVE",
"35 556 OFFCURVE",
"14 524 CURVE"
);
}
);
width = 306;
}
);
},
{
color = 4;
glyphname = u;
lastChange = "2019-04-24 16:48:09 +0000";
layers = (
{
layerId = "31E65565-C22C-4792-86EE-013C6F95D489";
paths = (
{
closed = 1;
nodes = (
"328 70 LINE",
"328 0 LINE",
"458 0 LINE",
"458 35 LINE",
"439 45 OFFCURVE",
"432 60 OFFCURVE",
"429 105 CURVE SMOOTH",
"426 158 OFFCURVE",
"423 248 OFFCURVE",
"422 311 CURVE SMOOTH",
"421 339 OFFCURVE",
"433 376 OFFCURVE",
"438 399 CURVE",
"428 409 LINE",
"384 403 OFFCURVE",
"328 400 OFFCURVE",
"262 399 CURVE",
"262 369 LINE",
"300 369 OFFCURVE",
"333 353 OFFCURVE",
"333 313 CURVE SMOOTH",
"333 119 LINE"
);
},
{
closed = 1;
nodes = (
"319 72 OFFCURVE",
"280 49 OFFCURVE",
"242 49 CURVE SMOOTH",
"174 49 OFFCURVE",
"159 98 OFFCURVE",
"154 153 CURVE SMOOTH",
"150 199 OFFCURVE",
"150 283 OFFCURVE",
"153 326 CURVE SMOOTH",
"155 354 OFFCURVE",
"160 361 OFFCURVE",
"178 373 CURVE",
"179 403 LINE",
"155 401 OFFCURVE",
"135 400 OFFCURVE",
"105 400 CURVE SMOOTH",
"83 400 OFFCURVE",
"52 402 OFFCURVE",
"29 403 CURVE",
"28 373 LINE",
"49 363 OFFCURVE",
"52 354 OFFCURVE",
"54 326 CURVE SMOOTH",
"57 280 OFFCURVE",
"60 185 OFFCURVE",
"59 119 CURVE SMOOTH",
"58 41 OFFCURVE",
"85 -10 OFFCURVE",
"204 -10 CURVE SMOOTH",
"233 -10 OFFCURVE",
"288 21 OFFCURVE",
"354 61 CURVE",
"341 119 LINE"
);
}
);
width = 478;
}
);
unicode = 0075;
},
{
color = 4;
glyphname = u_macr;
lastChange = "2019-04-22 14:27:21 +0000";
layers = (
{
anchors = (
{
name = _top;
position = "{252, 380}";
},
{
name = top;
position = "{243, 653}";
}
);
components = (
{
name = u;
}
);
layerId = "31E65565-C22C-4792-86EE-013C6F95D489";
paths = (
{
closed = 1;
nodes = (
"198 632 LINE",
"276 632 OFFCURVE",
"332 613 OFFCURVE",
"406 664 CURVE",
"434 656 LINE",
"324 522 LINE",
"263 528 OFFCURVE",
"188 548 OFFCURVE",
"139 524 CURVE",
"115 537 LINE"
);
}
);
width = 478;
}
);
unicode = 016B;
},
{
color = 4;
glyphname = v;
lastChange = "2019-04-24 16:48:09 +0000";
layers = (
{
layerId = "31E65565-C22C-4792-86EE-013C6F95D489";
paths = (
{
closed = 1;
nodes = (
"310 95 OFFCURVE",
"345 190 OFFCURVE",
"400 285 CURVE SMOOTH",
"419 318 OFFCURVE",
"438 354 OFFCURVE",
"467 372 CURVE",
"467 402 LINE",
"413 400 OFFCURVE",
"352 399 OFFCURVE",
"307 402 CURVE",
"307 372 LINE",
"347 366 OFFCURVE",
"370 343 OFFCURVE",
"351 296 CURVE SMOOTH",
"254 56 LINE",
"269 56 LINE",
"164 300 LINE SMOOTH",
"146 342 OFFCURVE",
"162 356 OFFCURVE",
"192 373 CURVE",
"182 402 LINE",
"130 389 OFFCURVE",
"61 374 OFFCURVE",
"5 362 CURVE",
"13 332 LINE",
"31 315 OFFCURVE",
"49 300 OFFCURVE",
"71 263 CURVE SMOOTH",
"124 175 OFFCURVE",
"170 88 OFFCURVE",
"204 0 CURVE",
"268 0 LINE"
);
}
);
width = 472;
}
);
unicode = 0076;
},
{
color = 6;
glyphname = w;
lastChange = "2019-04-19 22:04:51 +0000";
layers = (
{
layerId = "31E65565-C22C-4792-86EE-013C6F95D489";
paths = (
{
closed = 1;
nodes = (
"405 285 LINE SMOOTH",
"422 319 OFFCURVE",
"437 354 OFFCURVE",
"466 372 CURVE",
"466 402 LINE",
"412 400 OFFCURVE",
"351 399 OFFCURVE",
"286 402 CURVE",
"286 372 LINE",
"346 366 OFFCURVE",
"370 342 OFFCURVE",
"350 296 CURVE SMOOTH",
"246 56 LINE",
"261 56 LINE",
"166 300 LINE SMOOTH",
"150 342 OFFCURVE",
"154 365 OFFCURVE",
"194 372 CURVE",
"194 402 LINE",
"132 399 OFFCURVE",
"71 398 OFFCURVE",
"5 402 CURVE",
"5 372 LINE",
"35 366 OFFCURVE",
"46 342 OFFCURVE",
"63 303 CURVE SMOOTH",
"196 0 LINE",
"260 0 LINE"
);
},
{
closed = 1;
nodes = (
"704 285 LINE SMOOTH",
"721 319 OFFCURVE",
"736 354 OFFCURVE",
"765 372 CURVE",
"765 402 LINE",
"711 400 OFFCURVE",
"650 399 OFFCURVE",
"585 402 CURVE",
"585 372 LINE",
"645 366 OFFCURVE",
"669 342 OFFCURVE",
"649 296 CURVE SMOOTH",
"545 56 LINE",
"560 56 LINE",
"465 300 LINE SMOOTH",
"449 342 OFFCURVE",
"453 365 OFFCURVE",
"493 372 CURVE",
"493 402 LINE",
"431 399 OFFCURVE",
"370 398 OFFCURVE",
"304 402 CURVE",
"304 372 LINE",
"334 366 OFFCURVE",
"345 342 OFFCURVE",
"362 303 CURVE SMOOTH",
"495 0 LINE",
"559 0 LINE"
);
}
);
width = 770;
}
);
unicode = 0077;
},
{
color = 4;
glyphname = x;
lastChange = "2019-04-24 16:48:09 +0000";
layers = (
{
layerId = "31E65565-C22C-4792-86EE-013C6F95D489";
paths = (
{
closed = 1;
nodes = (
"164 382 OFFCURVE",
"175 366 OFFCURVE",
"192 348 CURVE SMOOTH",
"276 260 OFFCURVE",
"372 159 OFFCURVE",
"444 85 CURVE SMOOTH",
"472 57 OFFCURVE",
"490 42 OFFCURVE",
"523 30 CURVE",
"523 0 LINE",
"478 1 OFFCURVE",
"427 1 OFFCURVE",
"382 0 CURVE",
"365 28 OFFCURVE",
"344 50 OFFCURVE",
"322 77 CURVE SMOOTH",
"255 158 OFFCURVE",
"135 281 OFFCURVE",
"64 344 CURVE SMOOTH",
"47 359 OFFCURVE",
"39 366 OFFCURVE",
"15 371 CURVE",
"15 401 LINE",
"61 400 OFFCURVE",
"106 400 OFFCURVE",
"152 401 CURVE"
);
},
{
closed = 1;
nodes = (
"21 112 LINE",
"72 112 LINE",
"85 86 OFFCURVE",
"96 64 OFFCURVE",
"135 64 CURVE SMOOTH",
"215 64 OFFCURVE",
"410 277 OFFCURVE",
"410 327 CURVE SMOOTH",
"410 352 OFFCURVE",
"378 359 OFFCURVE",
"342 373 CURVE",
"342 403 LINE",
"420 401 OFFCURVE",
"479 401 OFFCURVE",
"533 403 CURVE",
"533 373 LINE",
"508 352 OFFCURVE",
"497 341 OFFCURVE",
"475 312 CURVE SMOOTH",
"397 212 OFFCURVE",
"204 -8 OFFCURVE",
"95 -8 CURVE SMOOTH",
"66 -8 OFFCURVE",
"43 -3 OFFCURVE",
"16 9 CURVE"
);
}
);
width = 555;
}
);
unicode = 0078;
},
{
color = 4;
glyphname = y;
lastChange = "2019-04-24 16:48:09 +0000";
layers = (
{
layerId = "31E65565-C22C-4792-86EE-013C6F95D489";
paths = (
{
closed = 1;
nodes = (
"9 -280 LINE",
"413 300 LINE SMOOTH",
"430 324 OFFCURVE",
"444 349 OFFCURVE",
"469 373 CURVE",
"469 403 LINE",
"415 400 OFFCURVE",
"353 400 OFFCURVE",
"288 403 CURVE",
"288 373 LINE",
"353 348 OFFCURVE",
"366 327 OFFCURVE",
"341 286 CURVE SMOOTH",
"207 70 LINE",
"233 48 LINE",
"155 301 LINE SMOOTH",
"141 346 OFFCURVE",
"153 365 OFFCURVE",
"186 373 CURVE",
"186 403 LINE",
"124 401 OFFCURVE",
"63 400 OFFCURVE",
"-3 403 CURVE",
"-3 373 LINE",
"27 365 OFFCURVE",
"43 354 OFFCURVE",
"55 314 CURVE SMOOTH",
"159 -34 LINE",
"181 36 LINE",
"84 -87 OFFCURVE",
"16 -161 OFFCURVE",
"-25 -184 CURVE",
"-25 -280 LINE"
);
}
);
width = 474;
}
);
unicode = 0079;
},
{
color = 4;
glyphname = z;
lastChange = "2019-04-19 22:04:51 +0000";
layers = (
{
layerId = "31E65565-C22C-4792-86EE-013C6F95D489";
paths = (
{
closed = 1;
nodes = (
"212 -290 OFFCURVE",
"398 -78 OFFCURVE",
"398 53 CURVE SMOOTH",
"398 132 OFFCURVE",
"328 162 OFFCURVE",
"280 162 CURVE SMOOTH",
"244 162 OFFCURVE",
"204 152 OFFCURVE",
"169 134 CURVE",
"418 387 LINE",
"400 411 LINE",
"314 381 OFFCURVE",
"191 403 OFFCURVE",
"92 410 CURVE SMOOTH",
"14 330 LINE",
"27 308 LINE SMOOTH",
"80 323 OFFCURVE",
"240 304 OFFCURVE",
"295 301 CURVE",
"293 316 LINE",
"12 33 LINE",
"28 0 LINE",
"78 33 OFFCURVE",
"140 63 OFFCURVE",
"212 63 CURVE SMOOTH",
"268 63 OFFCURVE",
"303 41 OFFCURVE",
"303 -17 CURVE SMOOTH",
"303 -97 OFFCURVE",
"202 -230 OFFCURVE",
"112 -230 CURVE SMOOTH",
"87 -230 OFFCURVE",
"78 -224 OFFCURVE",
"70 -202 CURVE",
"47 -199 LINE",
"10 -267 LINE",
"10 -272 LINE",
"31 -284 OFFCURVE",
"50 -290 OFFCURVE",
"82 -290 CURVE SMOOTH"
);
}
);
width = 433;
}
);
unicode = 007A;
},
{
color = 4;
glyphname = z.ss01;
lastChange = "2019-04-19 22:04:51 +0000";
layers = (
{
layerId = "31E65565-C22C-4792-86EE-013C6F95D489";
paths = (
{
closed = 1;
nodes = (
"35 400 LINE",
"152 401 OFFCURVE",
"303 400 OFFCURVE",
"385 404 CURVE",
"386 377 LINE",
"132 12 LINE",
"71 31 LINE",
"260 51 LINE SMOOTH",
"299 55 OFFCURVE",
"320 85 OFFCURVE",
"335 121 CURVE",
"370 121 LINE",
"368 1 LINE",
"255 3 OFFCURVE",
"142 2 OFFCURVE",
"29 0 CURVE",
"30 27 LINE",
"271 380 LINE",
"334 363 LINE",
"125 337 LINE SMOOTH",
"82 332 OFFCURVE",
"74 307 OFFCURVE",
"57 276 CURVE",
"20 276 LINE"
);
}
);
width = 406;
}
);
},
{
color = 10;
glyphname = ampersand;
lastChange = "2019-04-19 22:04:51 +0000";
layers = (
{
layerId = "31E65565-C22C-4792-86EE-013C6F95D489";
paths = (
{
closed = 1;
nodes = (
"827 68 LINE",
"787 0 LINE",
"669 -35 OFFCURVE",
"584 -2 OFFCURVE",
"542 58 CURVE SMOOTH",
"426 223 OFFCURVE",
"380 462 OFFCURVE",
"379 525 CURVE SMOOTH",
"377 614 OFFCURVE",
"432 659 OFFCURVE",
"498 659 CURVE SMOOTH",
"577 659 OFFCURVE",
"652 609 OFFCURVE",
"652 549 CURVE SMOOTH",
"652 437 OFFCURVE",
"522 406 OFFCURVE",
"413 388 CURVE SMOOTH",
"288 367 OFFCURVE",
"175 335 OFFCURVE",
"175 217 CURVE SMOOTH",
"175 120 OFFCURVE",
"252 71 OFFCURVE",
"330 71 CURVE SMOOTH",
"458 71 OFFCURVE",
"556 184 OFFCURVE",
"663 289 CURVE SMOOTH",
"708 333 OFFCURVE",
"699 358 OFFCURVE",
"673 375 CURVE",
"675 402 LINE",
"728 398 OFFCURVE",
"780 398 OFFCURVE",
"833 402 CURVE",
"836 375 LINE",
"785 335 OFFCURVE",
"741 305 OFFCURVE",
"690 257 CURVE SMOOTH",
"613 185 OFFCURVE",
"451 1 OFFCURVE",
"283 -4 CURVE SMOOTH",
"148 -8 OFFCURVE",
"60 72 OFFCURVE",
"60 197 CURVE SMOOTH",
"60 383 OFFCURVE",
"237 416 OFFCURVE",
"345 419 CURVE SMOOTH",
"415 421 OFFCURVE",
"559 438 OFFCURVE",
"559 542 CURVE SMOOTH",
"559 574 OFFCURVE",
"546 590 OFFCURVE",
"515 590 CURVE SMOOTH",
"488 590 OFFCURVE",
"458 567 OFFCURVE",
"458 502 CURVE SMOOTH",
"458 436 OFFCURVE",
"516 237 OFFCURVE",
"604 105 CURVE SMOOTH",
"645 43 OFFCURVE",
"734 49 OFFCURVE",
"810 82 CURVE"
);
}
);
width = 897;
}
);
unicode = 0026;
},
{
color = 10;
glyphname = ampersand.ss01;
lastChange = "2019-04-19 22:04:51 +0000";
layers = (
{
layerId = "31E65565-C22C-4792-86EE-013C6F95D489";
paths = (
{
closed = 1;
nodes = (
"149 329 OFFCURVE",
"89 362 OFFCURVE",
"28 349 CURVE",
"15 371 LINE",
"102 429 LINE",
"172 388 OFFCURVE",
"220 361 OFFCURVE",
"261 411 CURVE",
"280 401 LINE",
"229 281 OFFCURVE",
"194 132 OFFCURVE",
"194 89 CURVE SMOOTH",
"194 52 OFFCURVE",
"240 43 OFFCURVE",
"290 45 CURVE",
"288 23 LINE",
"261 10 OFFCURVE",
"230 -8 OFFCURVE",
"196 -8 CURVE SMOOTH",
"154 -8 OFFCURVE",
"115 10 OFFCURVE",
"115 60 CURVE SMOOTH",
"115 131 OFFCURVE",
"189 291 OFFCURVE",
"179 328 CURVE",
"189 308 LINE"
);
},
{
closed = 1;
nodes = (
"149 233 OFFCURVE",
"224 227 OFFCURVE",
"300 232 CURVE",
"302 223 LINE",
"285 180 LINE",
"210 180 OFFCURVE",
"106 191 OFFCURVE",
"61 181 CURVE",
"57 188 LINE",
"73 233 LINE"
);
}
);
width = 325;
}
);
},
{
color = 10;
glyphname = con;
lastChange = "2019-04-19 22:04:51 +0000";
layers = (
{
layerId = "31E65565-C22C-4792-86EE-013C6F95D489";
paths = (
{
closed = 1;
nodes = (
"52 380 OFFCURVE",
"103 410 OFFCURVE",
"181 410 CURVE SMOOTH",
"311 410 OFFCURVE",
"385 329 OFFCURVE",
"385 199 CURVE SMOOTH",
"385 69 OFFCURVE",
"312 -9 OFFCURVE",
"192 -9 CURVE SMOOTH",
"121 -9 OFFCURVE",
"70 14 OFFCURVE",
"31 33 CURVE",
"42 61 LINE",
"65 54 OFFCURVE",
"102 45 OFFCURVE",
"134 45 CURVE SMOOTH",
"214 45 OFFCURVE",
"283 106 OFFCURVE",
"283 209 CURVE SMOOTH",
"283 305 OFFCURVE",
"214 365 OFFCURVE",
"138 365 CURVE",
"132 343 OFFCURVE",
"125 314 OFFCURVE",
"118 287 CURVE",
"109 282 LINE",
"80 293 OFFCURVE",
"37 306 OFFCURVE",
"10 318 CURVE",
"17 340 LINE"
);
}
);
width = 415;
}
);
unicode = A76F;
},
{
color = 10;
glyphname = etfin;
lastChange = "2019-04-19 22:05:26 +0000";
layers = (
{
layerId = "31E65565-C22C-4792-86EE-013C6F95D489";
paths = (
{
closed = 1;
nodes = (
"212 -290 OFFCURVE",
"398 -78 OFFCURVE",
"398 53 CURVE SMOOTH",
"398 132 OFFCURVE",
"328 162 OFFCURVE",
"280 162 CURVE SMOOTH",
"244 162 OFFCURVE",
"204 152 OFFCURVE",
"169 134 CURVE",
"418 387 LINE",
"400 411 LINE",
"314 381 OFFCURVE",
"201 403 OFFCURVE",
"102 410 CURVE",
"23 312 LINE",
"52 297 LINE",
"105 348 OFFCURVE",
"240 304 OFFCURVE",
"295 301 CURVE",
"293 316 LINE",
"12 33 LINE",
"28 0 LINE",
"78 33 OFFCURVE",
"140 63 OFFCURVE",
"212 63 CURVE SMOOTH",
"268 63 OFFCURVE",
"303 41 OFFCURVE",
"303 -17 CURVE SMOOTH",
"303 -117 OFFCURVE",
"202 -230 OFFCURVE",
"112 -230 CURVE SMOOTH",
"87 -230 OFFCURVE",
"78 -224 OFFCURVE",
"70 -202 CURVE",
"47 -199 LINE",
"10 -267 LINE",
"10 -272 LINE",
"31 -284 OFFCURVE",
"50 -290 OFFCURVE",
"82 -290 CURVE SMOOTH"
);
}
);
width = 433;
}
);
unicode = A76B;
},
{
color = 10;
glyphname = rum;
lastChange = "2019-04-19 22:04:51 +0000";
layers = (
{
layerId = "31E65565-C22C-4792-86EE-013C6F95D489";
paths = (
{
closed = 1;
nodes = (
"581 330 LINE",
"496 339 OFFCURVE",
"486 329 OFFCURVE",
"462 275 CURVE SMOOTH",
"421 184 OFFCURVE",
"367 -54 OFFCURVE",
"244 -223 CURVE",
"209 -203 LINE",
"370 0 OFFCURVE",
"404 302 OFFCURVE",
"440 409 CURVE",
"471 401 OFFCURVE",
"560 372 OFFCURVE",
"590 362 CURVE"
);
},
{
closed = 1;
nodes = (
"1 22 LINE",
"102 93 OFFCURVE",
"171 166 OFFCURVE",
"171 253 CURVE SMOOTH",
"171 331 OFFCURVE",
"88 368 OFFCURVE",
"35 333 CURVE",
"32 364 LINE",
"70 397 OFFCURVE",
"120 410 OFFCURVE",
"142 410 CURVE SMOOTH",
"199 410 OFFCURVE",
"253 369 OFFCURVE",
"253 300 CURVE SMOOTH",
"253 188 OFFCURVE",
"129 96 OFFCURVE",
"88 47 CURVE",
"92 73 LINE",
"88 77 OFFCURVE",
"247 83 OFFCURVE",
"353 83 CURVE SMOOTH",
"422 83 OFFCURVE",
"444 66 OFFCURVE",
"503 66 CURVE SMOOTH",
"543 66 OFFCURVE",
"548 74 OFFCURVE",
"584 88 CURVE",
"596 65 LINE",
"576 56 OFFCURVE",
"492 -7 OFFCURVE",
"445 -7 CURVE SMOOTH",
"382 -7 OFFCURVE",
"275 15 OFFCURVE",
"173 15 CURVE SMOOTH",
"86 15 OFFCURVE",
"42 9 OFFCURVE",
"5 -12 CURVE"
);
}
);
width = 600;
}
);
unicode = A775;
},
{
color = 10;
glyphname = usmod;
lastChange = "2019-04-19 22:04:51 +0000";
layers = (
{
layerId = "31E65565-C22C-4792-86EE-013C6F95D489";
paths = (
{
closed = 1;
nodes = (
"222 310 OFFCURVE",
"255 331 OFFCURVE",
"274 352 CURVE",
"268 373 LINE",
"199 342 OFFCURVE",
"116 404 OFFCURVE",
"116 499 CURVE SMOOTH",
"116 591 OFFCURVE",
"152 661 OFFCURVE",
"222 661 CURVE SMOOTH",
"297 661 OFFCURVE",
"355 591 OFFCURVE",
"355 449 CURVE SMOOTH",
"355 301 OFFCURVE",
"255 90 OFFCURVE",
"83 10 CURVE",
"85 -11 LINE",
"149 -20 LINE",
"241 66 OFFCURVE",
"458 264 OFFCURVE",
"458 495 CURVE SMOOTH",
"458 600 OFFCURVE",
"392 713 OFFCURVE",
"234 713 CURVE SMOOTH",
"92 713 OFFCURVE",
"15 596 OFFCURVE",
"15 489 CURVE SMOOTH",
"15 389 OFFCURVE",
"86 310 OFFCURVE",
"185 310 CURVE SMOOTH"
);
}
);
width = 473;
}
);
unicode = A770;
},
{
color = 10;
glyphname = us_ra;
lastChange = "2019-04-19 22:04:51 +0000";
layers = (
{
components = (
{
name = usmod.ss01;
}
);
layerId = "31E65565-C22C-4792-86EE-013C6F95D489";
paths = (
{
closed = 1;
nodes = (
"56 556 OFFCURVE",
"94 603 OFFCURVE",
"115 630 CURVE",
"123 627 LINE",
"146 601 OFFCURVE",
"177 568 OFFCURVE",
"198 568 CURVE SMOOTH",
"212 568 OFFCURVE",
"228 585 OFFCURVE",
"257 627 CURVE",
"268 625 LINE",
"284 594 OFFCURVE",
"317 558 OFFCURVE",
"345 553 CURVE SMOOTH",
"357 551 OFFCURVE",
"387 571 OFFCURVE",
"420 630 CURVE",
"437 611 LINE",
"412 552 OFFCURVE",
"357 499 OFFCURVE",
"320 480 CURVE",
"301 489 OFFCURVE",
"260 525 OFFCURVE",
"222 558 CURVE",
"257 557 LINE",
"228 547 OFFCURVE",
"202 522 OFFCURVE",
"165 485 CURVE",
"135 505 OFFCURVE",
"114 540 OFFCURVE",
"89 544 CURVE",
"78 541 OFFCURVE",
"70 529 OFFCURVE",
"66 522 CURVE",
"46 541 LINE"
);
}
);
width = 473;
}
);
},
{
color = 10;
glyphname = comma;
lastChange = "2019-04-19 22:04:51 +0000";
layers = (
{
layerId = "31E65565-C22C-4792-86EE-013C6F95D489";
paths = (
{
closed = 1;
nodes = (
"176 74 LINE",
"182 51 LINE",
"153 -49 OFFCURVE",
"88 -133 OFFCURVE",
"-45 -170 CURVE",
"-50 -141 LINE",
"14 -116 OFFCURVE",
"80 -40 OFFCURVE",
"80 14 CURVE SMOOTH",
"80 28 OFFCURVE",
"76 43 OFFCURVE",
"67 51 CURVE",
"72 74 LINE"
);
}
);
width = 222;
}
);
unicode = 002C;
},
{
color = 10;
glyphname = hyphen;
lastChange = "2019-04-19 22:04:51 +0000";
layers = (
{
layerId = "31E65565-C22C-4792-86EE-013C6F95D489";
paths = (
{
closed = 1;
nodes = (
"22 117 LINE",
"31 117 LINE",
"292 378 LINE",
"292 451 LINE",
"282 451 LINE",
"20 154 LINE"
);
}
);
width = 312;
}
);
unicode = 002D;
},
{
color = 10;
glyphname = period;
lastChange = "2019-04-19 22:04:51 +0000";
layers = (
{
layerId = "31E65565-C22C-4792-86EE-013C6F95D489";
paths = (
{
closed = 1;
nodes = (
"68 112 OFFCURVE",
"37 87 OFFCURVE",
"20 66 CURVE",
"36 45 OFFCURVE",
"61 18 OFFCURVE",
"80 0 CURVE",
"103 17 OFFCURVE",
"129 40 OFFCURVE",
"147 57 CURVE",
"132 80 OFFCURVE",
"111 107 OFFCURVE",
"89 124 CURVE"
);
}
);
width = 167;
}
);
unicode = 002E;
},
{
color = 10;
glyphname = blason;
lastChange = "2019-04-19 22:04:51 +0000";
layers = (
{
layerId = "31E65565-C22C-4792-86EE-013C6F95D489";
paths = (
{
closed = 1;
nodes = (
"148 120 OFFCURVE",
"228 185 OFFCURVE",
"314 185 CURVE SMOOTH",
"368 185 OFFCURVE",
"370 173 OFFCURVE",
"418 171 CURVE",
"418 159 OFFCURVE",
"412 149 OFFCURVE",
"402 143 CURVE",
"391 163 OFFCURVE",
"369 177 OFFCURVE",
"317 178 CURVE",
"318 154 LINE",
"346 152 OFFCURVE",
"372 133 OFFCURVE",
"397 111 CURVE",
"356 98 LINE",
"368 118 OFFCURVE",
"347 146 OFFCURVE",
"319 148 CURVE",
"321 110 OFFCURVE",
"322 72 OFFCURVE",
"322 33 CURVE",
"353 14 OFFCURVE",
"385 -8 OFFCURVE",
"385 -53 CURVE SMOOTH",
"385 -90 OFFCURVE",
"352 -122 OFFCURVE",
"320 -125 CURVE",
"319 -142 LINE",
"396 -138 OFFCURVE",
"451 -51 OFFCURVE",
"451 -19 CURVE SMOOTH",
"451 37 LINE",
"450 261 LINE",
"406 236 LINE",
"431 271 LINE",
"389 285 LINE",
"428 296 LINE",
"402 346 LINE",
"450 310 LINE",
"449 393 LINE",
"296 392 LINE SMOOTH",
"265 392 OFFCURVE",
"248 387 OFFCURVE",
"230 378 CURVE",
"235 393 OFFCURVE",
"238 411 OFFCURVE",
"236 429 CURVE",
"253 418 OFFCURVE",
"269 411 OFFCURVE",
"300 411 CURVE SMOOTH",
"449 411 LINE",
"449 530 LINE",
"381 530 LINE SMOOTH",
"362 530 OFFCURVE",
"349 526 OFFCURVE",
"338 520 CURVE",
"342 531 OFFCURVE",
"343 547 OFFCURVE",
"337 561 CURVE",
"344 557 OFFCURVE",
"351 551 OFFCURVE",
"380 551 CURVE SMOOTH",
"449 551 LINE",
"448 676 LINE",
"448 695 OFFCURVE",
"444 708 OFFCURVE",
"438 719 CURVE",
"449 715 OFFCURVE",
"462 714 OFFCURVE",
"476 720 CURVE",
"472 713 OFFCURVE",
"468 702 OFFCURVE",
"468 677 CURVE SMOOTH",
"468 551 LINE",
"536 551 LINE SMOOTH",
"561 551 OFFCURVE",
"574 559 OFFCURVE",
"585 564 CURVE",
"575 547 OFFCURVE",
"575 541 OFFCURVE",
"585 526 CURVE",
"571 527 OFFCURVE",
"556 531 OFFCURVE",
"542 531 CURVE SMOOTH",
"468 531 LINE",
"469 412 LINE",
"605 412 LINE SMOOTH",
"644 412 OFFCURVE",
"669 422 OFFCURVE",
"691 440 CURVE",
"684 418 OFFCURVE",
"684 402 OFFCURVE",
"694 384 CURVE",
"661 392 OFFCURVE",
"634 394 OFFCURVE",
"600 394 CURVE SMOOTH",
"469 393 LINE",
"470 307 LINE",
"511 335 LINE",
"489 294 LINE",
"532 289 LINE",
"488 278 LINE",
"511 236 LINE",
"471 261 LINE",
"471 160 LINE",
"500 177 OFFCURVE",
"542 195 OFFCURVE",
"597 195 CURVE SMOOTH",
"680 195 OFFCURVE",
"777 132 OFFCURVE",
"777 26 CURVE SMOOTH",
"777 -30 OFFCURVE",
"731 -93 OFFCURVE",
"684 -128 CURVE",
"697 -134 OFFCURVE",
"711 -139 OFFCURVE",
"724 -139 CURVE SMOOTH",
"754 -139 OFFCURVE",
"771 -134 OFFCURVE",
"771 -124 CURVE SMOOTH",
"771 -113 OFFCURVE",
"760 -113 OFFCURVE",
"757 -116 CURVE",
"757 -113 OFFCURVE",
"762 -101 OFFCURVE",
"771 -101 CURVE SMOOTH",
"780 -101 OFFCURVE",
"787 -108 OFFCURVE",
"787 -121 CURVE SMOOTH",
"787 -134 OFFCURVE",
"752 -152 OFFCURVE",
"724 -152 CURVE SMOOTH",
"708 -152 OFFCURVE",
"687 -149 OFFCURVE",
"668 -138 CURVE",
"661 -142 OFFCURVE",
"654 -145 OFFCURVE",
"648 -148 CURVE SMOOTH",
"603 -165 OFFCURVE",
"551 -181 OFFCURVE",
"503 -200 CURVE SMOOTH",
"480 -209 OFFCURVE",
"476 -216 OFFCURVE",
"476 -228 CURVE SMOOTH",
"476 -234 OFFCURVE",
"480 -241 OFFCURVE",
"485 -241 CURVE SMOOTH",
"493 -241 OFFCURVE",
"497 -236 OFFCURVE",
"499 -231 CURVE",
"511 -234 OFFCURVE",
"506 -248 OFFCURVE",
"485 -248 CURVE SMOOTH",
"476 -248 OFFCURVE",
"464 -242 OFFCURVE",
"464 -228 CURVE SMOOTH",
"464 -212 OFFCURVE",
"482 -202 OFFCURVE",
"497 -196 CURVE SMOOTH",
"546 -176 OFFCURVE",
"594 -163 OFFCURVE",
"643 -144 CURVE SMOOTH",
"650 -141 OFFCURVE",
"656 -138 OFFCURVE",
"662 -135 CURVE",
"647 -125 OFFCURVE",
"634 -109 OFFCURVE",
"626 -86 CURVE SMOOTH",
"608 -31 OFFCURVE",
"592 14 OFFCURVE",
"563 25 CURVE SMOOTH",
"544 32 LINE",
"526 22 OFFCURVE",
"502 11 OFFCURVE",
"472 -3 CURVE",
"472 -8 LINE SMOOTH",
"472 -61 OFFCURVE",
"528 -110 OFFCURVE",
"553 -125 CURVE",
"543 -140 LINE",
"534 -126 OFFCURVE",
"514 -113 OFFCURVE",
"495 -91 CURVE",
"483 -103 OFFCURVE",
"471 -118 OFFCURVE",
"459 -130 CURVE",
"447 -117 OFFCURVE",
"437 -103 OFFCURVE",
"425 -90 CURVE",
"398 -123 OFFCURVE",
"360 -149 OFFCURVE",
"314 -149 CURVE SMOOTH",
"195 -149 OFFCURVE",
"148 -62 OFFCURVE",
"148 19 CURVE SMOOTH"
);
},
{
closed = 1;
nodes = (
"176 -70 OFFCURVE",
"223 -141 OFFCURVE",
"312 -142 CURVE",
"313 -125 LINE",
"269 -124 OFFCURVE",
"265 -98 OFFCURVE",
"226 -78 CURVE",
"242 -78 OFFCURVE",
"256 -73 OFFCURVE",
"265 -63 CURVE",
"259 -98 OFFCURVE",
"288 -117 OFFCURVE",
"313 -119 CURVE",
"314 -81 OFFCURVE",
"314 -43 OFFCURVE",
"314 -5 CURVE",
"282 14 OFFCURVE",
"248 37 OFFCURVE",
"248 91 CURVE SMOOTH",
"248 129 OFFCURVE",
"287 152 OFFCURVE",
"310 154 CURVE",
"309 178 LINE",
"226 176 OFFCURVE",
"176 108 OFFCURVE",
"176 21 CURVE SMOOTH"
);
},
{
closed = 1;
nodes = (
"261 67 OFFCURVE",
"286 53 OFFCURVE",
"314 37 CURVE",
"313 74 OFFCURVE",
"312 111 OFFCURVE",
"310 148 CURVE",
"274 145 OFFCURVE",
"259 114 OFFCURVE",
"260 92 CURVE SMOOTH"
);
},
{
closed = 1;
nodes = (
"321 -205 LINE",
"334 -190 LINE",
"342 -204 LINE",
"356 -201 LINE",
"348 -216 LINE",
"357 -234 LINE",
"331 -224 LINE",
"310 -235 LINE",
"317 -216 LINE",
"305 -206 LINE"
);
},
{
closed = 1;
nodes = (
"347 -116 OFFCURVE",
"370 -91 OFFCURVE",
"370 -65 CURVE SMOOTH",
"370 -38 OFFCURVE",
"348 -24 OFFCURVE",
"322 -10 CURVE",
"322 -46 OFFCURVE",
"321 -82 OFFCURVE",
"320 -119 CURVE"
);
},
{
closed = 1;
nodes = (
"440 -97 OFFCURVE",
"450 -107 OFFCURVE",
"459 -119 CURVE",
"470 -109 OFFCURVE",
"480 -97 OFFCURVE",
"490 -86 CURVE",
"478 -72 OFFCURVE",
"467 -54 OFFCURVE",
"460 -29 CURVE",
"454 -47 OFFCURVE",
"444 -66 OFFCURVE",
"431 -83 CURVE"
);
},
{
closed = 1;
nodes = (
"472 72 LINE",
"545 46 LINE",
"551 43 LINE",
"570 53 OFFCURVE",
"581 64 OFFCURVE",
"581 82 CURVE SMOOTH",
"581 118 OFFCURVE",
"549 154 OFFCURVE",
"507 154 CURVE SMOOTH",
"493 154 OFFCURVE",
"485 151 OFFCURVE",
"472 147 CURVE"
);
},
{
closed = 1;
nodes = (
"472 6 LINE",
"497 18 OFFCURVE",
"518 27 OFFCURVE",
"536 35 CURVE",
"472 59 LINE"
);
},
{
closed = 1;
nodes = (
"494 164 OFFCURVE",
"501 165 OFFCURVE",
"509 165 CURVE SMOOTH",
"556 165 OFFCURVE",
"601 142 OFFCURVE",
"601 96 CURVE SMOOTH",
"601 72 OFFCURVE",
"589 58 OFFCURVE",
"558 40 CURVE",
"591 24 OFFCURVE",
"610 15 OFFCURVE",
"620 -8 CURVE",
"647 -90 LINE SMOOTH",
"651 -101 OFFCURVE",
"663 -114 OFFCURVE",
"678 -124 CURVE",
"719 -93 OFFCURVE",
"750 -41 OFFCURVE",
"751 10 CURVE SMOOTH",
"753 129 OFFCURVE",
"662 185 OFFCURVE",
"586 185 CURVE SMOOTH",
"553 185 OFFCURVE",
"520 178 OFFCURVE",
"486 162 CURVE"
);
},
{
closed = 1;
nodes = (
"611 -201 LINE",
"618 -184 LINE",
"625 -199 LINE",
"641 -197 LINE",
"632 -212 LINE",
"641 -229 LINE",
"621 -221 LINE",
"601 -231 LINE",
"609 -213 LINE",
"596 -200 LINE"
);
},
{
closed = 1;
nodes = (
"103 -280 LINE",
"839 -280 LINE",
"839 750 LINE",
"100 750 LINE"
);
}
